<?xml version="1.0" encoding="utf-8"?>
<!-- Generator: Adobe Illustrator 22.0.1, SVG Export Plug-In . SVG Version: 6.00 Build 0)  -->
<svg version="1.1" id="Capa_1" xmlns="http://www.w3.org/2000/svg" xmlns:xlink="http://www.w3.org/1999/xlink" x="0px" y="0px"
	 viewBox="0 0 2.8 596.8" style="enable-background:new 0 0 2.8 596.8;" xml:space="preserve">
<style type="text/css">
	.st0{fill:#211915;}
</style>
<g>
	<circle class="st0" cx="1.4" cy="595.4" r="1.4"/>
	<circle class="st0" cx="1.4" cy="587.2" r="1.4"/>
	<circle class="st0" cx="1.4" cy="578.9" r="1.4"/>
	<circle class="st0" cx="1.4" cy="570.7" r="1.4"/>
	<circle class="st0" cx="1.4" cy="562.4" r="1.4"/>
	<circle class="st0" cx="1.4" cy="554.2" r="1.4"/>
	<circle class="st0" cx="1.4" cy="545.9" r="1.4"/>
	<circle class="st0" cx="1.4" cy="537.7" r="1.4"/>
	<circle class="st0" cx="1.4" cy="529.4" r="1.4"/>
	<circle class="st0" cx="1.4" cy="521.2" r="1.4"/>
	<circle class="st0" cx="1.4" cy="512.9" r="1.4"/>
	<circle class="st0" cx="1.4" cy="504.7" r="1.4"/>
	<circle class="st0" cx="1.4" cy="496.4" r="1.4"/>
	<circle class="st0" cx="1.4" cy="488.2" r="1.4"/>
	<circle class="st0" cx="1.4" cy="479.9" r="1.4"/>
	<circle class="st0" cx="1.4" cy="471.7" r="1.4"/>
	<circle class="st0" cx="1.4" cy="463.4" r="1.4"/>
	<circle class="st0" cx="1.4" cy="455.2" r="1.4"/>
	<circle class="st0" cx="1.4" cy="446.9" r="1.4"/>
	<circle class="st0" cx="1.4" cy="438.7" r="1.4"/>
	<circle class="st0" cx="1.4" cy="430.4" r="1.4"/>
	<circle class="st0" cx="1.4" cy="422.2" r="1.4"/>
	<circle class="st0" cx="1.4" cy="413.9" r="1.4"/>
	<circle class="st0" cx="1.4" cy="405.7" r="1.4"/>
	<circle class="st0" cx="1.4" cy="397.4" r="1.4"/>
	<circle class="st0" cx="1.4" cy="389.2" r="1.4"/>
	<circle class="st0" cx="1.4" cy="380.9" r="1.4"/>
	<circle class="st0" cx="1.4" cy="372.7" r="1.4"/>
	<circle class="st0" cx="1.4" cy="364.4" r="1.4"/>
	<circle class="st0" cx="1.4" cy="356.2" r="1.4"/>
	<circle class="st0" cx="1.4" cy="347.9" r="1.4"/>
	<circle class="st0" cx="1.4" cy="339.7" r="1.4"/>
	<circle class="st0" cx="1.4" cy="331.4" r="1.4"/>
	<circle class="st0" cx="1.4" cy="323.2" r="1.4"/>
	<circle class="st0" cx="1.4" cy="314.9" r="1.4"/>
	<circle class="st0" cx="1.4" cy="306.7" r="1.4"/>
	<circle class="st0" cx="1.4" cy="298.4" r="1.4"/>
	<circle class="st0" cx="1.4" cy="290.2" r="1.4"/>
	<circle class="st0" cx="1.4" cy="281.9" r="1.4"/>
	<circle class="st0" cx="1.4" cy="273.7" r="1.4"/>
	<circle class="st0" cx="1.4" cy="265.4" r="1.4"/>
	<circle class="st0" cx="1.4" cy="257.2" r="1.4"/>
	<circle class="st0" cx="1.4" cy="248.9" r="1.4"/>
	<circle class="st0" cx="1.4" cy="240.7" r="1.4"/>
	<circle class="st0" cx="1.4" cy="232.4" r="1.4"/>
	<circle class="st0" cx="1.4" cy="224.2" r="1.4"/>
	<circle class="st0" cx="1.4" cy="215.9" r="1.4"/>
	<circle class="st0" cx="1.4" cy="207.7" r="1.4"/>
	<circle class="st0" cx="1.4" cy="199.4" r="1.4"/>
	<circle class="st0" cx="1.4" cy="191.2" r="1.4"/>
	<circle class="st0" cx="1.4" cy="182.9" r="1.4"/>
	<circle class="st0" cx="1.4" cy="174.7" r="1.4"/>
	<circle class="st0" cx="1.4" cy="166.4" r="1.4"/>
	<circle class="st0" cx="1.4" cy="158.2" r="1.4"/>
	<circle class="st0" cx="1.4" cy="149.9" r="1.4"/>
	<circle class="st0" cx="1.4" cy="141.7" r="1.4"/>
	<circle class="st0" cx="1.4" cy="133.4" r="1.4"/>
	<circle class="st0" cx="1.4" cy="125.2" r="1.4"/>
	<circle class="st0" cx="1.4" cy="116.9" r="1.4"/>
	<circle class="st0" cx="1.4" cy="108.7" r="1.4"/>
	<circle class="st0" cx="1.4" cy="100.4" r="1.4"/>
	<circle class="st0" cx="1.4" cy="92.2" r="1.4"/>
	<circle class="st0" cx="1.4" cy="83.9" r="1.4"/>
	<circle class="st0" cx="1.4" cy="75.7" r="1.4"/>
	<circle class="st0" cx="1.4" cy="67.4" r="1.4"/>
	<circle class="st0" cx="1.4" cy="59.2" r="1.4"/>
	<circle class="st0" cx="1.4" cy="50.9" r="1.4"/>
	<circle class="st0" cx="1.4" cy="42.7" r="1.4"/>
	<circle class="st0" cx="1.4" cy="34.4" r="1.4"/>
	<circle class="st0" cx="1.4" cy="26.2" r="1.4"/>
	<circle class="st0" cx="1.4" cy="17.9" r="1.4"/>
	<circle class="st0" cx="1.4" cy="26.2" r="1.4"/>
	<circle class="st0" cx="1.4" cy="17.9" r="1.4"/>
	<circle class="st0" cx="1.4" cy="9.7" r="1.4"/>
	<circle class="st0" cx="1.4" cy="1.4" r="1.4"/>
</g>
</svg>
