<?xml version="1.0" encoding="utf-8"?>
<!-- Generator: Adobe Illustrator 22.0.1, SVG Export Plug-In . SVG Version: 6.00 Build 0)  -->
<svg version="1.1" id="Capa_1" xmlns="http://www.w3.org/2000/svg" xmlns:xlink="http://www.w3.org/1999/xlink" x="0px" y="0px"
	 viewBox="0 0 600 2.9" style="enable-background:new 0 0 600 2.9;" xml:space="preserve">
<style type="text/css">
	.st0{fill:#211915;}
</style>
<g>
	<circle class="st0" cx="4.6" cy="1.5" r="1.4"/>
	<circle class="st0" cx="12.8" cy="1.5" r="1.4"/>
	<circle class="st0" cx="21.1" cy="1.5" r="1.4"/>
	<circle class="st0" cx="29.3" cy="1.5" r="1.4"/>
	<circle class="st0" cx="37.6" cy="1.5" r="1.4"/>
	<circle class="st0" cx="45.8" cy="1.5" r="1.4"/>
	<circle class="st0" cx="54.1" cy="1.5" r="1.4"/>
	<circle class="st0" cx="62.3" cy="1.5" r="1.4"/>
	<circle class="st0" cx="70.6" cy="1.5" r="1.4"/>
	<circle class="st0" cx="78.8" cy="1.5" r="1.4"/>
	<circle class="st0" cx="87.1" cy="1.5" r="1.4"/>
	<circle class="st0" cx="95.3" cy="1.5" r="1.4"/>
	<circle class="st0" cx="103.6" cy="1.5" r="1.4"/>
	<circle class="st0" cx="111.8" cy="1.5" r="1.4"/>
	<circle class="st0" cx="120.1" cy="1.5" r="1.4"/>
	<circle class="st0" cx="128.3" cy="1.5" r="1.4"/>
	<circle class="st0" cx="136.6" cy="1.5" r="1.4"/>
	<circle class="st0" cx="144.8" cy="1.5" r="1.4"/>
	<circle class="st0" cx="153.1" cy="1.5" r="1.4"/>
	<circle class="st0" cx="161.3" cy="1.5" r="1.4"/>
	<circle class="st0" cx="169.6" cy="1.5" r="1.4"/>
	<circle class="st0" cx="177.8" cy="1.5" r="1.4"/>
	<circle class="st0" cx="186.1" cy="1.5" r="1.4"/>
	<circle class="st0" cx="194.3" cy="1.5" r="1.4"/>
	<circle class="st0" cx="202.6" cy="1.5" r="1.4"/>
	<circle class="st0" cx="210.8" cy="1.5" r="1.4"/>
	<circle class="st0" cx="219.1" cy="1.5" r="1.4"/>
	<circle class="st0" cx="227.3" cy="1.5" r="1.4"/>
	<circle class="st0" cx="235.6" cy="1.5" r="1.4"/>
	<circle class="st0" cx="243.8" cy="1.5" r="1.4"/>
	<circle class="st0" cx="252.1" cy="1.5" r="1.4"/>
	<circle class="st0" cx="260.3" cy="1.5" r="1.4"/>
	<circle class="st0" cx="268.6" cy="1.5" r="1.4"/>
	<circle class="st0" cx="276.8" cy="1.5" r="1.4"/>
	<circle class="st0" cx="285.1" cy="1.5" r="1.4"/>
	<circle class="st0" cx="293.3" cy="1.5" r="1.4"/>
	<circle class="st0" cx="301.6" cy="1.5" r="1.4"/>
	<circle class="st0" cx="309.8" cy="1.5" r="1.4"/>
	<circle class="st0" cx="318.1" cy="1.5" r="1.4"/>
	<circle class="st0" cx="326.3" cy="1.5" r="1.4"/>
	<circle class="st0" cx="334.6" cy="1.5" r="1.4"/>
	<circle class="st0" cx="342.8" cy="1.5" r="1.4"/>
	<circle class="st0" cx="351.1" cy="1.5" r="1.4"/>
	<circle class="st0" cx="359.3" cy="1.5" r="1.4"/>
	<circle class="st0" cx="367.6" cy="1.5" r="1.4"/>
	<circle class="st0" cx="375.8" cy="1.5" r="1.4"/>
	<circle class="st0" cx="384.1" cy="1.5" r="1.4"/>
	<circle class="st0" cx="392.3" cy="1.5" r="1.4"/>
	<circle class="st0" cx="400.6" cy="1.5" r="1.4"/>
	<circle class="st0" cx="408.8" cy="1.5" r="1.4"/>
	<circle class="st0" cx="417.1" cy="1.5" r="1.4"/>
	<circle class="st0" cx="425.3" cy="1.5" r="1.4"/>
	<circle class="st0" cx="433.6" cy="1.5" r="1.4"/>
	<circle class="st0" cx="441.8" cy="1.5" r="1.4"/>
	<circle class="st0" cx="450.1" cy="1.5" r="1.4"/>
	<circle class="st0" cx="458.3" cy="1.5" r="1.4"/>
	<circle class="st0" cx="466.6" cy="1.5" r="1.4"/>
	<circle class="st0" cx="474.8" cy="1.5" r="1.4"/>
	<circle class="st0" cx="483.1" cy="1.5" r="1.4"/>
	<circle class="st0" cx="491.3" cy="1.5" r="1.4"/>
	<circle class="st0" cx="499.6" cy="1.5" r="1.4"/>
	<circle class="st0" cx="507.8" cy="1.5" r="1.4"/>
	<circle class="st0" cx="516.1" cy="1.5" r="1.4"/>
	<circle class="st0" cx="524.3" cy="1.5" r="1.4"/>
	<circle class="st0" cx="532.6" cy="1.5" r="1.4"/>
	<circle class="st0" cx="540.8" cy="1.5" r="1.4"/>
	<circle class="st0" cx="549.1" cy="1.5" r="1.4"/>
	<circle class="st0" cx="557.3" cy="1.5" r="1.4"/>
	<circle class="st0" cx="565.6" cy="1.5" r="1.4"/>
	<circle class="st0" cx="573.8" cy="1.5" r="1.4"/>
	<circle class="st0" cx="582.1" cy="1.5" r="1.4"/>
	<circle class="st0" cx="573.8" cy="1.5" r="1.4"/>
	<circle class="st0" cx="582.1" cy="1.5" r="1.4"/>
	<circle class="st0" cx="590.3" cy="1.5" r="1.4"/>
	<circle class="st0" cx="598.6" cy="1.5" r="1.4"/>
</g>
</svg>
