<?xml version="1.0" encoding="utf-8"?>
<!-- Generator: Adobe Illustrator 22.0.1, SVG Export Plug-In . SVG Version: 6.00 Build 0)  -->
<svg version="1.1" id="Capa_1" xmlns="http://www.w3.org/2000/svg" xmlns:xlink="http://www.w3.org/1999/xlink" x="0px" y="0px"
	 viewBox="0 0 400 2.9" style="enable-background:new 0 0 400 2.9;" xml:space="preserve">
<style type="text/css">
	.st0{fill:#211915;}
</style>
<g>
	<circle class="st0" cx="2" cy="1.5" r="1.4"/>
	<circle class="st0" cx="10.3" cy="1.5" r="1.4"/>
	<circle class="st0" cx="18.5" cy="1.5" r="1.4"/>
	<circle class="st0" cx="26.8" cy="1.5" r="1.4"/>
	<circle class="st0" cx="35" cy="1.5" r="1.4"/>
	<circle class="st0" cx="43.3" cy="1.5" r="1.4"/>
	<circle class="st0" cx="51.5" cy="1.5" r="1.4"/>
	<circle class="st0" cx="59.8" cy="1.5" r="1.4"/>
	<circle class="st0" cx="68" cy="1.5" r="1.4"/>
	<circle class="st0" cx="76.3" cy="1.5" r="1.4"/>
	<circle class="st0" cx="84.5" cy="1.5" r="1.4"/>
	<circle class="st0" cx="92.8" cy="1.5" r="1.4"/>
	<circle class="st0" cx="101" cy="1.5" r="1.4"/>
	<circle class="st0" cx="109.3" cy="1.5" r="1.4"/>
	<circle class="st0" cx="117.5" cy="1.5" r="1.4"/>
	<circle class="st0" cx="125.8" cy="1.5" r="1.4"/>
	<circle class="st0" cx="134" cy="1.5" r="1.4"/>
	<circle class="st0" cx="142.3" cy="1.5" r="1.4"/>
	<circle class="st0" cx="150.5" cy="1.5" r="1.4"/>
	<circle class="st0" cx="158.8" cy="1.5" r="1.4"/>
	<circle class="st0" cx="167" cy="1.5" r="1.4"/>
	<circle class="st0" cx="175.3" cy="1.5" r="1.4"/>
	<circle class="st0" cx="183.5" cy="1.5" r="1.4"/>
	<circle class="st0" cx="191.8" cy="1.5" r="1.4"/>
	<circle class="st0" cx="200" cy="1.5" r="1.4"/>
	<circle class="st0" cx="208.3" cy="1.5" r="1.4"/>
	<circle class="st0" cx="216.5" cy="1.5" r="1.4"/>
	<circle class="st0" cx="224.8" cy="1.5" r="1.4"/>
	<circle class="st0" cx="233" cy="1.5" r="1.4"/>
	<circle class="st0" cx="241.3" cy="1.5" r="1.4"/>
	<circle class="st0" cx="249.5" cy="1.5" r="1.4"/>
	<circle class="st0" cx="257.8" cy="1.5" r="1.4"/>
	<circle class="st0" cx="266" cy="1.5" r="1.4"/>
	<circle class="st0" cx="274.3" cy="1.5" r="1.4"/>
	<circle class="st0" cx="282.5" cy="1.5" r="1.4"/>
	<circle class="st0" cx="290.8" cy="1.5" r="1.4"/>
	<circle class="st0" cx="299" cy="1.5" r="1.4"/>
	<circle class="st0" cx="307.3" cy="1.5" r="1.4"/>
	<circle class="st0" cx="315.5" cy="1.5" r="1.4"/>
	<circle class="st0" cx="323.8" cy="1.5" r="1.4"/>
	<circle class="st0" cx="332" cy="1.5" r="1.4"/>
	<circle class="st0" cx="340.3" cy="1.5" r="1.4"/>
	<circle class="st0" cx="348.5" cy="1.5" r="1.4"/>
	<circle class="st0" cx="356.8" cy="1.5" r="1.4"/>
	<circle class="st0" cx="365" cy="1.5" r="1.4"/>
	<circle class="st0" cx="373.3" cy="1.5" r="1.4"/>
	<circle class="st0" cx="381.5" cy="1.5" r="1.4"/>
	<circle class="st0" cx="373.3" cy="1.5" r="1.4"/>
	<circle class="st0" cx="381.5" cy="1.5" r="1.4"/>
	<circle class="st0" cx="389.8" cy="1.5" r="1.4"/>
	<circle class="st0" cx="398" cy="1.5" r="1.4"/>
</g>
</svg>
