<?xml version="1.0" encoding="utf-8"?>
<!-- Generator: Adobe Illustrator 22.0.1, SVG Export Plug-In . SVG Version: 6.00 Build 0)  -->
<svg version="1.1" id="Capa_1" xmlns="http://www.w3.org/2000/svg" xmlns:xlink="http://www.w3.org/1999/xlink" x="0px" y="0px"
	 viewBox="0 0 588.6 2.9" style="enable-background:new 0 0 588.6 2.9;" xml:space="preserve">
<style type="text/css">
	.st0{fill:#211915;}
</style>
<g>
	<circle class="st0" cx="1.4" cy="1.4" r="1.4"/>
	<circle class="st0" cx="9.6" cy="1.4" r="1.4"/>
	<circle class="st0" cx="17.9" cy="1.4" r="1.4"/>
	<circle class="st0" cx="26.1" cy="1.4" r="1.4"/>
	<circle class="st0" cx="34.4" cy="1.4" r="1.4"/>
	<circle class="st0" cx="42.6" cy="1.4" r="1.4"/>
	<circle class="st0" cx="50.9" cy="1.4" r="1.4"/>
	<circle class="st0" cx="59.1" cy="1.4" r="1.4"/>
	<circle class="st0" cx="67.4" cy="1.4" r="1.4"/>
	<circle class="st0" cx="75.6" cy="1.4" r="1.4"/>
	<path class="st0" d="M85.3,1.4c0,0.8-0.6,1.4-1.4,1.4s-1.4-0.6-1.4-1.4S83.2,0,83.9,0S85.3,0.7,85.3,1.4z"/>
	<circle class="st0" cx="92.1" cy="1.4" r="1.4"/>
	<circle class="st0" cx="100.4" cy="1.4" r="1.4"/>
	<circle class="st0" cx="108.6" cy="1.4" r="1.4"/>
	<circle class="st0" cx="116.9" cy="1.4" r="1.4"/>
	<circle class="st0" cx="125.1" cy="1.4" r="1.4"/>
	<circle class="st0" cx="133.4" cy="1.4" r="1.4"/>
	<circle class="st0" cx="141.6" cy="1.4" r="1.4"/>
	<circle class="st0" cx="149.9" cy="1.4" r="1.4"/>
	<circle class="st0" cx="158.1" cy="1.4" r="1.4"/>
	<circle class="st0" cx="166.4" cy="1.4" r="1.4"/>
	<circle class="st0" cx="174.6" cy="1.4" r="1.4"/>
	<circle class="st0" cx="182.9" cy="1.4" r="1.4"/>
	<circle class="st0" cx="191.1" cy="1.4" r="1.4"/>
	<circle class="st0" cx="199.4" cy="1.4" r="1.4"/>
	<circle class="st0" cx="207.6" cy="1.4" r="1.4"/>
	<circle class="st0" cx="215.9" cy="1.4" r="1.4"/>
	<circle class="st0" cx="224.1" cy="1.4" r="1.4"/>
	<circle class="st0" cx="232.4" cy="1.4" r="1.4"/>
	<circle class="st0" cx="240.6" cy="1.4" r="1.4"/>
	<circle class="st0" cx="248.9" cy="1.4" r="1.4"/>
	<circle class="st0" cx="257.1" cy="1.4" r="1.4"/>
	<circle class="st0" cx="265.4" cy="1.4" r="1.4"/>
	<circle class="st0" cx="273.6" cy="1.4" r="1.4"/>
	<circle class="st0" cx="281.9" cy="1.4" r="1.4"/>
	<circle class="st0" cx="290.1" cy="1.4" r="1.4"/>
	<circle class="st0" cx="298.4" cy="1.4" r="1.4"/>
	<circle class="st0" cx="306.6" cy="1.4" r="1.4"/>
	<circle class="st0" cx="314.9" cy="1.4" r="1.4"/>
	<circle class="st0" cx="323.1" cy="1.4" r="1.4"/>
	<circle class="st0" cx="331.4" cy="1.4" r="1.4"/>
	<circle class="st0" cx="339.6" cy="1.4" r="1.4"/>
	<circle class="st0" cx="347.9" cy="1.4" r="1.4"/>
	<circle class="st0" cx="356.1" cy="1.4" r="1.4"/>
	<circle class="st0" cx="364.4" cy="1.4" r="1.4"/>
	<circle class="st0" cx="372.6" cy="1.4" r="1.4"/>
	<circle class="st0" cx="380.9" cy="1.4" r="1.4"/>
	<circle class="st0" cx="389.1" cy="1.4" r="1.4"/>
	<circle class="st0" cx="397.4" cy="1.4" r="1.4"/>
	<circle class="st0" cx="405.6" cy="1.4" r="1.4"/>
	<circle class="st0" cx="413.9" cy="1.4" r="1.4"/>
	<circle class="st0" cx="422.1" cy="1.4" r="1.4"/>
	<circle class="st0" cx="430.4" cy="1.4" r="1.4"/>
	<circle class="st0" cx="438.6" cy="1.4" r="1.4"/>
	<circle class="st0" cx="446.9" cy="1.4" r="1.4"/>
	<circle class="st0" cx="455.1" cy="1.4" r="1.4"/>
	<circle class="st0" cx="463.4" cy="1.4" r="1.4"/>
	<circle class="st0" cx="471.6" cy="1.4" r="1.4"/>
	<circle class="st0" cx="479.9" cy="1.4" r="1.4"/>
	<circle class="st0" cx="488.1" cy="1.4" r="1.4"/>
	<circle class="st0" cx="496.4" cy="1.4" r="1.4"/>
	<circle class="st0" cx="504.6" cy="1.4" r="1.4"/>
	<circle class="st0" cx="512.9" cy="1.4" r="1.4"/>
	<circle class="st0" cx="521.1" cy="1.4" r="1.4"/>
	<circle class="st0" cx="529.4" cy="1.4" r="1.4"/>
	<circle class="st0" cx="537.6" cy="1.4" r="1.4"/>
	<circle class="st0" cx="545.9" cy="1.4" r="1.4"/>
	<circle class="st0" cx="554.1" cy="1.4" r="1.4"/>
	<circle class="st0" cx="562.4" cy="1.4" r="1.4"/>
	<circle class="st0" cx="570.6" cy="1.4" r="1.4"/>
	<circle class="st0" cx="578.9" cy="1.4" r="1.4"/>
	<circle class="st0" cx="570.6" cy="1.4" r="1.4"/>
	<circle class="st0" cx="578.9" cy="1.4" r="1.4"/>
	<circle class="st0" cx="587.1" cy="1.4" r="1.4"/>
</g>
</svg>
