<?xml version="1.0" encoding="utf-8"?>
<!-- Generator: Adobe Illustrator 22.0.1, SVG Export Plug-In . SVG Version: 6.00 Build 0)  -->
<svg version="1.1" id="Capa_1" xmlns="http://www.w3.org/2000/svg" xmlns:xlink="http://www.w3.org/1999/xlink" x="0px" y="0px"
	 viewBox="0 0 2.9 390.6" style="enable-background:new 0 0 2.9 390.6;" xml:space="preserve">
<style type="text/css">
	.st0{fill:#211915;}
</style>
<g>
	<circle class="st0" cx="1.4" cy="1.5" r="1.4"/>
	<circle class="st0" cx="1.4" cy="9.7" r="1.4"/>
	<circle class="st0" cx="1.4" cy="18" r="1.4"/>
	<circle class="st0" cx="1.4" cy="26.2" r="1.4"/>
	<circle class="st0" cx="1.4" cy="34.5" r="1.4"/>
	<circle class="st0" cx="1.4" cy="42.7" r="1.4"/>
	<circle class="st0" cx="1.4" cy="51" r="1.4"/>
	<circle class="st0" cx="1.4" cy="59.2" r="1.4"/>
	<circle class="st0" cx="1.4" cy="67.5" r="1.4"/>
	<circle class="st0" cx="1.4" cy="75.7" r="1.4"/>
	<circle class="st0" cx="1.4" cy="84" r="1.4"/>
	<circle class="st0" cx="1.4" cy="92.2" r="1.4"/>
	<circle class="st0" cx="1.4" cy="100.5" r="1.4"/>
	<circle class="st0" cx="1.4" cy="108.7" r="1.4"/>
	<circle class="st0" cx="1.4" cy="117" r="1.4"/>
	<circle class="st0" cx="1.4" cy="125.2" r="1.4"/>
	<circle class="st0" cx="1.4" cy="133.5" r="1.4"/>
	<circle class="st0" cx="1.4" cy="141.7" r="1.4"/>
	<circle class="st0" cx="1.4" cy="150" r="1.4"/>
	<circle class="st0" cx="1.4" cy="158.2" r="1.4"/>
	<circle class="st0" cx="1.4" cy="166.5" r="1.4"/>
	<circle class="st0" cx="1.4" cy="174.7" r="1.4"/>
	<circle class="st0" cx="1.4" cy="183" r="1.4"/>
	<circle class="st0" cx="1.4" cy="191.2" r="1.4"/>
	<circle class="st0" cx="1.4" cy="199.5" r="1.4"/>
	<circle class="st0" cx="1.4" cy="207.7" r="1.4"/>
	<circle class="st0" cx="1.4" cy="216" r="1.4"/>
	<circle class="st0" cx="1.4" cy="224.2" r="1.4"/>
	<circle class="st0" cx="1.4" cy="232.5" r="1.4"/>
	<circle class="st0" cx="1.4" cy="240.7" r="1.4"/>
	<circle class="st0" cx="1.4" cy="249" r="1.4"/>
	<circle class="st0" cx="1.4" cy="257.2" r="1.4"/>
	<circle class="st0" cx="1.4" cy="265.5" r="1.4"/>
	<circle class="st0" cx="1.4" cy="273.7" r="1.4"/>
	<circle class="st0" cx="1.4" cy="282" r="1.4"/>
	<circle class="st0" cx="1.4" cy="290.2" r="1.4"/>
	<circle class="st0" cx="1.4" cy="298.5" r="1.4"/>
	<circle class="st0" cx="1.4" cy="306.7" r="1.4"/>
	<circle class="st0" cx="1.4" cy="315" r="1.4"/>
	<circle class="st0" cx="1.4" cy="323.2" r="1.4"/>
	<circle class="st0" cx="1.4" cy="331.5" r="1.4"/>
	<circle class="st0" cx="1.4" cy="339.7" r="1.4"/>
	<circle class="st0" cx="1.4" cy="348" r="1.4"/>
	<circle class="st0" cx="1.4" cy="356.2" r="1.4"/>
	<circle class="st0" cx="1.4" cy="364.5" r="1.4"/>
	<circle class="st0" cx="1.4" cy="372.7" r="1.4"/>
	<circle class="st0" cx="1.4" cy="364.5" r="1.4"/>
	<circle class="st0" cx="1.4" cy="372.7" r="1.4"/>
	<circle class="st0" cx="1.4" cy="381" r="1.4"/>
	<circle class="st0" cx="1.4" cy="389.2" r="1.4"/>
</g>
</svg>
