<?xml version="1.0" encoding="utf-8"?>
<!-- Generator: Adobe Illustrator 22.0.1, SVG Export Plug-In . SVG Version: 6.00 Build 0)  -->
<svg version="1.1" id="Capa_1" xmlns="http://www.w3.org/2000/svg" xmlns:xlink="http://www.w3.org/1999/xlink" x="0px" y="0px"
	 viewBox="0 0 164.2 179.2" style="enable-background:new 0 0 164.2 179.2;" xml:space="preserve">
<style type="text/css">
	.st0{fill:#FFFFFF;}
</style>
<g>
	<path class="st0" d="M93.2,13.9l0.4-0.9c0.6-1.2,1.9-1.6,3.1-1l25,13.5h12.4c1-0.3,2,0.2,2.4,1.2l9.5,24.1c0.4,1.1-0.1,2.3-1.1,2.7
		l-1.4,0.6c-1,0.4-2.2-0.1-2.6-1.1L135,37.8v2.5v15.4v30.7c0,1.8-1.4,3.2-3.1,3.2h-0.5c-1.7,0-3.1-1.4-3.1-3.2V55.8h-3.5v30.8
		c0,1.8-1.4,3.2-3.1,3.2h-0.6c-1.7,0-3.1-1.4-3.1-3.2V55.8V41.3V29.9L94.2,17.1C93.1,16.5,92.6,15,93.2,13.9z"/>
	<path class="st0" d="M135.3,15.9l-1.4-0.5c-0.9,3.8-4,6.6-7.7,6.6c-4.4,0-8-4-8-9c0-1.1,0.2-2.2,0.5-3.2l-1.5-0.6l0.8-2.4l1.9,0.7
		c1.5-2.1,3.8-3.5,6.4-3.5c4.4,0,7.9,3.9,8,8.8l1.9,0.7L135.3,15.9z"/>
</g>
<rect x="39.2" y="73.9" transform="matrix(0.7071 -0.7071 0.7071 0.7071 -79.8944 68.7007)" class="st0" width="7.6" height="113.7"/>
<rect x="39.2" y="73.9" transform="matrix(-0.7071 -0.7071 0.7071 -0.7071 -19.1089 253.6677)" class="st0" width="7.6" height="113.7"/>
<rect x="117.3" y="73.9" transform="matrix(0.7071 -0.7071 0.7071 0.7071 -57.0015 123.9692)" class="st0" width="7.6" height="113.7"/>
<rect x="117.3" y="73.9" transform="matrix(-0.7071 -0.7071 0.7071 -0.7071 114.3211 308.9362)" class="st0" width="7.6" height="113.7"/>
<rect x="39.2" y="-4.2" transform="matrix(0.7071 -0.7071 0.7071 0.7071 -24.6259 45.8078)" class="st0" width="7.6" height="113.7"/>
<rect x="39.2" y="-4.2" transform="matrix(-0.7071 -0.7071 0.7071 -0.7071 36.1596 120.2378)" class="st0" width="7.6" height="113.7"/>
<path class="st0" d="M3.9,0L3.9,0C1.8,0,0.1,1.7,0.1,3.8l0,171.7c0,2.1,1.7,3.8,3.8,3.8h0.1c2.1,0,3.8-1.7,3.8-3.8V3.8
	C7.7,1.7,6,0,3.9,0z"/>
<path class="st0" d="M82.1,0L82.1,0c-2.2,0-3.9,1.7-3.9,3.8v171.7c0,2.1,1.7,3.8,3.8,3.8h0.1c2.1,0,3.8-1.7,3.8-3.8V3.8
	C85.9,1.7,84.2,0,82.1,0z"/>
<path class="st0" d="M160.3,78.3L160.3,78.3c-2.2,0-3.9,1.7-3.9,3.8v93.3c0,2.1,1.7,3.8,3.8,3.8h0.1c2.1,0,3.8-1.7,3.8-3.8V82.1
	C164,80,162.3,78.3,160.3,78.3z"/>
<rect x="75.6" y="12.4" transform="matrix(6.123234e-17 -1 1 6.123234e-17 -12.3481 171.0734)" class="st0" width="7.6" height="158.5"/>
<rect x="38.4" y="-28.6" transform="matrix(6.123234e-17 -1 1 6.123234e-17 28.6566 55.7552)" class="st0" width="7.6" height="84.2"/>
<g id="Capa_2_1_">
</g>
<g id="Capa_2_2_">
</g>
</svg>
