<?xml version="1.0" encoding="utf-8"?>
<!-- Generator: Adobe Illustrator 22.0.1, SVG Export Plug-In . SVG Version: 6.00 Build 0)  -->
<svg version="1.1" xmlns="http://www.w3.org/2000/svg" xmlns:xlink="http://www.w3.org/1999/xlink" x="0px" y="0px"
	 viewBox="0 0 183.5 179.2" style="enable-background:new 0 0 183.5 179.2;" xml:space="preserve">
<style type="text/css">
	.st0{fill:#FFFFFF;}
</style>
<g id="Capa_1">
	<path class="st0" d="M61.4,77.5L61.4,77.5c-2.1,0-3.8-1.7-3.8-3.8v-6.3c0-2.1,1.7-3.8,3.8-3.8h0c2.1,0,3.8,1.7,3.8,3.8v6.3
		C65.2,75.8,63.5,77.5,61.4,77.5z"/>
	<path class="st0" d="M50.8,77.5L50.8,77.5c-2.1,0-3.8-1.7-3.8-3.8v-6.3c0-2.1,1.7-3.8,3.8-3.8h0c2.1,0,3.8,1.7,3.8,3.8v6.3
		C54.6,75.8,52.9,77.5,50.8,77.5z"/>
	<path class="st0" d="M174.1,142.5c-0.7-7.2-3.6-9.9-13.1-9.9c-2.9,0-5.7,0-8.6,0c-0.5-1.9-0.8-3.2-1.1-4.5
		c-5-26.6-10.1-53.1-15-79.7C131.2,20,112.3,1.8,86,0.3C74.9-0.3,68.9,4.9,67.5,16c-0.1,1-0.7,2.6-1.5,2.9
		c-10,3.9-13.2,11.5-12.6,21.5c0.1,1.4-1.2,3.4-2.4,4.2c-13.4,8.6-19.9,20.6-19.7,36.5c0.2,13.2,0.1,26.3,0,39.5
		c0,1.4-0.2,3.4-1.1,4.1c-3.1,2.3-6.6,4.1-10.4,6.3c0-2.1,0-3.8,0-5.4c0-32.7,0-65.5-0.1-98.2c0-2-0.5-4.4-1.7-5.8
		c-3.5-4.2-7.6-8-11.4-11.9C4.8,7.7,2.4,6.8,0.8,9.2c-0.8,1.2-0.5,4.2,0.5,5.4c2.3,3,5.1,5.7,8,8.2c2.4,2.1,3.3,4.4,3.2,7.6
		c-0.2,14.8-0.1,29.7-0.1,44.5c0,25.1-0.1,50.2,0,75.3c0.1,13.3,7.9,24,20,27.7c12.1,3.7,24-0.7,31.8-11.4c0.9-1.3,3.1-2.4,4.7-2.4
		c7.9-0.2,15.9,0,23.9-0.1c11.2-0.2,18.6-7.7,18.7-18.9c0.1-22,0.1-44.1,0-66.1c-0.1-14-6.1-25.2-17.8-32.8
		c-3.5-2.3-4.6-4.5-4.4-8.4c0.4-8.3-3-14.8-10.9-17.9c-3.7-1.5-3.7-3.6-2.8-6.4c1.2-4.1,4.3-5.5,8.4-5.5c20.3,0,38.8,14.5,43,34.7
		c4.6,22.6,8.7,45.3,12.9,68c1.3,7,2.6,14,4,21.4c-9.5,0.4-20.2-2-20.4,12.2c-7.2,2.8-9.9,6.7-8.7,12.3c1.1,5.4,4.8,7.9,12.2,7.9
		c14.1,0,28.2-0.3,42.2,0.1c6.9,0.2,11.5-1.9,13.8-8.5c0-1.2,0-2.4,0-3.7C180.5,149.3,177.8,146.5,174.1,142.5z M40.5,171.5
		c-11.5,0-20.8-9.2-20.7-20.7c0-11.2,9.1-20.5,20.4-20.6c11.4-0.2,20.8,9.1,20.9,20.5C61.2,162.3,52.1,171.5,40.5,171.5z
		 M103.5,144.3c0,8.1-3.7,11.8-11.7,11.9c-7.6,0.1-15.2,0-22.7,0c-2.8-24.3-8.6-30.8-30.1-34.1c0-3.2,0-6.5,0-9.8
		c0-3.3,0-6.6,0-10.2c21.6,0,42.8,0,64.6,0c0,2.4,0,4.7,0,6.9C103.5,120.8,103.6,132.6,103.5,144.3z M103.4,77.2
		c0.2,5.6,0,11.2,0,17.2c-21.8,0-42.9,0-64.9,0c0.5-8.1,0.1-16.2,1.7-23.8C43.4,55.7,58.8,45.4,73.6,47
		C90.2,48.8,102.8,61.4,103.4,77.2z M77.3,27.8c4.2,3,5.1,7.2,4.3,11.7c-6.8,0-13.3,0-20.3,0c-0.8-4.8,0.2-9.2,4.8-12.1
		C69.9,25.1,73.8,25.2,77.3,27.8z M131.6,142.2c0-1.3,1-2.3,2.3-2.3h6.6c5.8-0.1,11.5-0.1,17.3,0h6.7c1.3,0,2.3,1,2.3,2.3v0
		c0,1.3-1,2.3-2.3,2.3h-4.6c-3.6,0.1-7.3,0-10.9,0c-3.5,0-7.1,0.1-10.6,0h-4.5C132.6,144.5,131.6,143.4,131.6,142.2L131.6,142.2z
		 M172.8,157.5h-12.1c-7.8,0-15.7,0-23.5,0h-12.3c-1.3,0-2.3-1-2.3-2.3v0c0,0,0,0,0,0c0,0,0,0,0,0c0,0,0,0,0,0c0-1.2,1-2.3,2.3-2.3
		h6.9c5.8-0.1,11.7,0,17.5,0c5.6,0,11.3-0.1,16.9,0h6.6c1.3,0,2.3,1,2.3,2.3v0c0,0,0,0,0,0c0,0,0,0,0,0c0,0,0,0,0,0
		C175,156.5,174,157.5,172.8,157.5z"/>
</g>
<g id="Capa_2">
</g>
</svg>
