<?xml version="1.0" encoding="utf-8"?>
<!-- Generator: Adobe Illustrator 22.0.1, SVG Export Plug-In . SVG Version: 6.00 Build 0)  -->
<svg version="1.1" xmlns="http://www.w3.org/2000/svg" xmlns:xlink="http://www.w3.org/1999/xlink" x="0px" y="0px"
	 viewBox="0 0 254.2 181.1" style="enable-background:new 0 0 254.2 181.1;" xml:space="preserve">
<style type="text/css">
	.st0{fill:#FFFFFF;}
</style>
<g id="Capa_1">
	<g>
		<path class="st0" d="M188.4,136.7c-11.5,0-21.9,0-32.6,0c0,6.7,0,12.9,0,19.9c7.7,0,15.5,0,23.8,0c0,8.6,0,16.5,0,24.7
			c-59.9,0-119.5,0-179.6,0c0-8,0-15.7,0-24.1c7.7,0,15.5,0,24.3,0c0-9.9,0.7-19.3-0.2-28.5c-1.2-11.8,3.6-18.5,14.6-22.1
			c6.4-2.1,12.5-5.2,18.5-8.3c1.6-0.8,3.7-2.9,3.7-4.4c0.3-10.2,0.2-20.5,0.2-31.5c-11.6,0-22.7,0-33.7,0
			c-11.3,0-15.4-4.1-15.5-15.4c-0.1-10.5-0.1-21,0-31.5C12.1,5.6,16.5,1,26.4,1C96.6,1,166.7,1,236.9,1c1.3,0,2.5,0.2,4,0.4
			c0.4,2.5,0.7,4.9,1.1,7.5c3.8,0.3,7.5,0.5,11.4,0.8c0,2.5,0,4.8,0,7.8c-3.8,0-7.4,0-11.5,0c0,2.9,0,5.2,0,8c3.7,0,7.3,0,11.4,0
			c0,2.8,0,5.1,0,8c-3.6,0.2-7.2,0.4-11.4,0.6c1.2,7.5-4.2,8.2-9.3,9.5c-22.2,5.7-44.2,12.1-66.5,17.3c-8.1,1.9-16.9,1.3-25.4,1.7
			c-4.3,0.2-8.7,0-13.6,0c0,10.9,0,21.4,0,32.7c8.7-0.2,18.6-0.5,23.2,8c3.9,7.1,4.7,15.8,7.2,24.9c3.5,0,8.7,0,13.8,0
			c5.2,0,10.5,0,16.7,0c0-2.8-0.1-5.4,0-7.9c0.3-7.3,4.5-12.2,11.7-12.4c14-0.3,28-0.3,42,0c6.9,0.2,11.7,4.9,11.7,11.7
			c0.3,20.3,0.1,40.6,0.1,61.5c-21.8,0-43.3,0-65.4,0C188.4,166.4,188.4,151.8,188.4,136.7z M69.3,95c16.8,0,32.7,0,49.4,0
			c0-13.5,0-26.7,0-40.5c6.4,0,12,0,17.7,0c7.9-0.1,16,1.2,23.5-0.5c23.4-5.4,46.5-11.9,69.7-18.2c1.4-0.4,3.4-2.4,3.5-3.7
			c0.3-7.4,0.2-14.7,0.2-22.8c-3.1,0-5.5,0-7.8,0c-65.2,0-130.3,0-195.5,0c-1.5,0-3.5-0.6-4.5,0.2c-2,1.4-4.9,3.4-4.9,5.2
			c-0.5,11.4-0.2,22.7-0.3,34.1c0,3.8,1.7,5.7,5.5,5.6c2.8,0,5.7,0,8.5,0c11.5,0,23,0,35,0C69.3,68.4,69.3,81.4,69.3,95z
			 M32.3,156.5c38.6,0,76.5,0,115,0c0-12.6,0-24.8,0-37c0-11.6-4.3-15.9-15.8-15.9c-20.1-0.1-40.2,0-60.3,0c-2.4,0-4.9,0.1-7,1
			c-9.3,3.9-18.5,7.8-27.5,12.3c-2,1-4.1,4.1-4.2,6.3C32.1,134.1,32.3,145,32.3,156.5z M196.7,173.3c15.4,0,30.4,0.1,45.4-0.1
			c1.2,0,3.3-1.8,3.4-2.8c0.3-8.4,0.2-16.8,0.2-25.3c-16.9,0-32.7,0-48.9,0C196.7,154.5,196.7,163.5,196.7,173.3z M8.1,172.8
			c54.5,0,108.7,0,163.2,0c0-2.7,0-4.9,0-7.3c-54.6,0-108.8,0-163.2,0C8.1,168.2,8.1,170.3,8.1,172.8z M245.6,135.9
			c0-5.4,0.4-10.2-0.2-14.9c-0.3-1.8-3-4.7-4.6-4.8c-13.1-0.4-26.2-0.4-39.3,0c-1.7,0.1-4.6,2.7-4.9,4.5c-0.7,4.9-0.2,9.9-0.2,15.2
			C212.9,135.9,228.8,135.9,245.6,135.9z"/>
		<path class="st0" d="M85.4,136.3c-3.1-0.1-5.2-0.2-7.6-0.4c0-8.1,0-15.7,0-23.6c2.6,0,4.9,0,7.6,0C85.4,120.2,85.4,128,85.4,136.3
			z"/>
		<path class="st0" d="M111,112.2c2.4,0,4.5,0,7.2,0c0,7.9,0,15.6,0,23.7c-2.3,0-4.4,0-7.2,0C111,128.3,111,120.6,111,112.2z"/>
		<path class="st0" d="M68.9,112.2c0,8.1,0,15.7,0,23.7c-2.5,0-4.8,0-7.4,0c0-7.9,0-15.6,0-23.7C63.9,112.2,66.1,112.2,68.9,112.2z"
			/>
		<path class="st0" d="M101.6,136c-2.4,0-4.6,0-7.2,0c0-7.7,0-15.4,0-23.6c2.2,0,4.5,0,7.2,0C101.6,120.2,101.6,127.9,101.6,136z"/>
		<path class="st0" d="M127.2,112.2c2.6,0,4.7,0,7.2,0c0,8,0,15.7,0,23.8c-2.5,0-4.6,0-7.2,0C127.2,128.3,127.2,120.5,127.2,112.2z"
			/>
	</g>
</g>
<g id="Capa_2">
</g>
</svg>
