<?xml version="1.0" encoding="utf-8"?>
<!-- Generator: Adobe Illustrator 22.0.1, SVG Export Plug-In . SVG Version: 6.00 Build 0)  -->
<svg version="1.1" xmlns="http://www.w3.org/2000/svg" xmlns:xlink="http://www.w3.org/1999/xlink" x="0px" y="0px"
	 viewBox="0 0 168 179.8" style="enable-background:new 0 0 168 179.8;" xml:space="preserve">
<style type="text/css">
	.st0{fill:#FFFFFF;}
</style>
<g id="Capa_1">
	<g>
		<path class="st0" d="M156.9,87.7c-4.9-0.1-10.4,0.4-14.6-1.6c-14.1-6.8-27.7-14.5-41.5-21.9c-0.9-0.5-1.7-1.2-2.8-2
			c4.3-4.1,7-8.7,7.5-14.1c-0.1-0.8-0.3-1.7-0.5-2.5c-0.1-0.3-0.3-0.5-0.4-0.8c-0.1-0.2-0.3-0.4-0.4-0.6c-0.4-0.4-0.8-0.7-1.3-1.1
			c-0.3,0-0.5-0.1-0.8-0.1c-0.5,0-0.9,0.1-1.4,0c-0.1,0-0.2,0-0.3,0c-0.1,0-0.1,0.1-0.1,0.1c-0.1,0.1-0.1,0.1-0.2,0.1
			c-0.1,0.1-0.2,0.1-0.3,0.2c-0.3,0.3-0.6,0.5-1,0.7c-0.4,0.4-0.7,0.9-1,1.4c-1,1.8-0.8,4.2-1.7,6.2c-2.4,5.5-4.9,6.4-10.7,4.7
			c-1.3-0.4-3.2-0.3-4.2,0.4c-3.9,2.6-6.2,0.5-8.4-2.3c-5.4-6.8-4.2-17.5,3.5-21.3c8.8-4.3,12.6-10.3,11.4-19.8
			c0-0.4,0.4-0.8,0.7-1.6h14.9V0.2H64.1v11.7h15.7c-0.4,4.7,1.7,9.2-3.9,12.2c-16.3,8.8-18.7,23.8-6.2,38.6
			c-10.9,5.8-21.8,11-31.9,17.2C28,85.9,18.1,89,6.6,87.9c-6.1-0.6-6.8,0.6-6.8,6.9c0,26,0,52,0,78c0,6.4,0.6,7,7.3,7
			c51.2,0,102.3,0,153.5,0c6.5,0,7.2-0.7,7.2-7.1c0-24.7,0-49.3,0-74C167.8,87.8,167.8,87.9,156.9,87.7z M19.6,171.5H8.2V96h11.4
			V171.5z M39.5,171.6H28.1V96.1h11.3V171.6z M59.7,171.4H48.2V96.2h11.6V171.4z M79.6,171.4H68.2V96h11.4V171.4z M99.6,171.4H88.1
			V96.1h11.5V171.4z M119.6,171.5h-11.4V96h11.4V171.5z M40.7,87.3C53.5,80.5,64.9,73.7,77,68.3c3.9-1.8,10-1.7,13.9,0.1
			c11.9,5.4,23.3,12.1,36.1,18.9H40.7z M139.6,171.5h-11.4V96h11.4V171.5z M159.6,171.4H148V96.1h11.6V171.4z"/>
	</g>
</g>
<g id="Capa_2">
</g>
</svg>
