<?xml version="1.0" encoding="utf-8"?>
<!-- Generator: Adobe Illustrator 22.0.1, SVG Export Plug-In . SVG Version: 6.00 Build 0)  -->
<svg version="1.1" xmlns="http://www.w3.org/2000/svg" xmlns:xlink="http://www.w3.org/1999/xlink" x="0px" y="0px"
	 viewBox="0 0 146.7 179.6" style="enable-background:new 0 0 146.7 179.6;" xml:space="preserve">
<style type="text/css">
	.st0{fill:#FFFFFF;}
</style>
<g id="Capa_1">
	<g>
		<path class="st0" d="M0.6,177.5c1,1.2,2,1.8,3.1,1.8c0,0,0,0,0,0c1.4,0,3-1,4.7-3c8-9.6,16-19.2,24-28.9L46,131
			c0.8-1,1.6-1.9,2.7-3.2l4.5-5.2l0,22.8c0,2.3,0,4.6,0,6.8c0,2.2,0.4,3.7,1.3,4.6c0.7,0.7,1.6,1,3,1c1.9,0,3.9-0.7,3.8-5.4
			c-0.1-4.7,0-9.5,0-14.1c0-1.9,0-3.8,0-5.7v-9.8l2.3,2.5c0.7,0.8,1.3,1.4,1.8,2c1,1.1,1.7,1.9,2.4,2.7c3.3,3.9,6.5,7.9,9.8,11.8
			c9.3,11.2,19,22.8,28.6,34.1c1.4,1.6,4.3,2.9,5.9,2.7c1.1-0.2,1.8-0.7,2.2-1.6c0.6-1.5-0.1-3.7-1.6-5.6c-6.6-8-13.4-16.2-20-24
			c-2.9-3.5-5.8-7-8.8-10.5l-4.4-5.3c-5.2-6.2-10.5-12.6-15.7-19c-0.9-1.1-2.4-3.3-2.4-5.4c-0.1-12.6-0.1-25-0.1-37.1l0-10.4
			l0.9-0.3c1.4-0.5,2.8-0.9,4-1.3c2.5-0.8,4.5-1.4,6.3-2.4c1.4-0.7,2.5-0.9,3.6-0.6c1.4,0.5,2.1,1.8,2.6,3l0.2,0.5
			c3.5,7.2,7.1,14.5,10.6,21.7c2.3,4.8,4.6,9.5,7,14.3c3.1,6.4,3.8,6.6,10.4,4c1.8-0.7,3.7-1.5,5.5-2.2c4.2-1.7,8.5-3.5,12.9-5.1
			c3.1-1.1,4.8-3,5.6-6.2c2-7.7,4.1-15.4,6.2-23.1c3.1-11.5,6.3-23.4,9.3-35.2c0.5-1.8-0.1-4.6-1.2-6.2c-3-4.3-6.3-8.4-9.5-12.4
			c-1.5-1.9-3-3.8-4.5-5.7c-2.7-3.4-5.1-3.7-8.8-1.2c-12.2,8.5-23.2,16-33.7,22.8c-2.1,1.3-5.3,1.9-7.7,1.3
			c-7.5-1.8-15-3.8-22.4-5.8c-3.6-1-7.1-1.9-10.7-2.9c-5.1-1.4-6.5-0.6-7.9,4.3l-0.6,2c-1.4,4.9-2.8,9.9-3.9,14.9
			c-0.3,1.4,0,3.9,0.3,4.8c3.4,0.9,5.5,3.4,7.5,5.8c2.4,2.9,4.5,5.4,8.7,5.2l1.4-0.1v1.4c0,3.5-0.1,6.9-0.2,10.3
			c-0.2,7.7-0.4,15,0.4,22.3c1.5,14.9-2.7,26.7-13.7,38.2c-9.3,9.8-18,20.5-26.4,30.9c-3.6,4.5-7.3,9.1-11.1,13.6L2,170.9
			C-0.3,173.6-1.3,175.2,0.6,177.5z M107.4,88.9l19.7-73.4l0.6-2.2l1.6,1.6c8.8,9,8.9,9.6,6.1,20.2c-1.1,4.1-2.2,8.2-3.4,12.1
			c-2.5,9-5.2,18.2-6.9,27.5c-1.9,9.8-8.5,11.6-15.6,13.5L107.4,88.9z M87.3,40.1c0.3-0.6,0.5-1.3,0.8-2.1c0.7-2,1.4-4.1,3-5.3
			c5.7-4.3,11.6-8.3,17.9-12.5c2.4-1.6,4.9-3.3,7.5-5.1l2.9-2l-19.1,71.6l-1.5-3.1c-1.2-2.4-2.2-4.6-3.2-6.8
			c-2.1-4.6-4-8.6-6.3-12.4C84.6,54.9,84,47.6,87.3,40.1z M43.5,37.9l3.7-12.7l33.4,9.1l-3.7,12.9L43.5,37.9z"/>
	</g>
</g>
<g id="Capa_2">
</g>
</svg>
