<?xml version="1.0" encoding="utf-8"?>
<!-- Generator: Adobe Illustrator 22.0.1, SVG Export Plug-In . SVG Version: 6.00 Build 0)  -->
<svg version="1.1" xmlns="http://www.w3.org/2000/svg" xmlns:xlink="http://www.w3.org/1999/xlink" x="0px" y="0px"
	 viewBox="0 0 203.9 181.5" style="enable-background:new 0 0 203.9 181.5;" xml:space="preserve">
<style type="text/css">
	.st0{fill:#FFFFFF;}
</style>
<g id="Capa_1">
	<g>
		<path class="st0" d="M133.9,155.5c-1.3-6.5-6.6-10.4-12.8-9.7c-3.7,0.5-5.3-0.9-6.8-3.5c-2.5-4.3-5.2-8.4-8-12.8
			c-1.2-1.8-2.4-3.7-3.6-5.6l-0.6-0.9l11.5-3.6l-9-28.8l8.5-2.7l16.4-5.1C141.8,79,144,75.1,141.2,62l-0.2-0.8l0.8-0.1
			c13.7-2.2,20-9.9,19.1-23.4l0-0.6l0.6-0.2c0.7-0.2,1.4-0.4,2.1-0.6c1.9-0.6,3.9-1.2,5.9-1.9c0.9-0.3,1.8-0.8,2.1-1
			c-0.4-4.8,3.1-5.5,5.6-6c0.7-0.1,1.4-0.3,2-0.5c5.8-2,11.5-3.7,17.5-5.6c2.1-0.7,4.3-1.3,6.4-2l-2-6.5l-18.8,5.9
			c-2.7,0.9-5.5,1.7-8.2,2.6c-0.2,0.1-0.5,0.2-0.8,0.3c-1.4,0.5-2.6,0.9-3.2,0.2c-2.7-3.2-5.4-2.2-8.5-1.1c-1.9,0.7-3.8,1.4-5.8,1.2
			l-0.6-0.1l-0.1-0.6c-1-6.4-6.6-8.3-12.2-9.8c-3.3-0.9-7.1-0.4-11.1,0.2c-1.9,0.3-3.8,0.5-5.8,0.6l-0.6,0l-0.4-1
			c-0.3-0.7-0.7-1.8-1.2-2.9c-2.7-6.1-8.5-9-14.5-7.1C83.1,9.2,52.6,18.6,22.8,28.3c-3,1-5.9,4.3-7,7c-1.5,3.5-3.4,5.2-7,6.3
			c-4.8,1.4-7.2,2.8-8.2,4.7c-1,1.9-0.8,4.6,0.7,9.4c4,12.8,8,25.5,12,38.2c2.7,8.7,5.2,10,13.8,7.4l0.1,0c1.4-0.4,3.1-0.9,4.3,0.3
			c1.2,0.7,2.3,1.3,3.5,2c3.1,1.7,6.2,3.5,9.3,5.4c1.2,0.8,2.4,2.1,3.4,3.9c9,15.9,17.9,31.8,26.9,47.8l9.6,17.1
			c0.5,0.8,1,1.7,1.6,2.6c0.2,0.4,0.4,0.7,0.7,1.1c3.8-1.2,7.6-2.4,11.3-3.5c9.7-3,18.9-5.9,28.2-8.9
			C131.8,167.1,135.1,161.4,133.9,155.5z M30.3,92.7l-8.9,2.8L7,49.6l8.9-2.8L30.3,92.7z M128.3,20.5l0.7-0.3c0.4-0.1,0.7-0.3,1-0.4
			c0.5-0.2,1-0.4,1.4-0.6c4.4-2.2,8.7-2.4,12.1-0.6c3.3,1.7,5.4,5.1,6.2,9.8c0.4,2.5,1.3,5.1,2.2,7.6c0.5,1.3,1,2.7,1.4,4
			c1.3,4.1-1.7,10.3-5.7,11.8c-0.9,0.4-1.9,0.7-2.9,1c-0.8,0.2-1.5,0.5-2.3,0.7c-0.8,0.3-1.7,0.5-2.6,0.8l-0.8,0.2L128.3,20.5z
			 M48.8,100.6c-2.8,0.9-4.7,0.9-6.3,0.1c-1.6-0.8-2.6-2.5-3.5-5.4C35.4,83.5,31.7,71.5,28,60c-1.6-5.2-3.3-10.5-4.9-15.7
			c-2.3-7.3-1.7-8.3,5.4-10.6c9.2-2.9,18.5-5.8,27.7-8.7l11.5-3.6l11.7-3.7c9.5-3,19.1-6,28.6-8.9c3.6-1.1,5.4-1.5,6.9-0.7
			c1.6,0.9,2.4,3,3.5,6.4c5.1,16.4,10.4,33.3,15.8,50.4c1.1,3.4,1.7,5.5,0.8,7.2c-0.8,1.5-2.6,2.3-6.1,3.4c0,0,0,0-0.1,0
			c-8.1,2.5-16.1,5-24.2,7.5C86.3,88.8,67.4,94.6,48.8,100.6z M96.7,114.2c-2.8-3.8-5.2-7.7-7.8-11.9c-0.9-1.5-1.8-3-2.8-4.5
			l-0.5-0.9L98,93l7.1,22.8l-1.2-0.2c-0.9-0.1-1.9-0.2-2.8-0.2C99.2,115.3,97.5,115.2,96.7,114.2z M127.1,156l-0.4,0.7
			c-0.3,0.5-0.5,1.2-0.8,1.8c-0.6,1.6-1.2,3.2-2.5,3.7c-5.9,2-11.8,3.9-17.8,5.8c-2.6,0.8-5.2,1.6-7.7,2.4c-2.6,0.8-5.2,1.6-7.9,2.4
			l-0.6,0.2l-36.9-65.9l26-8.1l0.3,0.5c2.9,4.5,5.7,9,8.6,13.5c7.3,11.5,14.9,23.3,22.1,35l0.2,0.3c2.8,4.6,4.8,7.8,10.7,4.9
			c1.1-0.6,2.6,0.4,4.2,1.4c0.6,0.4,1.2,0.8,1.7,1L127.1,156z"/>
	</g>
	<path class="st0" d="M88.5,33.8l-0.1-0.5c-0.6-2,0.5-4.1,2.5-4.7l12.4-3.8c2-0.6,4.1,0.5,4.7,2.5l0.1,0.5c0.6,2-0.5,4.1-2.5,4.7
		l-12.4,3.8C91.2,36.9,89.1,35.8,88.5,33.8z"/>
	<path class="st0" d="M93.7,50.1l-0.1-0.5c-0.6-2,0.5-4.1,2.5-4.7l12.4-3.8c2-0.6,4.1,0.5,4.7,2.5l0.1,0.5c0.6,2-0.5,4.1-2.5,4.7
		l-12.4,3.8C96.4,53.2,94.3,52.1,93.7,50.1z"/>
	<path class="st0" d="M99,66.5l-0.1-0.5c-0.6-2,0.5-4.1,2.5-4.7l12.4-3.8c2-0.6,4.1,0.5,4.7,2.5l0.1,0.5c0.6,2-0.5,4.1-2.5,4.7
		L103.7,69C101.7,69.6,99.6,68.5,99,66.5z"/>
</g>
<g id="Capa_2">
</g>
</svg>
