<?xml version="1.0" encoding="utf-8"?>
<!-- Generator: Adobe Illustrator 22.0.1, SVG Export Plug-In . SVG Version: 6.00 Build 0)  -->
<svg version="1.1" xmlns="http://www.w3.org/2000/svg" xmlns:xlink="http://www.w3.org/1999/xlink" x="0px" y="0px"
	 viewBox="0 0 165.8 181" style="enable-background:new 0 0 165.8 181;" xml:space="preserve">
<style type="text/css">
	.st0{fill:#FFFFFF;}
</style>
<g id="Capa_1">
	<g>
		<path class="st0" d="M21.8,181.1c-2.2-2.4-4.8-4.5-6.6-7.1c-4.4-6.5-8.4-13.2-12.5-19.9c-3.3-5.4-3-9,1.3-13.4
			c2.3-2.4,4.7-4.4,3.9-8.4c-0.3-1.4,0.8-3.2,1.4-4.7c2.4-6,4.9-12,7.4-17.9c3-7.1,4.9-15,13-19.9c-7-6.8-13.4-13.1-19.9-19.4
			c-2.8-2.7-4-6.3-2.3-9.5c1.4-2.6,4.4-5.4,7.1-5.9c2.7-0.4,6.5,1.3,8.7,3.3c6.4,5.7,12.2,12,18.2,18c8.4-5.9,10.1-5.9,18.2,0.2
			c1.1-1.3,2.3-2.6,2.6-3c-0.3-3.2-0.6-5.4-0.8-7.7c2.1,0.2,4.2,0.4,6.3,0.6c0.2,0.5,0.3,1,0.5,1.5c1-1.4,2-2.9,3.1-4.3
			c-0.3,0.1-0.6,0.2-0.9,0.3c0-2.3,0-4.6,0-7c2,0.3,4,0.6,6,1c0.2,0.5,0.3,1,0.5,1.5c1.2-1.5,2.4-2.9,2.8-3.5
			c-0.4-2.9-0.7-5.1-1-7.2c2.2,0.1,4.4,0.2,6.6,0.3c0.1,0.5,0.2,1,0.3,1.5c1.2-1.3,2.4-2.6,3.7-3.8c-0.4-0.1-0.9-0.1-1.3-0.2
			c-0.1-2.2-0.3-4.5-0.4-6.7c2.1,0.3,4.2,0.6,6.3,0.8c0.1,0.4,0.2,0.9,0.3,1.3c1.1-1.3,2.3-2.7,2.7-3.2c-0.3-3.1-0.6-5.3-0.8-7.5
			c2.1,0.2,4.2,0.4,6.3,0.5c0.1,0.4,0.1,0.8,0.2,1.3c1.3-1.2,2.5-2.4,3-2.8c-0.3-3.1-0.5-5.5-0.7-7.8c2.1,0.3,4.2,0.6,6.3,1
			c0.1,0.4,0.2,0.8,0.3,1.2c1.2-1.3,2.4-2.6,3.6-3.9c-0.4,0-0.7,0-1.1-0.1c-0.2-2.2-0.4-4.5-0.6-6.7c2.1,0.2,4.2,0.5,6.3,0.7
			c0.1,0.4,0.1,0.8,0.2,1.2c1.3-1.2,2.6-2.4,3.9-3.6c-0.2-0.5-0.4-0.9-0.5-1.3c-0.5-1.8-1.9-4.4-1.2-5.3c1.9-2.5,3.7-0.2,5.6,1
			c1.9,1.1,4.3,1.2,6.4,1.7c0.5-1.4,0.7-1.7,0.7-1.9c-0.4-2.3-2-5.1,1.4-6.1c3.4-1,3.4,2.4,4.6,4.3c1.1,1.8,2.6,3.4,4.5,5.7
			c1-2.1,1.2-3.3,2-3.8c1-0.8,2.4-1.2,3.6-1.8c0.6,1.4,1.4,2.7,1.7,4.1c0.2,0.6-0.5,1.4-0.6,2.1c-0.5,2.7,0,4.3,3.2,3.1
			c0.7-0.3,1.5-0.8,2.1-0.6c1.4,0.4,2.7,1.2,4,1.8c-0.6,1.2-1,2.6-1.9,3.7c-0.5,0.6-1.6,0.7-3.6,1.6c1.8,1.8,3,3.5,4.7,4.6
			c2.1,1.3,6.2,1.1,4.7,4.9c-0.5,1.3-4,1.5-7.2,2.5c-1,1.8-1.1,4.5,1.9,7c0.9,0.7,0.4,3,0.5,4.6c-1.5-0.1-3-0.1-4.4-0.4
			c-0.6-0.1-1.1-0.9-1.8-1.5c-1.4,1.4-2.7,2.7-4.1,4c0.4,0,0.7,0,1.1,0c0.2,2.2,0.3,4.4,0.5,6.6c-2.1-0.3-4.2-0.6-6.3-0.8
			c-0.1-0.4-0.3-0.9-0.4-1.3c-1,1.5-2.1,2.9-2.6,3.7c0.3,2.6,0.5,4.9,0.7,7.1c-2.1-0.2-4.2-0.4-6.3-0.6c-0.2-0.5-0.3-1-0.5-1.6
			c-1,1.5-2,2.9-2.7,4c0.3,2.2,0.7,4.4,1,6.6c-2.2-0.1-4.5-0.3-6.7-0.4c0-0.4-0.1-0.8-0.1-1.1c-1.2,1.1-2.4,2.3-2.8,2.7
			c0.2,3.2,0.4,5.5,0.6,7.9c-2.1-0.3-4.2-0.6-6.3-1c-0.1-0.4-0.2-0.8-0.2-1.2c-1.2,1.3-2.4,2.6-3.6,3.9c0.4,0,0.8,0.1,1.1,0.1
			c0.2,2.2,0.4,4.4,0.6,6.7c-2.1-0.2-4.2-0.5-6.4-0.7c-0.1-0.5-0.3-0.9-0.4-1.4c-1.1,1.4-2.2,2.7-2.5,3c0.2,3.2,0.4,5.4,0.6,7.7
			c-2.1-0.3-4.2-0.5-6.3-0.8c-0.1-0.5-0.3-1-0.4-1.4c-1.1,1.4-2.2,2.8-2.8,3.4c0.4,2.8,0.6,5.1,0.9,7.3c-2.2-0.2-4.5-0.4-6.7-0.6
			c-0.1-0.4-0.2-0.8-0.2-1.2c-1,1.3-2.1,2.6-3.1,3.9c3.3,8.2,3,9.7-3.4,16.1c-18,18-36.1,36-54.2,53.9c-1.7,1.7-3.7,3-5.6,4.5
			C25.4,181.1,23.6,181.1,21.8,181.1z M39.2,160.1c11-10.9,21.7-21.4,32.4-31.9c-11.1-13.7-11.1-14.8,1.1-31.1
			c-6-5.5-12.4-11.1-18.4-16.9c-3.2-3-5.4-2.6-8.2,1.8c3,2.6,6.4,5.2,9.2,8.3c3.3,3.6,3.1,8.1,1.4,12.3c-1.5,3.5-4.5,5.3-8.3,5.2
			c-4.4-0.1-6.9-2.7-8.8-6.6c-1.3-2.7-3.9-4.8-6.3-7.5c-2.5,3.1-5.3,5.3-6.6,8.1c-4.4,9.7-8.3,19.7-12.2,29.7
			c-0.5,1.3-0.2,3.7,0.8,4.7C23.2,144.3,31.4,152.3,39.2,160.1z M67.9,85.5c20.5-20.5,40.4-40.4,60.3-60.4c1.2-1.2,2.2-2.9,3.6-3.3
			c3-0.7,6.8-1.9,9.2-0.7c2.4,1.2,4.8,4.9,5,7.6c0.2,2.6-1.9,6-3.9,8.1c-19,19.3-38.3,38.5-57.5,57.6c-1.2,1.1-2.9,1.7-4.3,2.6
			c0.6,0.2,1.2,0.4,1.8,0.6c1,1.6,2,3.3,3.2,5.1C106.5,81.6,127,61,147.5,40.4c6.7-6.8,6.9-15.8,0.6-22.1
			c-6.4-6.5-15.6-6.2-22.5,0.7C108,36.6,90.3,54.3,72.6,72c-2.9,2.9-5.8,5.9-8.4,8.6C65.6,82.5,66.7,83.9,67.9,85.5z M72.5,89.3
			c1.4,1.6,2.7,3,3.8,4.2c0.9-0.4,1.2-0.5,1.4-0.7C98,72.6,118.3,52.4,138.4,32c1-1,0.8-3.3,1.1-5c-1.8,0.3-4.3-0.1-5.4,0.9
			c-5.6,5.1-10.8,10.6-16.1,15.9C102.9,58.9,87.8,74.1,72.5,89.3z M11.2,142.1c-1.8,2.7-6.7,3.9-3.6,8.8c4.6,7.2,9.1,14.5,13.6,21.8
			c1.7,2.8,3.7,3.2,6.2,0.9c2.7-2.6,5.5-5,7.9-7.1C27,157.9,19.3,150.2,11.2,142.1z M52.5,97.4c-1.3-2-2-3.6-3.2-4.8
			c-9.8-9.9-19.7-19.8-29.6-29.7c-1.6-1.6-3.4-3.5-5.7-1.3c-2.3,2.3-0.3,4.1,1.3,5.7c6.5,6.5,13.1,12.9,19.5,19.4
			c3.7,3.8,7,8,10.7,12c1.1,1.1,2.7,2.8,3.8,2.6C50.4,101.1,51.3,99,52.5,97.4z M76.6,103.3c-9.5,6.8-9.5,12.9,0,20.5
			c12.9-12.5,12.2-8.6,0.4-20.4C76.9,103.3,76.7,103.3,76.6,103.3z"/>
	</g>
	<path class="st0" d="M42,145.9L42,145.9c-1.2-1.2-1.2-3.1,0-4.3l8.5-8.5c1.2-1.2,3.1-1.2,4.3,0h0c1.2,1.2,1.2,3.1,0,4.3l-8.5,8.5
		C45.1,147.1,43.2,147.1,42,145.9z"/>
	<path class="st0" d="M29,132.8L29,132.8c-1.2-1.2-1.2-3.1,0-4.3l8.5-8.5c1.2-1.2,3.1-1.2,4.3,0h0c1.2,1.2,1.2,3.1,0,4.3l-8.5,8.5
		C32.1,134,30.2,134,29,132.8z"/>
	<path class="st0" d="M31.1,143.5L31.1,143.5c-1.2-1.2-1.2-3.1,0-4.3L48,122.2c1.2-1.2,3.1-1.2,4.3,0l0,0c1.2,1.2,1.2,3.1,0,4.3
		l-16.9,16.9C34.3,144.7,32.3,144.7,31.1,143.5z"/>
</g>
<g id="Capa_2">
</g>
</svg>
