<?xml version="1.0" encoding="utf-8"?>
<!-- Generator: Adobe Illustrator 22.0.1, SVG Export Plug-In . SVG Version: 6.00 Build 0)  -->
<svg version="1.1" xmlns="http://www.w3.org/2000/svg" xmlns:xlink="http://www.w3.org/1999/xlink" x="0px" y="0px"
	 viewBox="0 0 207.7 179.6" style="enable-background:new 0 0 207.7 179.6;" xml:space="preserve">
<style type="text/css">
	.st0{fill:#FFFFFF;}
</style>
<g id="Capa_1">
	<path class="st0" d="M207.6,171.2l-6.5-3.8v-49.9h6.5v-8.4h-6.5V0.1h-8.4v109H108V58.9h0.1v-8.4H108V0.1h-8.4v50.4H15.4V0.4H7v50.1
		h-7v8.4L7,63v46.1h-7v8.4l7,4.1v49.6h-7v8.4h7h8.4h84.2h5.5l0,0l0,0h2.9h84.7h8.4h6.5L207.6,171.2L207.6,171.2z M15.4,117.5h84.2
		v49.6l-84.2-48.6V117.5z M108,122.2l83.7,49H108V122.2z M192.7,162.6l-77.8-45.1h77.8V162.6z M99.6,58.9v49.7L15.4,59.8v-0.9H99.6z
		 M15.4,68l70.2,41.1H15.4V68z M15.4,126.6l75.5,44.6H15.4V126.6z"/>
</g>
<g id="Capa_2">
</g>
</svg>
