<?xml version="1.0" encoding="utf-8"?>
<!-- Generator: Adobe Illustrator 22.0.1, SVG Export Plug-In . SVG Version: 6.00 Build 0)  -->
<svg version="1.1" xmlns="http://www.w3.org/2000/svg" xmlns:xlink="http://www.w3.org/1999/xlink" x="0px" y="0px"
	 viewBox="0 0 154.3 180.1" style="enable-background:new 0 0 154.3 180.1;" xml:space="preserve">
<style type="text/css">
	.st0{fill:#FFFFFF;}
</style>
<g id="Capa_1">
	<g>
		<path class="st0" d="M154,10.7c0-1.1-1.1-2-2.1-2.9c-0.4-0.4-0.9-0.7-1.2-1.1l-0.5-0.5l-0.4,0.6c-0.3,0.4-0.6,0.8-1,1.2
			c-0.8,0.9-1.7,1.9-1.9,3.1c-0.3,1.9-0.3,3.8-0.2,5.8c0,0.6,0,1.3,0.1,2h-30.9c0-1.2,0-2.5,0-3.7c0-3.2,0-6.2,0-9.2
			c0.1-2.1-0.4-3.6-1.3-4.6c-0.9-0.9-2.3-1.4-4.2-1.4C90.5,0,69.3,0,43.6,0c0,0,0,0,0,0c-1.9,0-3.2,0.4-4.1,1.3
			c-0.9,0.9-1.3,2.3-1.3,4.2c0.1,3.2,0.1,6.3,0,9.5c0,1.2,0,2.4,0,3.7H7.3c0-0.7,0-1.3,0.1-1.9c0.1-1.9,0.2-3.7-0.2-5.4
			c-0.3-1.2-1.1-2.3-2-3.3c-0.4-0.4-0.7-0.9-1-1.3L3.7,6.2L3.2,6.8C2.9,7.2,2.5,7.6,2.1,8.1c-1,1-2,2.1-2,3.3
			c-0.2,14.2-0.2,28.4,0,42.4c0,1.2,1.1,2.3,2.1,3.3c0.4,0.4,0.9,0.9,1.2,1.3l0.5,0.6l0.4-0.7c0.3-0.4,0.6-0.9,1-1.3
			c0.8-1.1,1.7-2.2,1.9-3.4c0.3-1.8,0.3-3.8,0.2-5.7c0-0.6,0-1.2-0.1-1.8h30.9l0,3.8c0,3.4,0,6.7,0,10c0,1.8,0.4,3.1,1.3,4
			c0.9,0.8,2.2,1.2,3.9,1.1c1.8-0.1,3.6-0.1,5.5,0c0.7,0,1.4,0,2.1,0c0,1.2,0,2.4,0,3.5c0,2.7,0.1,5.3-0.1,7.8
			c-0.2,2.2-0.1,4.9,1.5,6.6c1.1,1.1,2.7,1.6,4.9,1.6c0,2.4,0,4.7,0,7c0,6.1,0.1,11.8-0.1,17.6c-0.1,2.9,0.5,4.7,1.7,5.8
			c1.1,1,2.8,1.4,5,1.1c0.6-0.1,1.2,0,2,0.1c0.3,0,0.7,0.1,1.1,0.1c0,5.1,0,10.1,0,15.1c0,12.1,0,23.6,0,35.3c0,1.8,0,3.4,0,4.8
			c-0.1,4-0.1,6,1.1,7.2c1.2,1.3,3.5,1.3,8.3,1.3c1.2,0,2.5,0,4.1,0c0.1,0,0.2,0,0.4,0c2.4,0,3.9-0.5,4.9-1.5
			c1.1-1.1,1.5-2.7,1.5-5.3c-0.2-12.6-0.1-25.4-0.1-37.7c0-4.8,0-9.5,0-14.3v-4.7c0.9-0.1,1.7-0.1,2.4-0.2c7.1-0.5,7.3-0.7,7.3-9.7
			v-22c2.3,0,3.8-0.5,4.9-1.6c1.2-1.2,1.7-3.2,1.5-6.2c-0.2-2.7-0.2-5.5-0.1-8.3c0-1.1,0-2.2,0-3.4l1.8,0c1.4,0,2.7,0,3.9,0
			c6.5,0,7.1-0.6,7.1-7.3c0-2.8,0-5.5,0-8.3l0-3.2h30.9c0,0.7,0,1.4-0.1,2.1c-0.1,2.1-0.1,4,0.2,5.9c0.2,1.2,1.1,2.1,2,3
			c0.4,0.4,0.7,0.8,1,1.1l0.4,0.6l0.4-0.5c0.3-0.4,0.7-0.8,1.2-1.2c1-0.9,2-1.9,2-3C154.2,39.7,154.2,25.1,154,10.7z M146.3,27.1V38
			h-30.2V27.1H146.3z M79.3,116.2v55.7h-4.5v-55.7H79.3z M88.9,84.6v23.6H65.3V84.6H88.9z M57.1,58.7c-1.1-1.1-2.9-1.5-5.4-1.2
			c-1.2,0.1-2.4,0.1-3.8,0.1c-0.5,0-1,0-1.6,0V8H108v49.3c-0.4,0-0.7,0.1-1.1,0.1c-1,0.1-2,0.2-3.1,0.2c-8,0.1-8.2,0.3-8.2,8.6v10
			H58.4c0-1.1,0-2.2,0-3.3c-0.1-2.8-0.1-5.8,0.1-8.6C58.7,61.6,58.2,59.8,57.1,58.7z M37.8,27.1v10.8H7.6V27.1H37.8z"/>
		<path class="st0" d="M145.6,96.3l-0.2-0.5l-0.5,0.3c-0.4,0.2-0.8,0.4-1.2,0.5c-1,0.4-2.1,0.9-2.9,1.6c-0.7,0.7-1,1.8-1.3,2.9
			c-0.1,0.4-0.2,0.7-0.3,1.1c-2.4,7.3-4.9,14.6-7.6,22.7l-2.3,6.8c-0.7-0.9-1.4-1.7-2.1-2.5c-1.8-2.1-3.3-4-5-5.7
			c-1.8-1.8-3.3-2.5-4.7-2.2c-1.3,0.3-2.3,1.5-3,3.7c-5,14.5-8.7,25.7-11.9,36.2c-0.4,1.1,0.4,2.5,1.1,3.7c0.3,0.5,0.6,1.1,0.8,1.6
			l0.3,0.7l0.6-0.4c0.4-0.3,0.8-0.6,1.3-0.8c1-0.7,2.1-1.3,2.8-2.3c0.8-1.1,1.1-2.4,1.5-3.7c0.1-0.5,0.3-1.1,0.5-1.6l9.2-27.2
			c0.8,0.9,1.5,1.8,2.1,2.7c1.8,2.2,3.3,4.1,5,5.8c1.7,1.7,3.1,2.4,4.4,2.1c1.3-0.3,2.3-1.6,3.2-3.9c1.8-5,3.4-10.1,5-15
			c0.7-2.1,1.4-4.2,2.1-6.2c0.4-1.3,0.9-2.7,1.4-4c1.3-3.7,2.6-7.6,3.6-11.5c0.3-1-0.4-2.1-1-3.2C146.1,97.1,145.8,96.7,145.6,96.3z
			"/>
	</g>
	<path class="st0" d="M150.2,60.6L150.2,60.6c-2.2,0-3.9-1.8-3.9-3.9V10.2c0-2.2,1.8-3.9,3.9-3.9l0,0c2.2,0,3.9,1.8,3.9,3.9v46.4
		C154.2,58.8,152.4,60.6,150.2,60.6z"/>
	<path class="st0" d="M93.7,51.8h-1.1c-1.9,0-3.4-1.5-3.4-3.4V15.3c0-1.9,1.5-3.4,3.4-3.4h1.1c1.9,0,3.4,1.5,3.4,3.4v33.2
		C97,50.3,95.5,51.8,93.7,51.8z"/>
	<path class="st0" d="M77.7,51.8h-1.1c-1.9,0-3.4-1.5-3.4-3.4V15.3c0-1.9,1.5-3.4,3.4-3.4h1.1c1.9,0,3.4,1.5,3.4,3.4v33.2
		C81.1,50.3,79.6,51.8,77.7,51.8z"/>
	<path class="st0" d="M61.6,51.8h-1.1c-1.9,0-3.4-1.5-3.4-3.4V15.3c0-1.9,1.5-3.4,3.4-3.4h1.1c1.9,0,3.4,1.5,3.4,3.4v33.2
		C65,50.3,63.5,51.8,61.6,51.8z"/>
	<path class="st0" d="M130.8,139.4L130.8,139.4c-2.1-0.7-3.2-2.9-2.5-5l14.7-44c0.7-2.1,2.9-3.2,5-2.5l0,0c2.1,0.7,3.2,2.9,2.5,5
		l-14.7,44C135.1,139,132.9,140.1,130.8,139.4z"/>
	<path class="st0" d="M104.5,168l-0.6-0.2c-1.8-0.6-2.8-2.5-2.2-4.3l11.4-34.3c0.6-1.8,2.5-2.8,4.3-2.2l0.6,0.2
		c1.8,0.6,2.8,2.5,2.2,4.3l-11.4,34.3C108.2,167.7,106.3,168.6,104.5,168z"/>
	<path class="st0" d="M3.9,60.6L3.9,60.6c-2.2,0-3.9-1.8-3.9-3.9l0-46.4c0-2.2,1.8-3.9,3.9-3.9h0c2.2,0,3.9,1.8,3.9,3.9v46.4
		C7.9,58.8,6.1,60.6,3.9,60.6z"/>
	<path class="st0" d="M8.9,96.3l0.2-0.5L9.7,96c0.4,0.2,0.8,0.4,1.2,0.5c1,0.4,2.1,0.9,2.9,1.6c0.7,0.7,1,1.8,1.3,2.9
		c0.1,0.4,0.2,0.7,0.3,1.1c2.4,7.3,4.9,14.6,7.6,22.7l2.3,6.8c0.7-0.9,1.4-1.7,2.1-2.5c1.8-2.1,3.3-4,5-5.7c1.8-1.8,3.3-2.5,4.7-2.2
		c1.3,0.3,2.3,1.5,3,3.7c5,14.5,8.7,25.7,11.9,36.2c0.4,1.1-0.4,2.5-1.1,3.7c-0.3,0.5-0.6,1.1-0.8,1.6l-0.3,0.7l-0.6-0.4
		c-0.4-0.3-0.8-0.6-1.3-0.8c-1-0.7-2.1-1.3-2.8-2.3c-0.8-1.1-1.1-2.4-1.5-3.7c-0.1-0.5-0.3-1.1-0.5-1.6L34,130.9
		c-0.8,0.9-1.5,1.8-2.1,2.7c-1.8,2.2-3.3,4.1-5,5.8c-1.7,1.7-3.1,2.4-4.4,2.1c-1.3-0.3-2.3-1.6-3.2-3.9c-1.8-5-3.4-10.1-5-15
		c-0.7-2.1-1.4-4.2-2.1-6.2c-0.4-1.3-0.9-2.7-1.4-4c-1.3-3.7-2.6-7.6-3.6-11.5c-0.3-1,0.4-2.1,1-3.2C8.5,97.1,8.8,96.7,8.9,96.3z"/>
	<path class="st0" d="M23.8,139.4L23.8,139.4c2.1-0.7,3.2-2.9,2.5-5l-14.7-44c-0.7-2.1-2.9-3.2-5-2.5h0c-2.1,0.7-3.2,2.9-2.5,5
		l14.7,44C19.5,139,21.7,140.1,23.8,139.4z"/>
	<path class="st0" d="M50.1,168l0.6-0.2c1.8-0.6,2.8-2.5,2.2-4.3l-11.4-34.3c-0.6-1.8-2.5-2.8-4.3-2.2l-0.6,0.2
		c-1.8,0.6-2.8,2.5-2.2,4.3l11.4,34.3C46.3,167.7,48.3,168.6,50.1,168z"/>
</g>
<g id="Capa_2">
</g>
</svg>
