<?xml version="1.0" encoding="utf-8"?>
<!-- Generator: Adobe Illustrator 22.0.1, SVG Export Plug-In . SVG Version: 6.00 Build 0)  -->
<svg version="1.1" xmlns="http://www.w3.org/2000/svg" xmlns:xlink="http://www.w3.org/1999/xlink" x="0px" y="0px"
	 viewBox="0 0 204.7 180.3" style="enable-background:new 0 0 204.7 180.3;" xml:space="preserve">
<style type="text/css">
	.st0{fill:#FFFFFF;}
</style>
<g id="Capa_1">
	<g>
		<path d="M123.7,117.2c-4-13.2-8-26.1-11.8-39.2c-2.2-7.8,2.6-12.4,8-14.5c5.7-2.3,12.8,1.3,15,7.5c2.5,7.2,4.7,14.5,7,21.8
			c8.6-3.5,11.4-3,17.4,3.3c6.1-3.6,11.8-3.7,17,1.8c0.5,0.6,2.1,0.7,2.9,0.4c9.3-3.6,15.5-0.7,18.4,9.1c2,6.9,4.6,13.8,5.6,20.9
			c0.7,4.9,0.2,10.5-1.4,15.3c-1.8,5.7,0.5,10.4,2,15.2c1.7,5.4,0,7.2-4.5,8.5c-13.4,4-26.7,8.4-40,12.6c-2.8,0.9-6.1,0.7-6.5-2.4
			c-1-7.1-7.3-7.9-11.6-11c-6.4-4.7-13.7-8.7-18.9-14.5c-5.6-6.3-8.1-14.7-7.1-23.6C115.8,122.9,120,120.2,123.7,117.2z M159,171.1
			c12.4-3.9,24.5-7.6,36.7-11.4c-2.7-6.5-4.7-12.9-0.7-19.6c0.7-1.2,0.5-3,0.7-4.6c0.9-10.2-3.7-19.2-6.9-28.4
			c-0.4-1.1-3.6-2.5-4.5-2c-1.4,0.8-1.8,3.1-2.7,4.8c-0.9,1.7-1.9,3.4-2.9,5.1c-1.7-1-3.8-1.7-4.9-3.2c-1.2-1.7-1.3-4.2-2-6.3
			c-0.8-2.3-2-4.6-5-4c-2.7,0.6-3.8,2.9-3.3,5.5c0.6,2.8-0.9,4.9-3.1,4.9c-1.6,0-3.6-2-4.7-3.6c-1.2-1.8-1.6-4.1-2.3-6.2
			c-0.8-2.4-2.2-4.5-4.8-3.1c-1.5,0.8-3,3.2-3.1,5c-0.1,2.8-0.8,4.8-3.5,5.2c-2.4,0.3-3.7-1-4.5-3.7c-3-10.2-6.4-20.4-9.6-30.5
			c-0.8-2.7-2-4.4-5.3-3.6c-3.7,1-3.3,3.4-2.5,5.9c5.8,19.1,11.6,38.2,17.7,57.2c1,3.1,0.7,5.6-2.1,6.7c-3.2,1.2-4.8-1.4-5.7-4.1
			c-1.2-3.7-2.2-7.3-3.4-11c-0.4-0.1-0.8-0.2-1.2-0.2c-0.9,1.9-3,4.1-2.6,5.6c1.3,5,2.6,10.4,5.5,14.5c5.8,8.3,14.8,12.7,23.9,16.8
			C155.9,164.5,158.8,166.5,159,171.1z"/>
		<path d="M32.4,126.2c10.4,0.1,21,0,31.3,0l0.3,0c5.9,0,6.5-0.6,7.4-6.6c0.9-5.7,1.7-11.3,2.7-17.2c0.4-2.5,0.8-5,1.2-7.5l0-0.2
			h0.2c0.7,0,1.3,0,2,0c1.3,0,2.5-0.1,3.7,0.1c4.6,0.6,7-1.3,7.9-6.3c0.4-2.4,1.1-4.9,1.8-7.2c0.7-2.4,1.4-4.9,1.8-7.4
			c0.7-4.1,2.8-4.8,6.2-4.7c7.7,0.2,15.8,0.2,24.8,0c15.3-0.3,27.4-8.6,32.5-22.2c0.7-1.8,1.2-3.7,1.7-5.6c0.3-0.9,0.5-1.9,0.8-2.9
			l0.1-0.2h6.1c2.1,0,4.3,0,6.4,0c6,0,12.3,0.1,18.4-0.2c1,0,2-1.1,2.9-2.2c0.4-0.4,0.8-0.9,1.2-1.3c-0.4-0.4-0.7-0.7-1.1-1.1
			c-1-1-1.9-2-3.1-2.6c-0.8-0.4-2-0.3-3.1-0.2c-0.5,0-1,0.1-1.5,0.1c-6.2,0-12.5,0-18.7,0h-7.6l-0.1-0.2c-0.2-0.8-0.4-1.6-0.6-2.3
			c-0.3-1.4-0.6-2.7-1-3.9C152.7,10,139.9,0.2,125.3,0.1C94.9,0,64.2,0,33.9,0.1C19.3,0.2,6.4,9.8,1.7,24.1
			c-0.4,1.1-0.8,2.3-1.2,3.4C0.4,28,0.2,28.5,0,29v11.6c0.1,0.1,0.2,0.3,0.3,0.4c0.2,0.4,0.5,0.8,0.6,1.2
			C5.1,57.6,15.1,66.6,30.8,69c0.8,0.1,1.7,0.3,2.5,0.6c0.4,0.1,0.8,0.2,1.2,0.3l0.3,0.1l0,0.3l-2.3,14.3
			c-1.9,11.7-3.8,23.3-5.7,34.9c-0.5,2.9-0.4,4.5,0.4,5.5C28,125.8,29.5,126.2,32.4,126.2z M123.8,8l0.3,0c7-0.3,13.7,2.1,18.8,6.9
			c5.3,5,8.2,11.9,8.2,19.5c0,7.3-2.8,14.2-8.1,19.2c-4.9,4.8-11.3,7.4-18,7.4c-0.3,0-0.6,0-0.9,0l-0.3,0V8z M86,69
			c-0.4,1.4-0.7,2.7-1.1,4.1c-1.1,4.4-2.2,8.6-3.5,12.7c-0.2,0.6-1.2,0.7-2.6,0.9c-0.6,0.1-1.4,0.2-2,0.3L76.4,87l3-18.1l6.7-0.4
			L86,69z M34.7,61.3C20.4,61.1,9.8,51.9,7.8,37.7C6,25.4,14.3,12.7,26.6,8.9c2.8-0.9,5.7-1.3,8.2-1.4C56.7,7.5,79,7.5,100.5,7.5
			l12.5,0c0.4,0,0.8,0.1,1.4,0.1c0.3,0,0.6,0.1,1,0.1l0.3,0v53.5l-0.3,0c-0.4,0-0.8,0.1-1.2,0.1c-0.8,0.1-1.5,0.1-2.2,0.1
			c0,0,0,0,0,0c-6.6,0-13.2,0-19.9,0C73.2,61.4,53.8,61.4,34.7,61.3z M42.4,69h29.3l-3.3,20.8l-4.4,28.3H34.8L42.4,69z"/>
	</g>
	<path d="M47.3,46.6L47.3,46.6c-2.3,0-4.2-1.9-4.2-4.2V26.6c0-2.3,1.9-4.2,4.2-4.2h0c2.3,0,4.2,1.9,4.2,4.2v15.8
		C51.4,44.7,49.6,46.6,47.3,46.6z"/>
	<path d="M32.9,46.6L32.9,46.6c-2.3,0-4.2-1.9-4.2-4.2V26.6c0-2.3,1.9-4.2,4.2-4.2h0c2.3,0,4.2,1.9,4.2,4.2v15.8
		C37.1,44.7,35.3,46.6,32.9,46.6z"/>
</g>
<g id="Capa_2">
</g>
</svg>
