<?xml version="1.0" encoding="utf-8"?>
<!-- Generator: Adobe Illustrator 22.0.1, SVG Export Plug-In . SVG Version: 6.00 Build 0)  -->
<svg version="1.1" xmlns="http://www.w3.org/2000/svg" xmlns:xlink="http://www.w3.org/1999/xlink" x="0px" y="0px"
	 viewBox="0 0 213.5 179.1" style="enable-background:new 0 0 213.5 179.1;" xml:space="preserve">
<style type="text/css">
	.st0{fill:#FFFFFF;}
</style>
<g id="Capa_1">
	<g>
		<path d="M151.6,90c0,20.9,0,41.9,0,62.8c0,17.2-9.2,26.4-26.2,26.4c-32.9,0-65.9,0-98.8,0c-17.1,0-26.1-8.8-26.1-25.8
			c-0.1-33.5,0-67-0.1-100.5c0-5.6,1.8-10.1,5.9-14.1c11-10.6,21.9-21.3,32.7-32.1c4.7-4.7,10-6.9,16.6-6.8c23.5,0.1,47,0,70.4,0.1
			c15.8,0,25.2,9.3,25.3,25.1c0.2,21.7,0,43.3,0,65C151.4,90,151.5,90,151.6,90z M8.5,51c-0.1,2.4-0.3,4.1-0.3,5.9
			c0,31.9,0,63.7,0,95.6c0,13.5,5.3,18.7,19,18.7c32.2,0,64.4,0,96.7,0c2.9,0,5.9-0.2,8.6-1c6.2-1.7,10-7.1,10-13.4
			c-0.1-43.5-0.1-87-0.2-130.5c0-12.8-5.1-17.9-17.9-17.9c-21.8,0-43.7,0-65.5,0c-1.7,0-3.5,0.2-5.6,0.3c0,7.7,0,15,0,22.2
			c0,14.9-5.2,20.1-20,20.1C25.1,51,17,51,8.5,51z M45.3,12.6c-9.7,10.3-19,20.1-27.7,29.4c6,0,13.3,0.1,20.7,0
			c4-0.1,6.7-2.2,6.9-6.2C45.5,28.2,45.3,20.7,45.3,12.6z"/>
		<path d="M198.4,36.9c0,15.8,0.3,30.9-0.1,46c-0.5,16.9-1.1,33.8-2.8,50.6c-1,10.5-2.3,21.4-10.6,29.6c-1,1-0.1,3.6-0.7,5.2
			c-0.6,1.5-2.1,3.3-3.4,3.5c-1.3,0.2-4.2-1.6-4.1-2.3c0.5-5.4-4.3-8.1-5.7-12.4c-2.5-7.6-4.3-15.3-6.2-23.1c-0.5-1.9-0.4-4-0.5-6
			c-0.7-32.2-1.5-64.3-2-96.5c-0.2-10.4,5.7-17.4,15.1-19c9.3-1.6,16.7,3.4,20.3,13.3c0.5,1.4,2.1,2.7,3.6,3.3
			c8,2.9,11.9,7.7,12.1,16.2c0.2,8.7,0.1,17.5,0.1,26.2c0,3-0.1,6.2-4.3,6.1c-3.8-0.1-3.9-3.1-3.9-6c0-8.6,0-17.1,0-25.7
			C205.2,41.8,203.5,38.8,198.4,36.9z M190.1,59.5c-0.2,0-0.4,0-0.6,0c0-9.5,0.2-18.9-0.1-28.4c-0.2-8-6.5-12.7-13.1-9.9
			c-4.9,2-6.2,6.1-6.1,11.1c0.8,32.7,1.2,65.4,2.4,98.1c0.3,7.1,3.1,14.1,5,21.1c0.3,1,1.5,1.7,2.3,2.6c0.8-0.9,2-1.6,2.3-2.6
			c1.6-5.6,3.9-11.2,4.3-16.8C188,109.6,188.9,84.6,190.1,59.5z"/>
		<path d="M54.7,88c0-2.7,0-5,0-7.9c24,0,48,0,72.4,0c0,2.4,0,4.9,0,7.9C103.2,88,79.2,88,54.7,88z"/>
		<path d="M90.9,108.3c0,2.9,0,5.4,0,8.2c-22,0-43.8,0-65.9,0c0-2.6,0-5.2,0-8.2C46.9,108.3,68.6,108.3,90.9,108.3z"/>
		<path d="M35.5,143.1c-0.2,2.7,0.1,5.4-0.7,7.9c-0.5,1.7-2.4,3.1-3.6,4.6c-1.5-1.5-3.7-2.7-4.4-4.5c-0.7-2.1-0.3-4.7,0-7
			c1.2-9.5,9.1-13.6,17.5-8.6c3.2,1.9,5.7,5.1,8.8,7.2c1.8,1.2,4.3,2.1,6.3,1.9c0.8-0.1,1.1-3.6,2-5.4c1-1.9,2.4-3.5,3.7-5.2
			c1.6,1.3,4.2,2.4,4.7,4.1c1.6,5.1-0.1,9.7-4,13.3c-4,3.5-8.7,3.8-13.2,1.5c-3.2-1.6-5.7-4.4-8.6-6.5c-2.2-1.6-4.5-3-6.8-4.6
			C36.6,142.3,36,142.7,35.5,143.1z"/>
		<path d="M85,60c0-2.9,0-5.4,0-8.2c14,0,27.7,0,41.9,0c0,2.6,0,5.1,0,8.2C113.1,60,99.3,60,85,60z"/>
		<path d="M101.9,108.3c8.4,0,16.5,0,25,0c0,2.6,0,5.2,0,8.2c-8.2,0-16.5,0-25,0C101.9,113.9,101.9,111.4,101.9,108.3z"/>
		<path d="M24.9,79.9c6.4,0,12.3,0,18.7,0c0,2.8,0,5.4,0,8.3c-6.3,0-12.3,0-18.7,0C24.9,85.4,24.9,82.9,24.9,79.9z"/>
	</g>
</g>
<g id="Capa_2">
</g>
</svg>
