<?xml version="1.0" encoding="utf-8"?>
<!-- Generator: Adobe Illustrator 22.0.1, SVG Export Plug-In . SVG Version: 6.00 Build 0)  -->
<svg version="1.1" xmlns="http://www.w3.org/2000/svg" xmlns:xlink="http://www.w3.org/1999/xlink" x="0px" y="0px"
	 viewBox="0 0 179.2 179.3" style="enable-background:new 0 0 179.2 179.3;" xml:space="preserve">
<style type="text/css">
	.st0{fill:#FFFFFF;}
</style>
<g id="Capa_1">
	<g>
		<path d="M172.2,171.1H114l15.1-32.5c0.2-0.4,0.2-0.9-0.1-1.3c-0.3-0.4-0.7-0.6-1.2-0.6c-5,0-10,0-14.9,0c-13,0-25.2,0-37.7-0.1
			l-0.8,0c-3,0-6.2-0.1-8.3,2c-0.3,0.3-0.6,0.7-0.9,1.1c0-1.8,0-3.5-0.1-5.3c-0.5-6.4-3.6-11.9-9-16c-1.1-0.9-2.7-0.8-4-0.8
			c-0.5,0-1,0-1.5,0c-0.4,0-0.9,0.1-1.2,0.5c-0.3,0.3-0.4,0.8-0.3,1.2c0.1,0.5,0.2,1,0.2,1.5c0.2,1.3,0.3,2.7,1,3.9
			c0.7,1.3,1.7,2.4,2.6,3.5c1.4,1.7,2.7,3.3,2.8,4.8c0.5,6.9,0.4,14.1,0.3,21c0,2.3-0.1,4.6-0.1,6.9h-3.2c0-1,0-2,0-3
			c0-3.8,0.1-7.4-0.2-11.1c-0.1-1.5-1.2-2.7-2.1-3.8c-0.4-0.4-0.7-0.8-1-1.2c-0.3-0.4-0.7-0.6-1.2-0.6c-0.5,0-0.9,0.2-1.1,0.6
			c-0.3,0.4-0.6,0.8-0.9,1.2c-0.9,1.1-1.9,2.3-2,3.8c-0.2,3.7-0.2,7.3-0.2,11.1c0,1,0,2,0,3l-8,0.5c-0.7,0-1.3,0.7-1.3,1.4v5.5
			c0,0.8,0.6,1.4,1.4,1.4h14.4c12.4,0,12.9-0.3,17.1-12c0.5-1.3,0.9-2.7,1.2-4.1c0.8-3.1,1.7-6.4,3.5-7.6c2-1.4,5.5-1.1,8.9-0.9
			c1.4,0.1,2.8,0.2,4.1,0.2c7.6-0.1,15.1,0,23.1,0c2.6,0,5.1,0,7.7,0c-0.9,1.8-1.7,3.6-2.6,5.4c-2.9,5.9-5.5,11.5-8,17.3
			c-1.1,2.5-2.3,3.2-5.3,3.2c0,0-0.1,0-0.1,0c-23.5-0.1-47.4-0.1-70.5-0.1l-26,0c-0.8,0-1.4,0.6-1.4,1.4v5.6c0,0.8,0.6,1.4,1.4,1.4
			h168.1c0.8,0,1.4-0.6,1.4-1.4v-5.7C173.6,171.7,173,171.1,172.2,171.1z"/>
		<path d="M163.2,16.6c-10.8-10.9-26-17.1-41.9-17.1c-0.1,0-0.2,0-0.3,0C104.9-0.4,90,5.8,79.2,17C62.9,33.7,59,53,67.7,72.8
			c4.3,9.6,5,18.1,2.5,27.5c-0.1,0.5-0.2,1-0.2,1.4c0,0.2,0,0.5-0.1,0.7c-0.5,3.1-0.5,5.3,0.8,6.5c0.7,0.6,1.5,0.9,2.6,0.9
			c1.2,0,2.6-0.3,4.3-0.8c1.7-0.5,3.4-0.9,5-1.4c3.8-1.1,7.6-2.2,11.5-3c2.4-0.5,5.1-0.1,7,0.2c4.8,0.9,9.5,1.9,13.8,2.8
			c1.6,0.3,3.1,0.7,4.5,1c0.2,0,0.3,0,0.5,0c2-0.3,3.8-0.4,5.5-0.6c3.4-0.4,6.4-0.7,9.3-1.4c22-5.5,36.2-18.4,42.1-38.5
			C182.5,49.2,177.7,31.4,163.2,16.6z M79.6,97.2c0.7-3.7,1.3-7.2,1.7-10.8c0.2-1.8,0.3-5.2-1.2-7.4C71.7,66.9,69.8,52.1,75,38.6
			c5.5-14.4,18.4-25.3,34.5-29.1c4-0.9,8-1.4,11.9-1.4c21.5,0,41.4,13.5,47.3,33.6c3.3,11.4,1.8,23.5-4.2,33.9
			C158.1,86.8,147,95,134.1,98.1c-10.4,2.5-20.6,2-31.2-1.7c-3.6-1.2-7.5-0.8-9.6-0.4c-3.7,0.7-7.4,1.8-11.2,2.9c-1,0.3-2,0.6-3,0.8
			C79.3,98.9,79.4,98,79.6,97.2z"/>
		<path d="M25.4,121.6c2.5,0.8,5,1.2,7.4,1.2c4.7,0,9.1-1.5,12.6-4.3c5.3-4.2,8-10.9,7.5-18.5c0-10.6-3.9-17.4-11.8-20.9
			c-5.6-2.5-12.3-2.5-17.8,0c-4.9,2.2-8.4,6-9.9,10.7c-2.7,8.3-2.5,16.5,0.6,22.5C16.5,116.8,20.3,119.9,25.4,121.6z M20.7,98.7
			l0-0.5c0.1-7.6,4.3-12,11.6-12.1c0,0,0.1,0,0.1,0c7.2,0,11.5,4.3,11.8,11.8c0,0.4,0,0.9,0,1.3l0,0.6c0,0,0,0,0,0
			c0,5.2-1.2,9-3.6,11.3c-2.1,2-5.1,2.9-9,2.8c-6.3-0.2-10.6-4.5-10.9-10.8C20.7,101.6,20.7,100.2,20.7,98.7z"/>
		<path d="M6.8,166c0.4,0,0.7-0.1,1-0.4c0.3-0.3,0.4-0.6,0.4-1c0-2.7,0-5.3,0-7.9c0-5.9,0-11.5,0-17.2c-0.1-6.3,1.8-10.9,6.1-14.7
			c1.1-1,1.3-2.6,1.4-4c0.1-0.6,0.1-1.1,0.2-1.5c0.1-0.4,0-0.9-0.3-1.2c-0.3-0.3-0.8-0.5-1.2-0.4c-0.5,0.1-1,0.1-1.6,0.1
			c-1.4,0-3,0-4.2,0.9c-5.3,4-8.4,9.3-8.6,15.1c-0.3,7.1-0.2,14.1-0.2,21.5c0,3,0.1,6.1,0.1,9.2c0,0.7,0.6,1.4,1.3,1.4L6.8,166
			C6.7,166,6.8,166,6.8,166z"/>
		<path d="M18.4,143c-0.4-0.4-0.7-0.7-1-1c-0.3-0.3-0.7-0.5-1.1-0.5c-0.4,0-0.8,0.2-1.1,0.5c-0.2,0.3-0.6,0.6-0.9,0.9
			c-1,0.9-2,1.9-2.1,3.2c-0.2,4.5-0.2,8.8-0.1,13.5c0,1.6,0,3.2,0,4.8c0,0.8,0.6,1.4,1.4,1.4h5.8c0.8,0,1.4-0.6,1.4-1.4
			c0-1.7,0-3.3,0-4.9c0-4.5,0.1-8.7-0.2-13.1C20.5,145,19.4,143.9,18.4,143z"/>
		<path d="M89.2,59.4c1.3,1.2,3,1.8,4.9,1.8c0.1,0,0.3,0,0.4,0c4.3-0.2,6.9-3.1,7-7.7c0-0.1,0-0.2,0-0.3c-0.7-4.4-3.4-6.8-7.7-6.6
			c-4.5,0.2-7.1,3.1-6.9,7.6C87,56.4,87.8,58.2,89.2,59.4z"/>
		<path d="M121.3,61.2c0.1,0,0.1,0,0.2,0c2.1,0,4-0.8,5.3-2.1c1.3-1.4,1.9-3.2,1.9-5.3c-0.1-4.4-3-7.1-7.5-7.1
			c-4.2,0.1-6.8,2.7-7.2,7.2c0,0.1,0,0.2,0,0.3C114.5,58.6,117.2,61.2,121.3,61.2z"/>
		<path d="M148.3,61.2c0.1,0,0.3,0,0.4,0c4.4-0.2,7.2-3.1,7-7.6c-0.2-4.3-2.8-6.8-7.4-7.1c-0.1,0-0.2,0-0.3,0
			c-4.5,0.6-7,3.4-6.8,7.6c0.1,2.2,0.9,4,2.2,5.3C144.6,60.6,146.3,61.2,148.3,61.2z"/>
	</g>
</g>
<g id="Capa_2">
</g>
</svg>
