<?xml version="1.0" encoding="utf-8"?>
<!-- Generator: Adobe Illustrator 22.0.1, SVG Export Plug-In . SVG Version: 6.00 Build 0)  -->
<svg version="1.1" xmlns="http://www.w3.org/2000/svg" xmlns:xlink="http://www.w3.org/1999/xlink" x="0px" y="0px"
	 viewBox="0 0 154.4 179.8" style="enable-background:new 0 0 154.4 179.8;" xml:space="preserve">
<style type="text/css">
	.st0{fill:#FFFFFF;}
</style>
<g id="Capa_1">
	<g>
		<g>
			<path d="M154.2,10.7c0-1.1-1.1-2-2.1-2.9c-0.4-0.4-0.9-0.7-1.2-1.1l-0.5-0.5L150,6.7c-0.3,0.4-0.6,0.8-1,1.2
				c-0.8,0.9-1.7,1.9-1.9,3.1c-0.3,1.9-0.3,3.8-0.2,5.8c0,0.6,0,1.3,0.1,2h-30.9c0-1.2,0-2.5,0-3.7c0-3.2,0-6.2,0-9.2
				c0.1-2.1-0.4-3.6-1.3-4.6c-0.9-0.9-2.3-1.4-4.2-1.4C90.7,0,69.5,0,43.7,0c0,0,0,0,0,0c-1.9,0-3.2,0.4-4.1,1.3
				c-0.9,0.9-1.3,2.3-1.3,4.2c0.1,3.2,0.1,6.3,0,9.5c0,1.2,0,2.4,0,3.7H7.5c0-0.7,0-1.3,0.1-1.9c0.1-1.9,0.2-3.7-0.2-5.4
				C7.1,10.1,6.2,9,5.4,8C5,7.6,4.7,7.2,4.3,6.7L3.9,6.1L3.4,6.7C3.1,7.2,2.7,7.6,2.3,8c-1,1-2,2.1-2,3.3C0,25.5,0,39.8,0.3,53.7
				c0,1.2,1.1,2.3,2.1,3.3c0.4,0.4,0.9,0.9,1.2,1.3L4,58.9l0.4-0.7c0.3-0.4,0.6-0.9,1-1.3c0.8-1.1,1.7-2.2,1.9-3.4
				c0.3-1.8,0.3-3.8,0.2-5.7c0-0.6,0-1.2-0.1-1.8h30.9l0,3.8c0,3.4,0,6.7,0,10c0,1.8,0.4,3.1,1.3,4c0.9,0.8,2.2,1.2,3.9,1.1
				c1.8-0.1,3.6-0.1,5.5,0c0.7,0,1.4,0,2.1,0c0,1.2,0,2.4,0,3.5c0,2.7,0.1,5.3-0.1,7.8c-0.2,2.2-0.1,4.9,1.5,6.6
				c1.1,1.1,2.7,1.6,4.9,1.6c0,2.4,0,4.7,0,7c0,6.1,0.1,11.8-0.1,17.6c-0.1,2.9,0.5,4.7,1.7,5.8c1.1,1,2.8,1.4,5,1.1
				c0.6-0.1,1.2,0,2,0.1c0.3,0,0.7,0.1,1.1,0.1c0,5.1,0,10.1,0,15.1c0,12.1,0,23.6,0,35.3c0,1.8,0,3.4,0,4.8c-0.1,4-0.1,6,1.1,7.2
				c1.2,1.3,3.5,1.3,8.3,1.3c1.2,0,2.5,0,4.1,0c0.1,0,0.2,0,0.4,0c2.4,0,3.9-0.5,4.9-1.5c1.1-1.1,1.5-2.7,1.5-5.3
				c-0.2-12.6-0.1-25.4-0.1-37.7c0-4.8,0-9.5,0-14.3v-4.7c0.9-0.1,1.7-0.1,2.4-0.2c7.1-0.5,7.3-0.7,7.3-9.7v-22
				c2.3,0,3.8-0.5,4.9-1.6c1.2-1.2,1.7-3.2,1.5-6.2c-0.2-2.7-0.2-5.5-0.1-8.3c0-1.1,0-2.2,0-3.4l1.8,0c1.4,0,2.7,0,3.9,0
				c6.5,0,7.1-0.6,7.1-7.3c0-2.8,0-5.5,0-8.3l0-3.2h30.9c0,0.7,0,1.4-0.1,2.1c-0.1,2.1-0.1,4,0.2,5.9c0.2,1.2,1.1,2.1,2,3
				c0.4,0.4,0.7,0.8,1,1.1l0.4,0.6l0.4-0.5c0.3-0.4,0.7-0.8,1.2-1.2c1-0.9,2-1.9,2-3C154.4,39.7,154.4,25.1,154.2,10.7z M146.5,27.1
				V38h-30.2V27.1H146.5z M79.5,116.1v55.7H75v-55.7H79.5z M89.1,84.6v23.6H65.5V84.6H89.1z M57.2,58.6c-1.1-1.1-2.9-1.5-5.4-1.2
				c-1.2,0.1-2.4,0.1-3.8,0.1c-0.5,0-1,0-1.6,0V7.9h61.8v49.3c-0.4,0-0.7,0.1-1.1,0.1c-1,0.1-2,0.2-3.1,0.2c-8,0.1-8.2,0.3-8.2,8.6
				v10H58.6c0-1.1,0-2.2,0-3.3c-0.1-2.8-0.1-5.8,0.1-8.6C58.8,61.5,58.4,59.7,57.2,58.6z M38,27v10.8H7.8V27H38z"/>
			<path d="M145.8,96.2l-0.2-0.5l-0.5,0.3c-0.4,0.2-0.8,0.4-1.2,0.5c-1,0.4-2.1,0.9-2.9,1.6c-0.7,0.7-1,1.8-1.3,2.9
				c-0.1,0.4-0.2,0.7-0.3,1.1c-2.4,7.3-4.9,14.6-7.6,22.7l-2.3,6.8c-0.7-0.9-1.4-1.7-2.1-2.5c-1.8-2.1-3.3-4-5-5.7
				c-1.8-1.8-3.3-2.5-4.7-2.2c-1.3,0.3-2.3,1.5-3,3.7c-5,14.5-8.7,25.7-11.9,36.2c-0.4,1.1,0.4,2.5,1.1,3.7c0.3,0.5,0.6,1.1,0.8,1.6
				l0.3,0.7l0.6-0.4c0.4-0.3,0.8-0.6,1.3-0.8c1-0.7,2.1-1.3,2.8-2.3c0.8-1.1,1.1-2.4,1.5-3.7c0.1-0.5,0.3-1.1,0.5-1.6l9.2-27.2
				c0.8,0.9,1.5,1.8,2.1,2.7c1.8,2.2,3.3,4.1,5,5.8c1.7,1.7,3.1,2.4,4.4,2.1c1.3-0.3,2.3-1.6,3.2-3.9c1.8-5,3.4-10.1,5-15
				c0.7-2.1,1.4-4.2,2.1-6.2c0.4-1.3,0.9-2.7,1.4-4c1.3-3.7,2.6-7.6,3.6-11.5c0.3-1-0.4-2.1-1-3.2C146.3,97.1,146,96.6,145.8,96.2z"
				/>
		</g>
		<path d="M150.4,60.5L150.4,60.5c-2.2,0-3.9-1.8-3.9-3.9V10.2c0-2.2,1.8-3.9,3.9-3.9l0,0c2.2,0,3.9,1.8,3.9,3.9v46.4
			C154.4,58.8,152.6,60.5,150.4,60.5z"/>
		<path d="M93.8,51.8h-1.1c-1.9,0-3.4-1.5-3.4-3.4V15.3c0-1.9,1.5-3.4,3.4-3.4h1.1c1.9,0,3.4,1.5,3.4,3.4v33.2
			C97.2,50.3,95.7,51.8,93.8,51.8z"/>
		<path d="M77.9,51.8h-1.1c-1.9,0-3.4-1.5-3.4-3.4V15.3c0-1.9,1.5-3.4,3.4-3.4h1.1c1.9,0,3.4,1.5,3.4,3.4v33.2
			C81.3,50.3,79.8,51.8,77.9,51.8z"/>
		<path d="M61.8,51.8h-1.1c-1.9,0-3.4-1.5-3.4-3.4V15.3c0-1.9,1.5-3.4,3.4-3.4h1.1c1.9,0,3.4,1.5,3.4,3.4v33.2
			C65.2,50.3,63.7,51.8,61.8,51.8z"/>
		<path d="M131,139.3L131,139.3c-2.1-0.7-3.2-2.9-2.5-5l14.7-44c0.7-2.1,2.9-3.2,5-2.5h0c2.1,0.7,3.2,2.9,2.5,5l-14.7,44
			C135.3,138.9,133.1,140,131,139.3z"/>
		<path d="M104.7,168l-0.6-0.2c-1.8-0.6-2.8-2.5-2.2-4.3l11.4-34.3c0.6-1.8,2.5-2.8,4.3-2.2l0.6,0.2c1.8,0.6,2.8,2.5,2.2,4.3
			L109,165.8C108.4,167.6,106.5,168.6,104.7,168z"/>
		<path d="M4.1,60.5L4.1,60.5c-2.2,0-3.9-1.8-3.9-3.9V10.2c0-2.2,1.8-3.9,3.9-3.9h0c2.2,0,3.9,1.8,3.9,3.9v46.4
			C8.1,58.8,6.3,60.5,4.1,60.5z"/>
		<path d="M9.1,96.2l0.2-0.5l0.5,0.3c0.4,0.2,0.8,0.4,1.2,0.5c1,0.4,2.1,0.9,2.9,1.6c0.7,0.7,1,1.8,1.3,2.9c0.1,0.4,0.2,0.7,0.3,1.1
			c2.4,7.3,4.9,14.6,7.6,22.7l2.3,6.8c0.7-0.9,1.4-1.7,2.1-2.5c1.8-2.1,3.3-4,5-5.7c1.8-1.8,3.3-2.5,4.7-2.2c1.3,0.3,2.3,1.5,3,3.7
			c5,14.5,8.7,25.7,11.9,36.2c0.4,1.1-0.4,2.5-1.1,3.7c-0.3,0.5-0.6,1.1-0.8,1.6l-0.3,0.7l-0.6-0.4c-0.4-0.3-0.8-0.6-1.3-0.8
			c-1-0.7-2.1-1.3-2.8-2.3c-0.8-1.1-1.1-2.4-1.5-3.7c-0.1-0.5-0.3-1.1-0.5-1.6l-9.2-27.2c-0.8,0.9-1.5,1.8-2.1,2.7
			c-1.8,2.2-3.3,4.1-5,5.8c-1.7,1.7-3.1,2.4-4.4,2.1c-1.3-0.3-2.3-1.6-3.2-3.9c-1.8-5-3.4-10.1-5-15c-0.7-2.1-1.4-4.2-2.1-6.2
			c-0.4-1.3-0.9-2.7-1.4-4c-1.3-3.7-2.6-7.6-3.6-11.5c-0.3-1,0.4-2.1,1-3.2C8.7,97.1,9,96.6,9.1,96.2z"/>
		<path d="M24,139.3L24,139.3c2.1-0.7,3.2-2.9,2.5-5l-14.7-44c-0.7-2.1-2.9-3.2-5-2.5h0c-2.1,0.7-3.2,2.9-2.5,5l14.7,44
			C19.7,138.9,21.9,140,24,139.3z"/>
		<path d="M50.2,168l0.6-0.2c1.8-0.6,2.8-2.5,2.2-4.3l-11.4-34.3c-0.6-1.8-2.5-2.8-4.3-2.2l-0.6,0.2c-1.8,0.6-2.8,2.5-2.2,4.3
			l11.4,34.3C46.5,167.6,48.5,168.6,50.2,168z"/>
	</g>
</g>
<g id="Capa_2">
</g>
</svg>
