<?xml version="1.0" encoding="utf-8"?>
<!-- Generator: Adobe Illustrator 22.0.1, SVG Export Plug-In . SVG Version: 6.00 Build 0)  -->
<svg version="1.1" xmlns="http://www.w3.org/2000/svg" xmlns:xlink="http://www.w3.org/1999/xlink" x="0px" y="0px"
	 viewBox="0 0 162.5 179.9" style="enable-background:new 0 0 162.5 179.9;" xml:space="preserve">
<style type="text/css">
	.st0{fill:#FFFFFF;}
</style>
<g id="Capa_1">
	<g>
		<path d="M35.9,174.6c0.2-0.3,0.4-0.6,0.5-0.9c2.7-4.3,6.5-6.3,12.1-6.2c9.3,0.2,18.7,0.1,27.8,0.1l3.7,0
			c11.3-0.1,20.6-3.6,27.6-10.4c15.3-14.9,31.8-31.4,50.6-50.5c5.7-5.8,5.6-14.7-0.2-20.6c-5.8-5.8-14.5-6.1-20.7-0.8
			c-2.3,2-4.6,4.3-6.7,6.4c-0.9,0.9-1.7,1.7-2.6,2.6c-5.3,5.2-10.5,10.3-15.9,15.6l-6.9,6.8l-0.3-0.6c-3.5-6.3-8.5-9.3-15.2-9.3
			c0,0,0,0,0,0c-8.3,0-16.7,0-25,0c-10.7,0-21.4,0-32.1,0c-7.4,0-13.7,2.3-19,6.7c-2.7,2.3-5.4,4.7-7.9,7c-1.1,0.9-2.1,1.9-3.2,2.8
			c-1.4,1.3-2.2,2.5-2.2,3.7c0,1,0.4,1.9,1.2,2.8c1.9,2,4.1,1.9,6.6-0.5c1.4-1.2,2.7-2.5,4.1-3.7c1.7-1.6,3.5-3.1,5.2-4.7
			c4.3-3.9,9.5-5.9,15.6-5.9l15,0c13.6,0,27.1,0,40.7,0c5.4,0,8.6,2.5,8.7,6.7c0,1.8-0.5,3.4-1.7,4.6c-1.5,1.6-4,2.4-7.2,2.4
			c-10.5,0-23,0.1-35.7,0c-1.9,0-4,0.1-5.1,1.2c-0.6,0.6-0.9,1.6-0.9,2.9c0,3,1.8,4.2,6,4.2c0,0,0,0,0.1,0c10.8,0,22.5,0,36.7,0
			c0,0,0,0,0,0c5,0,9.1-1.9,13.1-5.9c12.5-12.7,25.4-25.3,37.9-37.6l1.3-1.3c3.2-3.2,7.2-3.3,10.2-0.5c1.4,1.3,2.1,2.8,2.1,4.3
			c0,2-1.1,4.1-3.4,6.4c-6.9,6.9-13.9,13.9-20.8,20.8c-8.6,8.6-17.2,17.2-25.8,25.8c-6.7,6.7-14.9,10.1-24.5,10.1
			c-3,0-6,0.1-8.9,0.1c-6.9,0.1-13.9,0.3-20.9-0.3c-0.7-0.1-1.4-0.1-2.1-0.1c-11.4,0-17.3,7.4-22,15.4c-0.7,1.1,0,4.4,1.1,5.2
			c1,0.7,3.9,0.2,5.4-0.8C33.8,178.1,34.9,176.3,35.9,174.6z"/>
		<path d="M128.9,76.4c1.3,0.3,2.3,0.2,3.1-0.3c1.4-0.9,2-3,2.3-4.7c0.1-0.3,0.1-0.6,0.2-0.8c0.1-0.3,0.2-0.6,0.2-0.9
			c3.3-17.2-1.1-34.6-12.1-47.9C111.7,8.4,95.4,0.8,78,0.7c-0.1,0-0.1,0-0.2,0C61,0.7,45.1,8,34.2,20.7
			c-11,12.7-15.8,29.5-13.3,46.1c1.6,10.4,5.9,19.9,12.7,28.1c1.1,1.3,2.4,2.1,3.6,2.1c0,0,0,0,0,0c0.9,0,1.7-0.4,2.3-1.2
			c0.9-1.1,0.6-3.6,0.4-5.6l-0.1-0.5c-0.1-0.5-0.6-1.1-1.1-1.6c-0.3-0.3-0.7-0.7-0.9-1.1c-8.5-12-11.3-25.2-8.3-39.1
			C32.3,34.7,40,23.4,51.2,16.2c11.1-7.1,24.3-9.5,37.2-6.8c13,2.8,24,10.4,31.1,21.5c7.3,11.4,9.7,25.1,6.7,38.7
			C125.3,73.3,125.5,75.6,128.9,76.4z"/>
		<path d="M68.2,80.7c1.1,1,2.1,2,3.2,3l0.2,0.2c1.1,1.1,2.3,2.3,2.5,3.7c0.2,2,0.9,3.4,1.8,4.1c0.6,0.5,1.4,0.6,2.3,0.4
			c1.1-0.2,2.1-1.6,3.1-3c0.4-0.5,0.8-1.1,1.2-1.6c0.4-0.4,0.7-1,1-1.5c0.6-1,1.2-2,2.1-2.4c5.1-2.5,8.1-6.1,9.2-10.9
			c1.9-8.2-2.2-14.8-11.4-18.2c-1.1-0.4-2.3-0.7-3.4-1.1c-2.1-0.6-4.3-1.2-6.2-2.4c-1.9-1.1-4-4-3.8-6.1c0.2-2.4,2.4-5.1,4.4-6.3
			c2-1.2,4.2-1.5,6.2-0.8c2.3,0.7,4.4,2.5,5.7,5.1c1.6,3.1,3.5,4,5.9,2.8c1.3-0.7,2.2-1.6,2.4-2.7c0.3-1.2-0.1-2.6-1.2-4
			c-1.4-1.8-3.2-3.5-4.9-5.1c-1-1-2.1-2-3.1-3l-0.4-0.4c-1.1-1.1-2.3-2.3-2.6-3.8c-0.6-2.9-1.6-4.8-4.4-4.7c-2.3,0-3.5,1.4-4.1,4.5
			c-0.3,1.5-1.5,3.3-2.8,3.9c-6.8,3.4-10,8.3-9.9,15.3C61.5,52.3,65,56.8,72,59.6c1.3,0.5,2.7,0.9,4.1,1.3c1.9,0.5,3.8,1.1,5.5,2
			c1.6,0.8,2.8,2.1,4.3,3.5c0.7,0.7,1.5,1.5,2.3,2.2l0.4,0.3l-0.3,0.4c-0.8,0.9-1.4,1.8-2.1,2.6c-1.2,1.6-2.3,3-3.7,3.8
			c-4.4,2.6-8.9,1-12.3-4.2c-1.2-1.9-2.4-2.8-3.8-2.8c-0.7,0-1.4,0.2-2.1,0.6c-1.2,0.7-2,1.6-2.2,2.8c-0.2,1.1,0.1,2.2,0.9,3.2
			C64.6,77.4,66.4,79.1,68.2,80.7z"/>
	</g>
</g>
<g id="Capa_2">
</g>
</svg>
