<?xml version="1.0" encoding="utf-8"?>
<!-- Generator: Adobe Illustrator 22.0.1, SVG Export Plug-In . SVG Version: 6.00 Build 0)  -->
<svg version="1.1" xmlns="http://www.w3.org/2000/svg" xmlns:xlink="http://www.w3.org/1999/xlink" x="0px" y="0px"
	 viewBox="0 0 200 179.6" style="enable-background:new 0 0 200 179.6;" xml:space="preserve">
<style type="text/css">
	.st0{fill:#FFFFFF;}
</style>
<g id="Capa_1">
	<g>
		<path d="M199.8,103c-7.2,7-14.5,14.1-21.7,21.2c-7.7,7.6-15.3,15.3-22.9,22.8c4.7,14.5,2.7,23.3-6.5,29.4
			c-7.7,5-17.6,4.5-24.6-1.5c-8-6.7-9.5-16-4.3-27.4c-0.9-1-1.9-2.1-2.9-3.2c-31.1-31.1-62.3-62.2-93.2-93.4
			c-2.9-2.9-5.1-3.4-8.5-1.2c-2.8,1.8-5.8,3.5-9,4.3c-1.7,0.4-3.9-1.1-5.9-1.7c0.7-1.8,0.9-4.5,2.2-5.3c5.3-3.1,10.8-5.9,16.5-8.2
			c1.5-0.6,4.5,0.7,5.9,2c5.4,4.9,10.5,10.3,15.6,15.5C67.2,83,94,109.7,120.6,136.5c3.4,3.4,6.2,5.7,10.9,2.6
			c1-0.7,2.5-0.7,3.8-1.1c0.5-0.6,1-1.1,1.5-1.7c-1.6-0.8-3.5-1.4-4.7-2.6C104.5,106.2,76.9,78.6,49.4,51c-5-5-5-5.9-0.1-10.9
			c12-12,24-24,36.1-36c5.3-5.3,6-5.3,11.2-0.1c11.8,11.8,23.5,23.5,35.2,35.3c7.1-4.7,7.2-4.7,13,1.1c13.7,13.7,27.3,27.3,41,41
			c5,5,5,6,0.1,10.9c-15.1,15.1-30.1,30.1-45.3,45.2c7.7,4.6,7.7,4.6,13.7-1.4c12.3-12.3,24.5-24.5,36.7-36.8c3-3,5.7-3.8,8.8-0.3
			C199.8,100.3,199.8,101.6,199.8,103z M137.9,126.3c13.2-13.1,26.8-26.7,40-39.7c-13.1-13.1-26.6-26.6-39.8-39.8
			c-13.2,13.2-26.7,26.7-39.9,39.8C111.6,99.9,125.2,113.5,137.9,126.3z M125.1,46.1C113.6,34.5,102,22.9,90.9,11.7
			C79.7,22.9,68.1,34.5,57,45.6c11.2,11.4,22.8,23,34.2,34.6C102.5,68.7,114,57.2,125.1,46.1z M137.1,171.3
			c6.9,0.1,12.5-5.2,12.7-12c0.2-6.9-5-12.4-12-12.6c-7.3-0.2-12.9,5.1-12.9,12.2C124.8,165.7,130.2,171.2,137.1,171.3z"/>
		<path d="M114.2,91.3c-1-0.8-2.7-1.5-3-2.7c-0.4-1.4-0.3-3.6,0.6-4.6c7.7-8,15.6-16,23.7-23.6c1-1,4.2-0.8,5.5,0.2
			c0.9,0.7,1.2,4.2,0.3,5.1c-7.9,8.3-16.1,16.3-24.3,24.4C116.4,90.7,115.4,90.8,114.2,91.3z"/>
		<path d="M73.6,49.8c-3.6-0.1-5.7-4.1-3.4-6.6c5.9-6.3,12-12.4,18.3-18.2c0.9-0.9,3.9-0.6,5.2,0.2c0.9,0.7,1.4,3.9,0.7,4.7
			c-6.2,6.6-12.8,12.9-19.3,19.3C74.7,49.6,73.9,49.6,73.6,49.8z"/>
	</g>
</g>
<g id="Capa_2">
</g>
</svg>
