<?xml version="1.0" encoding="utf-8"?>
<!-- Generator: Adobe Illustrator 22.0.1, SVG Export Plug-In . SVG Version: 6.00 Build 0)  -->
<svg version="1.1" id="Capa_1" xmlns="http://www.w3.org/2000/svg" xmlns:xlink="http://www.w3.org/1999/xlink" x="0px" y="0px"
	 viewBox="0 0 595.3 841.9" style="enable-background:new 0 0 595.3 841.9;" xml:space="preserve">
<style type="text/css">
	.st0{fill:#211915;}
</style>
<g>
	<circle class="st0" cx="12.8" cy="557.9" r="1.4"/>
	<circle class="st0" cx="21" cy="557.9" r="1.4"/>
	<circle class="st0" cx="29.3" cy="557.9" r="1.4"/>
	<circle class="st0" cx="37.5" cy="557.9" r="1.4"/>
	<circle class="st0" cx="45.8" cy="557.9" r="1.4"/>
	<circle class="st0" cx="54" cy="557.9" r="1.4"/>
	<circle class="st0" cx="62.3" cy="557.9" r="1.4"/>
	<circle class="st0" cx="70.5" cy="557.9" r="1.4"/>
	<circle class="st0" cx="78.8" cy="557.9" r="1.4"/>
	<circle class="st0" cx="87" cy="557.9" r="1.4"/>
	<circle class="st0" cx="95.3" cy="557.9" r="1.4"/>
	<circle class="st0" cx="103.5" cy="557.9" r="1.4"/>
	<circle class="st0" cx="111.8" cy="557.9" r="1.4"/>
	<circle class="st0" cx="120" cy="557.9" r="1.4"/>
	<circle class="st0" cx="128.3" cy="557.9" r="1.4"/>
	<circle class="st0" cx="136.5" cy="557.9" r="1.4"/>
	<circle class="st0" cx="144.8" cy="557.9" r="1.4"/>
	<circle class="st0" cx="153" cy="557.9" r="1.4"/>
	<circle class="st0" cx="161.3" cy="557.9" r="1.4"/>
	<circle class="st0" cx="169.5" cy="557.9" r="1.4"/>
	<circle class="st0" cx="177.8" cy="557.9" r="1.4"/>
	<circle class="st0" cx="186" cy="557.9" r="1.4"/>
	<circle class="st0" cx="194.3" cy="557.9" r="1.4"/>
	<circle class="st0" cx="202.5" cy="557.9" r="1.4"/>
	<circle class="st0" cx="210.8" cy="557.9" r="1.4"/>
	<circle class="st0" cx="219" cy="557.9" r="1.4"/>
	<circle class="st0" cx="227.3" cy="557.9" r="1.4"/>
	<circle class="st0" cx="235.5" cy="557.9" r="1.4"/>
	<circle class="st0" cx="243.8" cy="557.9" r="1.4"/>
	<circle class="st0" cx="252" cy="557.9" r="1.4"/>
	<circle class="st0" cx="260.3" cy="557.9" r="1.4"/>
	<circle class="st0" cx="268.5" cy="557.9" r="1.4"/>
	<circle class="st0" cx="276.8" cy="557.9" r="1.4"/>
	<circle class="st0" cx="285" cy="557.9" r="1.4"/>
	<circle class="st0" cx="293.3" cy="557.9" r="1.4"/>
	<circle class="st0" cx="301.5" cy="557.9" r="1.4"/>
	<circle class="st0" cx="309.8" cy="557.9" r="1.4"/>
	<circle class="st0" cx="318" cy="557.9" r="1.4"/>
	<circle class="st0" cx="326.3" cy="557.9" r="1.4"/>
	<circle class="st0" cx="334.5" cy="557.9" r="1.4"/>
	<circle class="st0" cx="342.8" cy="557.9" r="1.4"/>
	<circle class="st0" cx="351" cy="557.9" r="1.4"/>
	<circle class="st0" cx="359.3" cy="557.9" r="1.4"/>
	<circle class="st0" cx="367.5" cy="557.9" r="1.4"/>
	<circle class="st0" cx="375.8" cy="557.9" r="1.4"/>
	<circle class="st0" cx="384" cy="557.9" r="1.4"/>
	<circle class="st0" cx="392.3" cy="557.9" r="1.4"/>
	<circle class="st0" cx="400.5" cy="557.9" r="1.4"/>
	<circle class="st0" cx="408.8" cy="557.9" r="1.4"/>
	<circle class="st0" cx="417" cy="557.9" r="1.4"/>
	<circle class="st0" cx="425.3" cy="557.9" r="1.4"/>
	<circle class="st0" cx="433.5" cy="557.9" r="1.4"/>
	<circle class="st0" cx="441.8" cy="557.9" r="1.4"/>
	<circle class="st0" cx="450" cy="557.9" r="1.4"/>
	<circle class="st0" cx="458.3" cy="557.9" r="1.4"/>
	<circle class="st0" cx="466.5" cy="557.9" r="1.4"/>
	<circle class="st0" cx="474.8" cy="557.9" r="1.4"/>
	<circle class="st0" cx="483" cy="557.9" r="1.4"/>
	<circle class="st0" cx="491.3" cy="557.9" r="1.4"/>
	<circle class="st0" cx="499.5" cy="557.9" r="1.4"/>
	<circle class="st0" cx="507.8" cy="557.9" r="1.4"/>
	<circle class="st0" cx="516" cy="557.9" r="1.4"/>
	<circle class="st0" cx="524.3" cy="557.9" r="1.4"/>
	<circle class="st0" cx="532.5" cy="557.9" r="1.4"/>
	<circle class="st0" cx="540.8" cy="557.9" r="1.4"/>
	<circle class="st0" cx="549" cy="557.9" r="1.4"/>
	<circle class="st0" cx="557.3" cy="557.9" r="1.4"/>
	<circle class="st0" cx="565.5" cy="557.9" r="1.4"/>
	<circle class="st0" cx="573.8" cy="557.9" r="1.4"/>
	<circle class="st0" cx="582" cy="557.9" r="1.4"/>
	<circle class="st0" cx="590.3" cy="557.9" r="1.4"/>
</g>
<g>
	<circle class="st0" cx="12.8" cy="269.5" r="1.4"/>
	<circle class="st0" cx="4" cy="269.5" r="1.4"/>
	<circle class="st0" cx="21" cy="269.5" r="1.4"/>
	<circle class="st0" cx="29.3" cy="269.5" r="1.4"/>
	<circle class="st0" cx="37.5" cy="269.5" r="1.4"/>
	<circle class="st0" cx="45.8" cy="269.5" r="1.4"/>
	<circle class="st0" cx="54" cy="269.5" r="1.4"/>
	<circle class="st0" cx="62.3" cy="269.5" r="1.4"/>
	<circle class="st0" cx="70.5" cy="269.5" r="1.4"/>
	<circle class="st0" cx="78.8" cy="269.5" r="1.4"/>
	<circle class="st0" cx="87" cy="269.5" r="1.4"/>
	<circle class="st0" cx="95.3" cy="269.5" r="1.4"/>
	<circle class="st0" cx="103.5" cy="269.5" r="1.4"/>
	<circle class="st0" cx="111.8" cy="269.5" r="1.4"/>
	<circle class="st0" cx="120" cy="269.5" r="1.4"/>
	<circle class="st0" cx="128.3" cy="269.5" r="1.4"/>
	<circle class="st0" cx="136.5" cy="269.5" r="1.4"/>
	<circle class="st0" cx="144.8" cy="269.5" r="1.4"/>
	<circle class="st0" cx="153" cy="269.5" r="1.4"/>
	<circle class="st0" cx="161.3" cy="269.5" r="1.4"/>
	<circle class="st0" cx="169.5" cy="269.5" r="1.4"/>
	<circle class="st0" cx="177.8" cy="269.5" r="1.4"/>
	<circle class="st0" cx="186" cy="269.5" r="1.4"/>
	<circle class="st0" cx="194.3" cy="269.5" r="1.4"/>
	<circle class="st0" cx="202.5" cy="269.5" r="1.4"/>
	<circle class="st0" cx="210.8" cy="269.5" r="1.4"/>
	<circle class="st0" cx="219" cy="269.5" r="1.4"/>
	<circle class="st0" cx="227.3" cy="269.5" r="1.4"/>
	<circle class="st0" cx="235.5" cy="269.5" r="1.4"/>
	<circle class="st0" cx="243.8" cy="269.5" r="1.4"/>
	<circle class="st0" cx="252" cy="269.5" r="1.4"/>
	<circle class="st0" cx="260.3" cy="269.5" r="1.4"/>
	<circle class="st0" cx="268.5" cy="269.5" r="1.4"/>
	<circle class="st0" cx="276.8" cy="269.5" r="1.4"/>
	<circle class="st0" cx="285" cy="269.5" r="1.4"/>
	<circle class="st0" cx="293.3" cy="269.5" r="1.4"/>
	<circle class="st0" cx="301.5" cy="269.5" r="1.4"/>
	<circle class="st0" cx="309.8" cy="269.5" r="1.4"/>
	<circle class="st0" cx="318" cy="269.5" r="1.4"/>
	<circle class="st0" cx="326.3" cy="269.5" r="1.4"/>
	<circle class="st0" cx="334.5" cy="269.5" r="1.4"/>
	<circle class="st0" cx="342.8" cy="269.5" r="1.4"/>
	<circle class="st0" cx="351" cy="269.5" r="1.4"/>
	<circle class="st0" cx="359.3" cy="269.5" r="1.4"/>
	<circle class="st0" cx="367.5" cy="269.5" r="1.4"/>
	<circle class="st0" cx="375.8" cy="269.5" r="1.4"/>
	<circle class="st0" cx="384" cy="269.5" r="1.4"/>
	<circle class="st0" cx="392.3" cy="269.5" r="1.4"/>
	<circle class="st0" cx="400.5" cy="269.5" r="1.4"/>
	<circle class="st0" cx="408.8" cy="269.5" r="1.4"/>
	<circle class="st0" cx="417" cy="269.5" r="1.4"/>
	<circle class="st0" cx="425.3" cy="269.5" r="1.4"/>
	<circle class="st0" cx="433.5" cy="269.5" r="1.4"/>
	<circle class="st0" cx="441.8" cy="269.5" r="1.4"/>
	<circle class="st0" cx="450" cy="269.5" r="1.4"/>
	<circle class="st0" cx="458.3" cy="269.5" r="1.4"/>
	<circle class="st0" cx="466.5" cy="269.5" r="1.4"/>
	<circle class="st0" cx="474.8" cy="269.5" r="1.4"/>
	<circle class="st0" cx="483" cy="269.5" r="1.4"/>
	<circle class="st0" cx="491.3" cy="269.5" r="1.4"/>
	<circle class="st0" cx="499.5" cy="269.5" r="1.4"/>
	<circle class="st0" cx="507.8" cy="269.5" r="1.4"/>
	<circle class="st0" cx="516" cy="269.5" r="1.4"/>
	<circle class="st0" cx="524.3" cy="269.5" r="1.4"/>
	<circle class="st0" cx="532.5" cy="269.5" r="1.4"/>
	<circle class="st0" cx="540.8" cy="269.5" r="1.4"/>
	<circle class="st0" cx="549" cy="269.5" r="1.4"/>
	<circle class="st0" cx="557.3" cy="269.5" r="1.4"/>
	<circle class="st0" cx="565.5" cy="269.5" r="1.4"/>
	<circle class="st0" cx="573.8" cy="269.5" r="1.4"/>
	<circle class="st0" cx="582" cy="269.5" r="1.4"/>
	<circle class="st0" cx="590.3" cy="269.5" r="1.4"/>
</g>
<g>
	<circle class="st0" cx="4" cy="557.9" r="1.4"/>
</g>
<g>
	<circle class="st0" cx="297.6" cy="9.6" r="1.4"/>
	<circle class="st0" cx="297.6" cy="17.9" r="1.4"/>
	<circle class="st0" cx="297.6" cy="26.1" r="1.4"/>
	<circle class="st0" cx="297.6" cy="34.4" r="1.4"/>
	<circle class="st0" cx="297.6" cy="42.6" r="1.4"/>
	<circle class="st0" cx="297.6" cy="50.9" r="1.4"/>
	<circle class="st0" cx="297.6" cy="59.1" r="1.4"/>
	<circle class="st0" cx="297.6" cy="67.4" r="1.4"/>
	<circle class="st0" cx="297.6" cy="75.6" r="1.4"/>
	<circle class="st0" cx="297.6" cy="83.9" r="1.4"/>
	<circle class="st0" cx="297.6" cy="92.1" r="1.4"/>
	<circle class="st0" cx="297.6" cy="100.4" r="1.4"/>
	<circle class="st0" cx="297.6" cy="108.6" r="1.4"/>
	<circle class="st0" cx="297.6" cy="116.9" r="1.4"/>
	<circle class="st0" cx="297.6" cy="125.1" r="1.4"/>
	<circle class="st0" cx="297.6" cy="133.4" r="1.4"/>
	<circle class="st0" cx="297.6" cy="141.6" r="1.4"/>
	<circle class="st0" cx="297.6" cy="149.9" r="1.4"/>
	<circle class="st0" cx="297.6" cy="158.1" r="1.4"/>
	<circle class="st0" cx="297.6" cy="166.4" r="1.4"/>
	<circle class="st0" cx="297.6" cy="174.6" r="1.4"/>
	<circle class="st0" cx="297.6" cy="182.9" r="1.4"/>
	<circle class="st0" cx="297.6" cy="191.1" r="1.4"/>
	<circle class="st0" cx="297.6" cy="199.4" r="1.4"/>
	<circle class="st0" cx="297.6" cy="207.6" r="1.4"/>
	<circle class="st0" cx="297.6" cy="215.9" r="1.4"/>
	<circle class="st0" cx="297.6" cy="224.1" r="1.4"/>
	<circle class="st0" cx="297.6" cy="232.4" r="1.4"/>
	<circle class="st0" cx="297.6" cy="240.6" r="1.4"/>
	<circle class="st0" cx="297.6" cy="248.9" r="1.4"/>
	<circle class="st0" cx="297.6" cy="257.1" r="1.4"/>
	<circle class="st0" cx="297.6" cy="265.4" r="1.4"/>
	<circle class="st0" cx="297.6" cy="273.6" r="1.4"/>
	<circle class="st0" cx="297.6" cy="281.9" r="1.4"/>
	<circle class="st0" cx="297.6" cy="290.1" r="1.4"/>
	<circle class="st0" cx="297.6" cy="298.4" r="1.4"/>
	<circle class="st0" cx="297.6" cy="306.6" r="1.4"/>
	<circle class="st0" cx="297.6" cy="314.9" r="1.4"/>
	<circle class="st0" cx="297.6" cy="323.1" r="1.4"/>
	<circle class="st0" cx="297.6" cy="331.4" r="1.4"/>
	<circle class="st0" cx="297.6" cy="339.6" r="1.4"/>
	<circle class="st0" cx="297.6" cy="347.9" r="1.4"/>
	<circle class="st0" cx="297.6" cy="356.1" r="1.4"/>
	<circle class="st0" cx="297.6" cy="364.4" r="1.4"/>
	<circle class="st0" cx="297.6" cy="372.6" r="1.4"/>
	<circle class="st0" cx="297.6" cy="380.9" r="1.4"/>
	<circle class="st0" cx="297.6" cy="389.1" r="1.4"/>
	<circle class="st0" cx="297.6" cy="397.4" r="1.4"/>
	<circle class="st0" cx="297.6" cy="405.6" r="1.4"/>
	<circle class="st0" cx="297.6" cy="413.9" r="1.4"/>
	<circle class="st0" cx="297.6" cy="422.1" r="1.4"/>
	<circle class="st0" cx="297.6" cy="430.4" r="1.4"/>
	<circle class="st0" cx="297.6" cy="438.6" r="1.4"/>
	<circle class="st0" cx="297.6" cy="446.9" r="1.4"/>
	<circle class="st0" cx="297.6" cy="455.1" r="1.4"/>
	<circle class="st0" cx="297.6" cy="463.4" r="1.4"/>
	<circle class="st0" cx="297.6" cy="471.6" r="1.4"/>
	<circle class="st0" cx="297.6" cy="479.9" r="1.4"/>
	<circle class="st0" cx="297.6" cy="488.1" r="1.4"/>
	<circle class="st0" cx="297.6" cy="496.4" r="1.4"/>
	<circle class="st0" cx="297.6" cy="504.6" r="1.4"/>
	<circle class="st0" cx="297.6" cy="512.9" r="1.4"/>
	<circle class="st0" cx="297.6" cy="521.1" r="1.4"/>
	<circle class="st0" cx="297.6" cy="529.4" r="1.4"/>
	<circle class="st0" cx="297.6" cy="537.6" r="1.4"/>
	<circle class="st0" cx="297.6" cy="545.9" r="1.4"/>
	<circle class="st0" cx="297.6" cy="554.1" r="1.4"/>
	<circle class="st0" cx="297.6" cy="562.4" r="1.4"/>
	<circle class="st0" cx="297.6" cy="570.6" r="1.4"/>
	<circle class="st0" cx="297.6" cy="578.9" r="1.4"/>
	<circle class="st0" cx="297.6" cy="587.1" r="1.4"/>
	<circle class="st0" cx="297.6" cy="595.4" r="1.4"/>
	<circle class="st0" cx="297.6" cy="603.6" r="1.4"/>
	<circle class="st0" cx="297.6" cy="611.9" r="1.4"/>
	<circle class="st0" cx="297.6" cy="620.1" r="1.4"/>
	<circle class="st0" cx="297.6" cy="628.4" r="1.4"/>
	<circle class="st0" cx="297.6" cy="636.6" r="1.4"/>
	<circle class="st0" cx="297.6" cy="644.9" r="1.4"/>
	<circle class="st0" cx="297.6" cy="653.1" r="1.4"/>
	<circle class="st0" cx="297.6" cy="661.4" r="1.4"/>
	<circle class="st0" cx="297.6" cy="669.6" r="1.4"/>
	<circle class="st0" cx="297.6" cy="677.9" r="1.4"/>
	<circle class="st0" cx="297.6" cy="686.1" r="1.4"/>
	<circle class="st0" cx="297.6" cy="694.4" r="1.4"/>
	<circle class="st0" cx="297.6" cy="702.6" r="1.4"/>
	<circle class="st0" cx="297.6" cy="710.9" r="1.4"/>
	<circle class="st0" cx="297.6" cy="719.1" r="1.4"/>
	<circle class="st0" cx="297.6" cy="727.4" r="1.4"/>
	<circle class="st0" cx="297.6" cy="735.6" r="1.4"/>
	<circle class="st0" cx="297.6" cy="743" r="1.4"/>
	<circle class="st0" cx="297.6" cy="750.4" r="1.4"/>
	<circle class="st0" cx="297.6" cy="757.8" r="1.4"/>
	<circle class="st0" cx="297.6" cy="765.1" r="1.4"/>
	<circle class="st0" cx="297.6" cy="772.5" r="1.4"/>
	<circle class="st0" cx="297.6" cy="779.9" r="1.4"/>
	<circle class="st0" cx="297.6" cy="787.3" r="1.4"/>
	<circle class="st0" cx="297.6" cy="794.6" r="1.4"/>
	<circle class="st0" cx="297.6" cy="802" r="1.4"/>
	<circle class="st0" cx="297.6" cy="809.4" r="1.4"/>
	<circle class="st0" cx="297.6" cy="816.8" r="1.4"/>
	<circle class="st0" cx="297.6" cy="824.1" r="1.4"/>
	<circle class="st0" cx="297.6" cy="831.5" r="1.4"/>
</g>
</svg>
