<?xml version="1.0" encoding="utf-8"?>
<!-- Generator: Adobe Illustrator 22.0.1, SVG Export Plug-In . SVG Version: 6.00 Build 0)  -->
<svg version="1.1" id="Capa_1" xmlns="http://www.w3.org/2000/svg" xmlns:xlink="http://www.w3.org/1999/xlink" x="0px" y="0px"
	 viewBox="0 0 320 8" style="enable-background:new 0 0 320 8;" xml:space="preserve">
<style type="text/css">
	.st0{fill:#211915;}
</style>
<path class="st0" d="M-37.8-453.1"/>
<g>
	<g>
		<g>
			<circle cx="6" cy="4" r="1.2"/>
			<circle cx="13.5" cy="4" r="1.2"/>
			<circle cx="21" cy="4" r="1.2"/>
			<circle cx="28.5" cy="4" r="1.2"/>
			<circle cx="36" cy="4" r="1.2"/>
			<circle cx="43.5" cy="4" r="1.2"/>
		</g>
		<g>
			<circle cx="51.1" cy="4" r="1.2"/>
			<circle cx="58.6" cy="4" r="1.2"/>
			<circle cx="66.1" cy="4" r="1.2"/>
			<circle cx="73.6" cy="4" r="1.2"/>
			<circle cx="81.1" cy="4" r="1.2"/>
			<circle cx="88.6" cy="4" r="1.2"/>
		</g>
	</g>
	<g>
		<g>
			<circle cx="96.1" cy="4" r="1.2"/>
			<circle cx="103.6" cy="4" r="1.2"/>
			<circle cx="111.1" cy="4" r="1.2"/>
			<circle cx="118.6" cy="4" r="1.2"/>
			<circle cx="126.1" cy="4" r="1.2"/>
			<circle cx="133.6" cy="4" r="1.2"/>
		</g>
		<g>
			<circle cx="141.2" cy="4" r="1.2"/>
			<circle cx="148.7" cy="4" r="1.2"/>
			<circle cx="156.2" cy="4" r="1.2"/>
			<circle cx="163.7" cy="4" r="1.2"/>
			<circle cx="171.2" cy="4" r="1.2"/>
			<circle cx="178.7" cy="4" r="1.2"/>
		</g>
	</g>
	<g>
		<g>
			<g>
				<circle cx="186.4" cy="4" r="1.2"/>
				<circle cx="193.9" cy="4" r="1.2"/>
				<circle cx="201.4" cy="4" r="1.2"/>
				<circle cx="208.9" cy="4" r="1.2"/>
				<circle cx="216.4" cy="4" r="1.2"/>
				<circle cx="223.9" cy="4" r="1.2"/>
			</g>
			<g>
				<circle cx="231.4" cy="4" r="1.2"/>
				<circle cx="238.9" cy="4" r="1.2"/>
				<circle cx="246.4" cy="4" r="1.2"/>
				<circle cx="253.9" cy="4" r="1.2"/>
				<circle cx="261.4" cy="4" r="1.2"/>
				<circle cx="268.9" cy="4" r="1.2"/>
			</g>
		</g>
		<g>
			<g>
				<circle cx="276.5" cy="4" r="1.2"/>
				<circle cx="284" cy="4" r="1.2"/>
				<circle cx="291.5" cy="4" r="1.2"/>
				<circle cx="299" cy="4" r="1.2"/>
				<circle cx="306.5" cy="4" r="1.2"/>
				<circle cx="314" cy="4" r="1.2"/>
			</g>
		</g>
	</g>
</g>
</svg>
