<svg xmlns="http://www.w3.org/2000/svg" width="160" height="250" style=""><rect id="backgroundrect" width="53.33333206176758" height="83.33333587646484" x="-0.3333333432674408" y="0" fill="none" stroke="none" class="" style=""/>
 <style type="text/css">.st0{fill:#211915;}</style>

 <g style="">
  <title>background</title>
  <rect fill="none" id="canvas_background" height="322" width="10" y="-1" x="-1"/>
 </g>
 <g style="" class="currentLayer">
  <title>Layer 1</title>
  <path id="svg_1" d="m-37.8,-453.1" class="st0"/>
  
   
   
   
  
   
   
   
  
   
   
   
  
 
    
    
   <g id="svg_18" transform="rotate(89.98453521728516 159.0426025390625,139.84783935546875) " class="">
    <g id="svg_4">
     <circle stroke-dasharray="2,2" id="svg_5" r="0.7431110739707947" cy="139.84799194335938" cx="117.76545715332031"/>
     <circle stroke-dasharray="2,2" id="svg_6" r="0.7431110739707947" cy="139.84799194335938" cx="125.26188659667969"/>
     <circle stroke-dasharray="2,2" id="svg_7" r="0.7431110739707947" cy="139.84799194335938" cx="132.75831604003906"/>
     <circle stroke-dasharray="2,2" id="svg_8" r="0.7431110739707947" cy="139.84799194335938" cx="140.25474548339844"/>
     <circle stroke-dasharray="2,2" id="svg_9" r="0.7431110739707947" cy="139.84799194335938" cx="147.7511749267578"/>
     <circle stroke-dasharray="2,2" id="svg_10" r="0.7431110739707947" cy="139.84799194335938" cx="155.2476043701172"/>
    </g>
    <g id="svg_11">
     <circle stroke-dasharray="2,2" id="svg_12" r="0.7431110739707947" cy="139.84799194335938" cx="162.84397888183594"/>
     <circle stroke-dasharray="2,2" id="svg_13" r="0.7431110739707947" cy="139.84799194335938" cx="170.3404083251953"/>
     <circle stroke-dasharray="2,2" id="svg_14" r="0.7431110739707947" cy="139.84799194335938" cx="177.8368377685547"/>
     <circle stroke-dasharray="2,2" id="svg_15" r="0.7431110739707947" cy="139.84799194335938" cx="185.33323669433594"/>
     <circle stroke-dasharray="2,2" id="svg_16" r="0.7431110739707947" cy="139.84799194335938" cx="192.8296661376953"/>
     <circle stroke-dasharray="2,2" id="svg_17" r="0.7431110739707947" cy="139.84799194335938" cx="200.3260955810547"/>
    </g>
   </g><g transform="rotate(89.98453521728516 159.04270935058594,-10.485598564147955) " class="" id="svg_3">
    <g id="svg_58">
     <circle stroke-dasharray="2,2" id="svg_5" r="0.7431110739707947" cy="-10.485345840454102" cx="117.76546055078506"/>
     <circle stroke-dasharray="2,2" id="svg_6" r="0.7431110739707947" cy="-10.485345840454102" cx="125.26188999414444"/>
     <circle stroke-dasharray="2,2" id="svg_7" r="0.7431110739707947" cy="-10.485345840454102" cx="132.75831943750381"/>
     <circle stroke-dasharray="2,2" id="svg_8" r="0.7431110739707947" cy="-10.485345840454102" cx="140.2547488808632"/>
     <circle stroke-dasharray="2,2" id="svg_9" r="0.7431110739707947" cy="-10.485345840454102" cx="147.75117832422256"/>
     <circle stroke-dasharray="2,2" id="svg_10" r="0.7431110739707947" cy="-10.485345840454102" cx="155.24760776758194"/>
    </g>
    <g id="svg_62">
     <circle stroke-dasharray="2,2" id="svg_12" r="0.7431110739707947" cy="-10.485345840454102" cx="162.8439822793007"/>
     <circle stroke-dasharray="2,2" id="svg_13" r="0.7431110739707947" cy="-10.485345840454102" cx="170.34041172266006"/>
     <circle stroke-dasharray="2,2" id="svg_14" r="0.7431110739707947" cy="-10.485345840454102" cx="177.83684116601944"/>
     <circle stroke-dasharray="2,2" id="svg_15" r="0.7431110739707947" cy="-10.485345840454102" cx="185.3332400918007"/>
     <circle stroke-dasharray="2,2" id="svg_16" r="0.7431110739707947" cy="-10.485345840454102" cx="192.82966953516006"/>
     <circle stroke-dasharray="2,2" id="svg_17" r="0.7431110739707947" cy="-10.485345840454102" cx="200.32609897851944"/>
    </g>
   </g><g transform="rotate(89.98453521728516 158.9640350341797,57.08475875854494) " class="" id="svg_65">
    <g id="svg_67">
     <circle stroke-dasharray="2,2" id="svg_5" r="0.7431110739707947" cy="57.08298110961914" cx="117.68666076660156"/>
     <circle stroke-dasharray="2,2" id="svg_6" r="0.7431110739707947" cy="57.08298110961914" cx="125.18309020996094"/>
     <circle stroke-dasharray="2,2" id="svg_7" r="0.7431110739707947" cy="57.08298110961914" cx="132.6795196533203"/>
     <circle stroke-dasharray="2,2" id="svg_8" r="0.7431110739707947" cy="57.08298110961914" cx="140.1759490966797"/>
     <circle stroke-dasharray="2,2" id="svg_9" r="0.7431110739707947" cy="57.08298110961914" cx="147.67237854003906"/>
     <circle stroke-dasharray="2,2" id="svg_10" r="0.7431110739707947" cy="57.08298110961914" cx="155.16880798339844"/>
    </g>
    <g id="svg_69">
     <circle stroke-dasharray="2,2" id="svg_12" r="0.7431110739707947" cy="57.08298110961914" cx="162.7651824951172"/>
     <circle stroke-dasharray="2,2" id="svg_13" r="0.7431110739707947" cy="57.08298110961914" cx="170.26161193847656"/>
     <circle stroke-dasharray="2,2" id="svg_14" r="0.7431110739707947" cy="57.08298110961914" cx="177.75804138183594"/>
     <circle stroke-dasharray="2,2" id="svg_15" r="0.7431110739707947" cy="57.08298110961914" cx="185.2544403076172"/>
     <circle stroke-dasharray="2,2" id="svg_16" r="0.7431110739707947" cy="57.08298110961914" cx="192.75086975097656"/>
     <circle stroke-dasharray="2,2" id="svg_17" r="0.7431110739707947" cy="57.08298110961914" cx="200.24729919433594"/>
    </g>
   </g>
    
    
   <g transform="rotate(89.98453521728516 158.96392822265625,207.417236328125) " class="" id="svg_74">
    <g id="svg_76">
     <circle stroke-dasharray="2,2" id="svg_5" r="0.7431110739707947" cy="207.41632080078125" cx="117.68666076660156"/>
     <circle stroke-dasharray="2,2" id="svg_6" r="0.7431110739707947" cy="207.41632080078125" cx="125.18309020996094"/>
     <circle stroke-dasharray="2,2" id="svg_7" r="0.7431110739707947" cy="207.41632080078125" cx="132.6795196533203"/>
     <circle stroke-dasharray="2,2" id="svg_8" r="0.7431110739707947" cy="207.41632080078125" cx="140.1759490966797"/>
     <circle stroke-dasharray="2,2" id="svg_9" r="0.7431110739707947" cy="207.41632080078125" cx="147.67237854003906"/>
     <circle stroke-dasharray="2,2" id="svg_10" r="0.7431110739707947" cy="207.41632080078125" cx="155.16880798339844"/>
    </g>
    <g id="svg_78">
     <circle stroke-dasharray="2,2" id="svg_12" r="0.7431110739707947" cy="207.41632080078125" cx="162.7651824951172"/>
     <circle stroke-dasharray="2,2" id="svg_13" r="0.7431110739707947" cy="207.41632080078125" cx="170.26161193847656"/>
     <circle stroke-dasharray="2,2" id="svg_14" r="0.7431110739707947" cy="207.41632080078125" cx="177.75804138183594"/>
     <circle stroke-dasharray="2,2" id="svg_15" r="0.7431110739707947" cy="207.41632080078125" cx="185.2544403076172"/>
     <circle stroke-dasharray="2,2" id="svg_16" r="0.7431110739707947" cy="207.41632080078125" cx="192.75086975097656"/>
     <circle stroke-dasharray="2,2" id="svg_17" r="0.7431110739707947" cy="207.41632080078125" cx="200.24729919433594"/>
    </g>
   </g><rect fill="#fbd300" stroke-dashoffset="" fill-rule="nonzero" id="svg_71" x="156.95237731933594" y="-69.28571439173375" width="4" height="71.8095235824585" style="color: rgb(251, 211, 0);" class="" fill-opacity="1"/></g>
</svg>