<svg xmlns="http://www.w3.org/2000/svg" width="240" height="250" style=""><rect id="backgroundrect" width="100%" height="100%" x="0" y="0" fill="none" stroke="none" class="" style=""/>
 <style type="text/css">.st0{fill:#211915;}</style>

 <g style="">
  <title>background</title>
  <rect fill="none" id="canvas_background" height="322" width="10" y="-1" x="-1"/>
 </g>
 <g style="" class="currentLayer">
  <title>Layer 1</title>
  <path id="svg_1" d="m-37.8,-453.1" class="st0"/>
  
   
   
   
  <g transform="rotate(0.03933641314506531 79.21024322507584,248.87637329101858) " class="" id="svg_57">
   <g id="svg_59">
    <g id="svg_4">
     <circle stroke-dasharray="2,2" id="svg_5" r="0.7431110739707947" cy="248.9061279296875" cx="-74.06407165527344"/>
     <circle stroke-dasharray="2,2" id="svg_6" r="0.7431110739707947" cy="248.9061279296875" cx="-66.56764221191406"/>
     <circle stroke-dasharray="2,2" id="svg_7" r="0.7431110739707947" cy="248.9061279296875" cx="-59.07122039794922"/>
     <circle stroke-dasharray="2,2" id="svg_8" r="0.7431110739707947" cy="248.9061279296875" cx="-51.57479476928711"/>
     <circle stroke-dasharray="2,2" id="svg_9" r="0.7431110739707947" cy="248.9061279296875" cx="-44.07836151123047"/>
     <circle stroke-dasharray="2,2" id="svg_10" r="0.7431110739707947" cy="248.9061279296875" cx="-36.581932067871094"/>
    </g>
    <g id="svg_11">
     <circle stroke-dasharray="2,2" id="svg_12" r="0.7431110739707947" cy="248.9061279296875" cx="-28.985549926757812"/>
     <circle stroke-dasharray="2,2" id="svg_13" r="0.7431110739707947" cy="248.9061279296875" cx="-21.489120483398438"/>
     <circle stroke-dasharray="2,2" id="svg_14" r="0.7431110739707947" cy="248.9061279296875" cx="-13.99270248413086"/>
     <circle stroke-dasharray="2,2" id="svg_15" r="0.7431110739707947" cy="248.9061279296875" cx="-6.49627685546875"/>
     <circle stroke-dasharray="2,2" id="svg_16" r="0.7431110739707947" cy="248.9061279296875" cx="1.0001524686813354"/>
     <circle stroke-dasharray="2,2" id="svg_17" r="0.7431110739707947" cy="248.9061279296875" cx="8.49658203125"/>
    </g>
   </g>
   <g id="svg_61">
    <g id="svg_19" class="">
     <circle stroke-dasharray="2,2" id="svg_20" r="0.7431110739707947" cy="248.84423828125" cx="14.688468933105469"/>
     <circle stroke-dasharray="2,2" id="svg_21" r="0.7431110739707947" cy="248.84423828125" cx="22.184906005859375"/>
     <circle stroke-dasharray="2,2" id="svg_22" r="0.7431110739707947" cy="248.84423828125" cx="29.68132781982422"/>
     <circle stroke-dasharray="2,2" id="svg_23" r="0.7431110739707947" cy="248.84423828125" cx="37.177734375"/>
     <circle stroke-dasharray="2,2" id="svg_24" r="0.7431110739707947" cy="248.84423828125" cx="44.674171447753906"/>
     <circle stroke-dasharray="2,2" id="svg_25" r="0.7431110739707947" cy="248.84423828125" cx="52.170616149902344"/>
    </g>
    <g id="svg_26" class="">
     <circle stroke-dasharray="2,2" id="svg_27" r="0.7431110739707947" cy="248.84423828125" cx="59.76697540283203"/>
     <circle stroke-dasharray="2,2" id="svg_28" r="0.7431110739707947" cy="248.84423828125" cx="67.2634048461914"/>
     <circle stroke-dasharray="2,2" id="svg_29" r="0.7431110739707947" cy="248.84423828125" cx="74.75984954833984"/>
     <circle stroke-dasharray="2,2" id="svg_30" r="0.7431110739707947" cy="248.84423828125" cx="82.25626373291016"/>
     <circle stroke-dasharray="2,2" id="svg_31" r="0.7431110739707947" cy="248.84423828125" cx="89.75269317626953"/>
     <circle stroke-dasharray="2,2" id="svg_32" r="0.7431110739707947" cy="248.84423828125" cx="97.2491226196289"/>
    </g>
   </g>
   <g id="svg_63">
    <g id="svg_34">
     <g id="svg_35">
      <circle stroke-dasharray="2,2" id="svg_36" r="0.7431110739707947" cy="248.84423828125" cx="104.94547271728516"/>
      <circle stroke-dasharray="2,2" id="svg_37" r="0.7431110739707947" cy="248.84423828125" cx="112.44190216064453"/>
      <circle stroke-dasharray="2,2" id="svg_38" r="0.7431110739707947" cy="248.84423828125" cx="119.93831634521484"/>
      <circle stroke-dasharray="2,2" id="svg_39" r="0.7431110739707947" cy="248.84423828125" cx="127.43474578857422"/>
      <circle stroke-dasharray="2,2" id="svg_40" r="0.7431110739707947" cy="248.84423828125" cx="134.93116760253906"/>
      <circle stroke-dasharray="2,2" id="svg_41" r="0.7431110739707947" cy="248.84423828125" cx="142.42758178710938"/>
     </g>
     <g id="svg_42">
      <circle stroke-dasharray="2,2" id="svg_43" r="0.7431110739707947" cy="248.84423828125" cx="149.9240264892578"/>
      <circle stroke-dasharray="2,2" id="svg_44" r="0.7431110739707947" cy="248.84423828125" cx="157.4204559326172"/>
      <circle stroke-dasharray="2,2" id="svg_45" r="0.7431110739707947" cy="248.84423828125" cx="164.9168701171875"/>
      <circle stroke-dasharray="2,2" id="svg_46" r="0.7431110739707947" cy="248.84423828125" cx="172.41331481933594"/>
      <circle stroke-dasharray="2,2" id="svg_47" r="0.7431110739707947" cy="248.84423828125" cx="179.90972900390625"/>
      <circle stroke-dasharray="2,2" id="svg_48" r="0.7431110739707947" cy="248.84423828125" cx="187.40615844726562"/>
     </g>
    </g>
    <g id="svg_49">
     <g id="svg_50">
      <circle stroke-dasharray="2,2" id="svg_51" r="0.7431110739707947" cy="248.84423828125" cx="195.00253295898438"/>
      <circle stroke-dasharray="2,2" id="svg_52" r="0.7431110739707947" cy="248.84423828125" cx="202.49896240234375"/>
      <circle stroke-dasharray="2,2" id="svg_53" r="0.7431110739707947" cy="248.84423828125" cx="209.995361328125"/>
      <circle stroke-dasharray="2,2" id="svg_54" r="0.7431110739707947" cy="248.84423828125" cx="217.49179077148438"/>
      <circle stroke-dasharray="2,2" id="svg_55" r="0.7431110739707947" cy="248.84423828125" cx="224.98822021484375"/>
      <circle stroke-dasharray="2,2" id="svg_56" r="0.7431110739707947" cy="248.84423828125" cx="232.48464965820312"/>
     </g>
    </g>
   </g>
  </g>
   
   
   
  
   
   
   
  
 
    
    
   <g id="svg_18" transform="rotate(89.98453521728516 238.09118652343747,139.84783935546878) " class="">
    <g id="svg_4">
     <circle stroke-dasharray="2,2" id="svg_5" r="0.7431110739707947" cy="139.84799194335938" cx="196.81307983398438"/>
     <circle stroke-dasharray="2,2" id="svg_6" r="0.7431110739707947" cy="139.84799194335938" cx="204.30950927734375"/>
     <circle stroke-dasharray="2,2" id="svg_7" r="0.7431110739707947" cy="139.84799194335938" cx="211.80593872070312"/>
     <circle stroke-dasharray="2,2" id="svg_8" r="0.7431110739707947" cy="139.84799194335938" cx="219.3023681640625"/>
     <circle stroke-dasharray="2,2" id="svg_9" r="0.7431110739707947" cy="139.84799194335938" cx="226.79879760742188"/>
     <circle stroke-dasharray="2,2" id="svg_10" r="0.7431110739707947" cy="139.84799194335938" cx="234.29522705078125"/>
    </g>
    <g id="svg_11">
     <circle stroke-dasharray="2,2" id="svg_12" r="0.7431110739707947" cy="139.84799194335938" cx="241.8916015625"/>
     <circle stroke-dasharray="2,2" id="svg_13" r="0.7431110739707947" cy="139.84799194335938" cx="249.38803100585938"/>
     <circle stroke-dasharray="2,2" id="svg_14" r="0.7431110739707947" cy="139.84799194335938" cx="256.88446044921875"/>
     <circle stroke-dasharray="2,2" id="svg_15" r="0.7431110739707947" cy="139.84799194335938" cx="264.380859375"/>
     <circle stroke-dasharray="2,2" id="svg_16" r="0.7431110739707947" cy="139.84799194335938" cx="271.8772888183594"/>
     <circle stroke-dasharray="2,2" id="svg_17" r="0.7431110739707947" cy="139.84799194335938" cx="279.37371826171875"/>
    </g>
   </g><g transform="rotate(89.98453521728516 238.09129333496094,-10.48559856414794) " class="" id="svg_3">
    <g id="svg_58">
     <circle stroke-dasharray="2,2" id="svg_5" r="0.7431110739707947" cy="-10.485346227884293" cx="196.8130794763565"/>
     <circle stroke-dasharray="2,2" id="svg_6" r="0.7431110739707947" cy="-10.485346227884293" cx="204.30950891971588"/>
     <circle stroke-dasharray="2,2" id="svg_7" r="0.7431110739707947" cy="-10.485346227884293" cx="211.80593836307526"/>
     <circle stroke-dasharray="2,2" id="svg_8" r="0.7431110739707947" cy="-10.485346227884293" cx="219.30236780643463"/>
     <circle stroke-dasharray="2,2" id="svg_9" r="0.7431110739707947" cy="-10.485346227884293" cx="226.798797249794"/>
     <circle stroke-dasharray="2,2" id="svg_10" r="0.7431110739707947" cy="-10.485346227884293" cx="234.29522669315338"/>
    </g>
    <g id="svg_62">
     <circle stroke-dasharray="2,2" id="svg_12" r="0.7431110739707947" cy="-10.485346227884293" cx="241.89160120487213"/>
     <circle stroke-dasharray="2,2" id="svg_13" r="0.7431110739707947" cy="-10.485346227884293" cx="249.3880306482315"/>
     <circle stroke-dasharray="2,2" id="svg_14" r="0.7431110739707947" cy="-10.485346227884293" cx="256.8844600915909"/>
     <circle stroke-dasharray="2,2" id="svg_15" r="0.7431110739707947" cy="-10.485346227884293" cx="264.38085901737213"/>
     <circle stroke-dasharray="2,2" id="svg_16" r="0.7431110739707947" cy="-10.485346227884293" cx="271.8772884607315"/>
     <circle stroke-dasharray="2,2" id="svg_17" r="0.7431110739707947" cy="-10.485346227884293" cx="279.3737179040909"/>
    </g>
   </g><g transform="rotate(89.98453521728516 238.0126190185547,57.084758758544965) " class="" id="svg_65">
    <g id="svg_67">
     <circle stroke-dasharray="2,2" id="svg_5" r="0.7431110739707947" cy="57.08298262953758" cx="196.73428308963776"/>
     <circle stroke-dasharray="2,2" id="svg_6" r="0.7431110739707947" cy="57.08298262953758" cx="204.23071253299713"/>
     <circle stroke-dasharray="2,2" id="svg_7" r="0.7431110739707947" cy="57.08298262953758" cx="211.7271419763565"/>
     <circle stroke-dasharray="2,2" id="svg_8" r="0.7431110739707947" cy="57.08298262953758" cx="219.22357141971588"/>
     <circle stroke-dasharray="2,2" id="svg_9" r="0.7431110739707947" cy="57.08298262953758" cx="226.72000086307526"/>
     <circle stroke-dasharray="2,2" id="svg_10" r="0.7431110739707947" cy="57.08298262953758" cx="234.21643030643463"/>
    </g>
    <g id="svg_69">
     <circle stroke-dasharray="2,2" id="svg_12" r="0.7431110739707947" cy="57.08298262953758" cx="241.81280481815338"/>
     <circle stroke-dasharray="2,2" id="svg_13" r="0.7431110739707947" cy="57.08298262953758" cx="249.30923426151276"/>
     <circle stroke-dasharray="2,2" id="svg_14" r="0.7431110739707947" cy="57.08298262953758" cx="256.80566370487213"/>
     <circle stroke-dasharray="2,2" id="svg_15" r="0.7431110739707947" cy="57.08298262953758" cx="264.3020626306534"/>
     <circle stroke-dasharray="2,2" id="svg_16" r="0.7431110739707947" cy="57.08298262953758" cx="271.79849207401276"/>
     <circle stroke-dasharray="2,2" id="svg_17" r="0.7431110739707947" cy="57.08298262953758" cx="279.29492151737213"/>
    </g>
   </g>
    
    
   <g transform="rotate(89.98453521728516 238.01251220703128,207.41723632812503) " class="" id="svg_74">
    <g id="svg_76">
     <circle stroke-dasharray="2,2" id="svg_5" r="0.7431110739707947" cy="207.41632080078125" cx="196.73428344726562"/>
     <circle stroke-dasharray="2,2" id="svg_6" r="0.7431110739707947" cy="207.41632080078125" cx="204.230712890625"/>
     <circle stroke-dasharray="2,2" id="svg_7" r="0.7431110739707947" cy="207.41632080078125" cx="211.72714233398438"/>
     <circle stroke-dasharray="2,2" id="svg_8" r="0.7431110739707947" cy="207.41632080078125" cx="219.22357177734375"/>
     <circle stroke-dasharray="2,2" id="svg_9" r="0.7431110739707947" cy="207.41632080078125" cx="226.72000122070312"/>
     <circle stroke-dasharray="2,2" id="svg_10" r="0.7431110739707947" cy="207.41632080078125" cx="234.2164306640625"/>
    </g>
    <g id="svg_78">
     <circle stroke-dasharray="2,2" id="svg_12" r="0.7431110739707947" cy="207.41632080078125" cx="241.81280517578125"/>
     <circle stroke-dasharray="2,2" id="svg_13" r="0.7431110739707947" cy="207.41632080078125" cx="249.30923461914062"/>
     <circle stroke-dasharray="2,2" id="svg_14" r="0.7431110739707947" cy="207.41632080078125" cx="256.8056640625"/>
     <circle stroke-dasharray="2,2" id="svg_15" r="0.7431110739707947" cy="207.41632080078125" cx="264.30206298828125"/>
     <circle stroke-dasharray="2,2" id="svg_16" r="0.7431110739707947" cy="207.41632080078125" cx="271.7984924316406"/>
     <circle stroke-dasharray="2,2" id="svg_17" r="0.7431110739707947" cy="207.41632080078125" cx="279.294921875"/>
    </g>
   </g></g>
</svg>