<svg xmlns="http://www.w3.org/2000/svg" width="315" height="152" style=""><rect id="backgroundrect" width="100%" height="100%" x="0" y="0" fill="none" stroke="none" class="" style=""/>
 <style type="text/css">.st0{fill:#211915;}</style>

 <g style="">
  <title>background</title>
  <rect fill="none" id="canvas_background" height="322" width="10" y="-1" x="-1"/>
 </g>
 <g style="" class="currentLayer">
  <title>Layer 1</title>
  <path id="svg_1" d="m-37.8,-453.1" class="st0"/>
  
   
   
   
  <g transform="rotate(0.03933641314506531 154.9549713135216,151.42837524414117) " class="" id="svg_57">
   <g id="svg_59">
    <g id="svg_4">
     <circle stroke-dasharray="2,2" id="svg_5" r="0.7431110739707947" cy="151.45932006835938" cx="1.6806108951568604"/>
     <circle stroke-dasharray="2,2" id="svg_6" r="0.7431110739707947" cy="151.45932006835938" cx="9.177037239074707"/>
     <circle stroke-dasharray="2,2" id="svg_7" r="0.7431110739707947" cy="151.45932006835938" cx="16.673463821411133"/>
     <circle stroke-dasharray="2,2" id="svg_8" r="0.7431110739707947" cy="151.45932006835938" cx="24.169889450073242"/>
     <circle stroke-dasharray="2,2" id="svg_9" r="0.7431110739707947" cy="151.45932006835938" cx="31.66632080078125"/>
     <circle stroke-dasharray="2,2" id="svg_10" r="0.7431110739707947" cy="151.45932006835938" cx="39.162750244140625"/>
    </g>
    <g id="svg_11">
     <circle stroke-dasharray="2,2" id="svg_12" r="0.7431110739707947" cy="151.45932006835938" cx="46.759132385253906"/>
     <circle stroke-dasharray="2,2" id="svg_13" r="0.7431110739707947" cy="151.45932006835938" cx="54.25556182861328"/>
     <circle stroke-dasharray="2,2" id="svg_14" r="0.7431110739707947" cy="151.45932006835938" cx="61.75197982788086"/>
     <circle stroke-dasharray="2,2" id="svg_15" r="0.7431110739707947" cy="151.45932006835938" cx="69.24840545654297"/>
     <circle stroke-dasharray="2,2" id="svg_16" r="0.7431110739707947" cy="151.45932006835938" cx="76.74483489990234"/>
     <circle stroke-dasharray="2,2" id="svg_17" r="0.7431110739707947" cy="151.45932006835938" cx="84.24126434326172"/>
    </g>
   </g>
   <g id="svg_61">
    <g id="svg_19" class="">
     <circle stroke-dasharray="2,2" id="svg_20" r="0.7431110739707947" cy="151.39743041992188" cx="90.43315124511719"/>
     <circle stroke-dasharray="2,2" id="svg_21" r="0.7431110739707947" cy="151.39743041992188" cx="97.9295883178711"/>
     <circle stroke-dasharray="2,2" id="svg_22" r="0.7431110739707947" cy="151.39743041992188" cx="105.42601013183594"/>
     <circle stroke-dasharray="2,2" id="svg_23" r="0.7431110739707947" cy="151.39743041992188" cx="112.92241668701172"/>
     <circle stroke-dasharray="2,2" id="svg_24" r="0.7431110739707947" cy="151.39743041992188" cx="120.41885375976562"/>
     <circle stroke-dasharray="2,2" id="svg_25" r="0.7431110739707947" cy="151.39743041992188" cx="127.91529846191406"/>
    </g>
    <g id="svg_26" class="">
     <circle stroke-dasharray="2,2" id="svg_27" r="0.7431110739707947" cy="151.39743041992188" cx="135.51165771484375"/>
     <circle stroke-dasharray="2,2" id="svg_28" r="0.7431110739707947" cy="151.39743041992188" cx="143.00808715820312"/>
     <circle stroke-dasharray="2,2" id="svg_29" r="0.7431110739707947" cy="151.39743041992188" cx="150.50453186035156"/>
     <circle stroke-dasharray="2,2" id="svg_30" r="0.7431110739707947" cy="151.39743041992188" cx="158.00094604492188"/>
     <circle stroke-dasharray="2,2" id="svg_31" r="0.7431110739707947" cy="151.39743041992188" cx="165.49737548828125"/>
     <circle stroke-dasharray="2,2" id="svg_32" r="0.7431110739707947" cy="151.39743041992188" cx="172.99380493164062"/>
    </g>
   </g>
   <g id="svg_63">
    <g id="svg_34">
     <g id="svg_35">
      <circle stroke-dasharray="2,2" id="svg_36" r="0.7431110739707947" cy="151.39743041992188" cx="180.69015502929688"/>
      <circle stroke-dasharray="2,2" id="svg_37" r="0.7431110739707947" cy="151.39743041992188" cx="188.18658447265625"/>
      <circle stroke-dasharray="2,2" id="svg_38" r="0.7431110739707947" cy="151.39743041992188" cx="195.68299865722656"/>
      <circle stroke-dasharray="2,2" id="svg_39" r="0.7431110739707947" cy="151.39743041992188" cx="203.17942810058594"/>
      <circle stroke-dasharray="2,2" id="svg_40" r="0.7431110739707947" cy="151.39743041992188" cx="210.6758575439453"/>
      <circle stroke-dasharray="2,2" id="svg_41" r="0.7431110739707947" cy="151.39743041992188" cx="218.17227172851562"/>
     </g>
     <g id="svg_42">
      <circle stroke-dasharray="2,2" id="svg_43" r="0.7431110739707947" cy="151.39743041992188" cx="225.66871643066406"/>
      <circle stroke-dasharray="2,2" id="svg_44" r="0.7431110739707947" cy="151.39743041992188" cx="233.16514587402344"/>
      <circle stroke-dasharray="2,2" id="svg_45" r="0.7431110739707947" cy="151.39743041992188" cx="240.66156005859375"/>
      <circle stroke-dasharray="2,2" id="svg_46" r="0.7431110739707947" cy="151.39743041992188" cx="248.1580047607422"/>
      <circle stroke-dasharray="2,2" id="svg_47" r="0.7431110739707947" cy="151.39743041992188" cx="255.6544189453125"/>
      <circle stroke-dasharray="2,2" id="svg_48" r="0.7431110739707947" cy="151.39743041992188" cx="263.1508483886719"/>
     </g>
    </g>
    <g id="svg_49">
     <g id="svg_50">
      <circle stroke-dasharray="2,2" id="svg_51" r="0.7431110739707947" cy="151.39743041992188" cx="270.7472229003906"/>
      <circle stroke-dasharray="2,2" id="svg_52" r="0.7431110739707947" cy="151.39743041992188" cx="278.24365234375"/>
      <circle stroke-dasharray="2,2" id="svg_53" r="0.7431110739707947" cy="151.39743041992188" cx="285.74005126953125"/>
      <circle stroke-dasharray="2,2" id="svg_54" r="0.7431110739707947" cy="151.39743041992188" cx="293.2364807128906"/>
      <circle stroke-dasharray="2,2" id="svg_55" r="0.7431110739707947" cy="151.39743041992188" cx="300.73291015625"/>
      <circle stroke-dasharray="2,2" id="svg_56" r="0.7431110739707947" cy="151.39743041992188" cx="308.2293395996094"/>
     </g>
    </g>
   </g>
  </g>
   
   
   
  
   
   
   
  
 
    
    
   <g class="" id="svg_2"><g id="svg_18" transform="rotate(89.98453521728516 313.8367919921875,42.40119171142584) " class="">
    <g id="svg_4">
     <circle stroke-dasharray="2,2" id="svg_5" r="0.7431110739707947" cy="42.40118408203125" cx="272.5577697753906"/>
     <circle stroke-dasharray="2,2" id="svg_6" r="0.7431110739707947" cy="42.40118408203125" cx="280.05419921875"/>
     <circle stroke-dasharray="2,2" id="svg_7" r="0.7431110739707947" cy="42.40118408203125" cx="287.5506286621094"/>
     <circle stroke-dasharray="2,2" id="svg_8" r="0.7431110739707947" cy="42.40118408203125" cx="295.04705810546875"/>
     <circle stroke-dasharray="2,2" id="svg_9" r="0.7431110739707947" cy="42.40118408203125" cx="302.5434875488281"/>
     <circle stroke-dasharray="2,2" id="svg_10" r="0.7431110739707947" cy="42.40118408203125" cx="310.0399169921875"/>
    </g>
    <g id="svg_11">
     <circle stroke-dasharray="2,2" id="svg_12" r="0.7431110739707947" cy="42.40118408203125" cx="317.63629150390625"/>
     <circle stroke-dasharray="2,2" id="svg_13" r="0.7431110739707947" cy="42.40118408203125" cx="325.1327209472656"/>
     <circle stroke-dasharray="2,2" id="svg_14" r="0.7431110739707947" cy="42.40118408203125" cx="332.629150390625"/>
     <circle stroke-dasharray="2,2" id="svg_15" r="0.7431110739707947" cy="42.40118408203125" cx="340.12554931640625"/>
     <circle stroke-dasharray="2,2" id="svg_16" r="0.7431110739707947" cy="42.40118408203125" cx="347.6219787597656"/>
     <circle stroke-dasharray="2,2" id="svg_17" r="0.7431110739707947" cy="42.40118408203125" cx="355.118408203125"/>
    </g>
   </g><g transform="rotate(89.98453521728516 313.75811767578125,109.96955871582034) " class="" id="svg_74">
    <g id="svg_76">
     <circle stroke-dasharray="2,2" id="svg_5" r="0.7431110739707947" cy="109.9695053100586" cx="272.4789733886719"/>
     <circle stroke-dasharray="2,2" id="svg_6" r="0.7431110739707947" cy="109.9695053100586" cx="279.97540283203125"/>
     <circle stroke-dasharray="2,2" id="svg_7" r="0.7431110739707947" cy="109.9695053100586" cx="287.4718322753906"/>
     <circle stroke-dasharray="2,2" id="svg_8" r="0.7431110739707947" cy="109.9695053100586" cx="294.96826171875"/>
     <circle stroke-dasharray="2,2" id="svg_9" r="0.7431110739707947" cy="109.9695053100586" cx="302.4646911621094"/>
     <circle stroke-dasharray="2,2" id="svg_10" r="0.7431110739707947" cy="109.9695053100586" cx="309.96112060546875"/>
    </g>
    <g id="svg_78">
     <circle stroke-dasharray="2,2" id="svg_12" r="0.7431110739707947" cy="109.9695053100586" cx="317.5574951171875"/>
     <circle stroke-dasharray="2,2" id="svg_13" r="0.7431110739707947" cy="109.9695053100586" cx="325.0539245605469"/>
     <circle stroke-dasharray="2,2" id="svg_14" r="0.7431110739707947" cy="109.9695053100586" cx="332.55035400390625"/>
     <circle stroke-dasharray="2,2" id="svg_15" r="0.7431110739707947" cy="109.9695053100586" cx="340.0467529296875"/>
     <circle stroke-dasharray="2,2" id="svg_16" r="0.7431110739707947" cy="109.9695053100586" cx="347.5431823730469"/>
     <circle stroke-dasharray="2,2" id="svg_17" r="0.7431110739707947" cy="109.9695053100586" cx="355.03961181640625"/>
    </g>
   </g></g></g>
</svg>