<svg xmlns="http://www.w3.org/2000/svg" width="397" height="64" style=""><rect id="backgroundrect" width="100%" height="100%" x="0" y="0" fill="none" stroke="none" class="" style=""/>
 <style type="text/css">.st0{fill:#211915;}</style>

 <g style="">
  <title>background</title>
  <rect fill="none" id="canvas_background" height="322" width="10" y="-1" x="-1"/>
 </g>
 <g style="" class="currentLayer">
  <title>Layer 1</title>
  <path id="svg_1" d="m-37.8,-453.1" class="st0"/>
  
   
   
   
  
   
   
   
  
   
   
   
  
   
   
   
  
 
    
    
   <g class="selected"><g id="svg_59" transform="rotate(0.03933641314506531 56.881111145053445,62.22872161864683) " class="">
    <g id="svg_4">
     <circle stroke-dasharray="2,2" id="svg_5" r="0.7431110739707947" cy="62.228719010949135" cx="15.600806557363285"/>
     <circle stroke-dasharray="2,2" id="svg_6" r="0.7431110739707947" cy="62.228719010949135" cx="23.09723290128113"/>
     <circle stroke-dasharray="2,2" id="svg_7" r="0.7431110739707947" cy="62.228719010949135" cx="30.593659483617557"/>
     <circle stroke-dasharray="2,2" id="svg_8" r="0.7431110739707947" cy="62.228719010949135" cx="38.09008511227967"/>
     <circle stroke-dasharray="2,2" id="svg_9" r="0.7431110739707947" cy="62.228719010949135" cx="45.586516462987674"/>
     <circle stroke-dasharray="2,2" id="svg_10" r="0.7431110739707947" cy="62.228719010949135" cx="53.08294590634705"/>
    </g>
    <g id="svg_11">
     <circle stroke-dasharray="2,2" id="svg_12" r="0.7431110739707947" cy="62.228719010949135" cx="60.67932804746033"/>
     <circle stroke-dasharray="2,2" id="svg_13" r="0.7431110739707947" cy="62.228719010949135" cx="68.1757574908197"/>
     <circle stroke-dasharray="2,2" id="svg_14" r="0.7431110739707947" cy="62.228719010949135" cx="75.67217549008728"/>
     <circle stroke-dasharray="2,2" id="svg_15" r="0.7431110739707947" cy="62.228719010949135" cx="83.1686011187494"/>
     <circle stroke-dasharray="2,2" id="svg_16" r="0.7431110739707947" cy="62.228719010949135" cx="90.66503056210877"/>
     <circle stroke-dasharray="2,2" id="svg_17" r="0.7431110739707947" cy="62.228719010949135" cx="98.16146000546814"/>
    </g>
   </g><g transform="rotate(0.03933641314506531 49.31358337401703,62.22869873047094) " class="" id="svg_66">
    <g id="svg_68">
     <circle stroke-dasharray="2,2" id="svg_5" r="0.7431110739707947" cy="62.22871972620487" cx="8.033240043348087"/>
     <circle stroke-dasharray="2,2" id="svg_6" r="0.7431110739707947" cy="62.22871972620487" cx="15.529666387265934"/>
     <circle stroke-dasharray="2,2" id="svg_7" r="0.7431110739707947" cy="62.22871972620487" cx="23.02609296960236"/>
     <circle stroke-dasharray="2,2" id="svg_8" r="0.7431110739707947" cy="62.22871972620487" cx="30.52251859826447"/>
     <circle stroke-dasharray="2,2" id="svg_9" r="0.7431110739707947" cy="62.22871972620487" cx="38.01894994897248"/>
     <circle stroke-dasharray="2,2" id="svg_10" r="0.7431110739707947" cy="62.22871972620487" cx="45.51537939233185"/>
    </g>
    <g id="svg_70">
     <circle stroke-dasharray="2,2" id="svg_12" r="0.7431110739707947" cy="62.22871972620487" cx="53.11176153344513"/>
     <circle stroke-dasharray="2,2" id="svg_13" r="0.7431110739707947" cy="62.22871972620487" cx="60.60819097680451"/>
     <circle stroke-dasharray="2,2" id="svg_14" r="0.7431110739707947" cy="62.22871972620487" cx="68.10460897607209"/>
     <circle stroke-dasharray="2,2" id="svg_15" r="0.7431110739707947" cy="62.22871972620487" cx="75.6010346047342"/>
     <circle stroke-dasharray="2,2" id="svg_16" r="0.7431110739707947" cy="62.22871972620487" cx="83.09746404809357"/>
     <circle stroke-dasharray="2,2" id="svg_17" r="0.7431110739707947" cy="62.22871972620487" cx="90.59389349145295"/>
    </g>
   </g><g transform="rotate(0.03933641314506531 131.79742431640798,62.22773742675256) " class="" id="svg_72">
    <g id="svg_74" class="">
     <circle stroke-dasharray="2,2" id="svg_20" r="0.7431110739707947" cy="62.22776313498616" cx="90.51714547461779"/>
     <circle stroke-dasharray="2,2" id="svg_21" r="0.7431110739707947" cy="62.22776313498616" cx="98.0135825473717"/>
     <circle stroke-dasharray="2,2" id="svg_22" r="0.7431110739707947" cy="62.22776313498616" cx="105.51000436133654"/>
     <circle stroke-dasharray="2,2" id="svg_23" r="0.7431110739707947" cy="62.22776313498616" cx="113.00641091651232"/>
     <circle stroke-dasharray="2,2" id="svg_24" r="0.7431110739707947" cy="62.22776313498616" cx="120.50284798926623"/>
     <circle stroke-dasharray="2,2" id="svg_25" r="0.7431110739707947" cy="62.22776313498616" cx="127.99929269141467"/>
    </g>
    <g id="svg_76" class="">
     <circle stroke-dasharray="2,2" id="svg_27" r="0.7431110739707947" cy="62.22776313498616" cx="135.59565194434435"/>
     <circle stroke-dasharray="2,2" id="svg_28" r="0.7431110739707947" cy="62.22776313498616" cx="143.09208138770373"/>
     <circle stroke-dasharray="2,2" id="svg_29" r="0.7431110739707947" cy="62.22776313498616" cx="150.58852608985217"/>
     <circle stroke-dasharray="2,2" id="svg_30" r="0.7431110739707947" cy="62.22776313498616" cx="158.08494027442248"/>
     <circle stroke-dasharray="2,2" id="svg_31" r="0.7431110739707947" cy="62.22776313498616" cx="165.58136971778185"/>
     <circle stroke-dasharray="2,2" id="svg_32" r="0.7431110739707947" cy="62.22776313498616" cx="173.07779916114123"/>
    </g>
   </g><g id="svg_61" transform="rotate(0.03933641314506531 139.36506652831855,62.22776412966222) " class="">
    <g id="svg_19" class="">
     <circle stroke-dasharray="2,2" id="svg_20" r="0.7431110739707947" cy="62.227762419730425" cx="98.08471198863299" transform=""/>
     <circle stroke-dasharray="2,2" id="svg_21" r="0.7431110739707947" cy="62.227762419730425" cx="105.5811490613869" transform=""/>
     <circle stroke-dasharray="2,2" id="svg_22" r="0.7431110739707947" cy="62.227762419730425" cx="113.07757087535174" transform=""/>
     <circle stroke-dasharray="2,2" id="svg_23" r="0.7431110739707947" cy="62.227762419730425" cx="120.57397743052752" transform=""/>
     <circle stroke-dasharray="2,2" id="svg_24" r="0.7431110739707947" cy="62.227762419730425" cx="128.07041450328143" transform=""/>
     <circle stroke-dasharray="2,2" id="svg_25" r="0.7431110739707947" cy="62.227762419730425" cx="135.56685920542986" transform=""/>
    </g>
    <g id="svg_26" class="">
     <circle stroke-dasharray="2,2" id="svg_27" r="0.7431110739707947" cy="62.227762419730425" cx="143.16321845835955" transform=""/>
     <circle stroke-dasharray="2,2" id="svg_28" r="0.7431110739707947" cy="62.227762419730425" cx="150.65964790171893" transform=""/>
     <circle stroke-dasharray="2,2" id="svg_29" r="0.7431110739707947" cy="62.227762419730425" cx="158.15609260386736" transform=""/>
     <circle stroke-dasharray="2,2" id="svg_30" r="0.7431110739707947" cy="62.227762419730425" cx="165.65250678843768" transform=""/>
     <circle stroke-dasharray="2,2" id="svg_31" r="0.7431110739707947" cy="62.227762419730425" cx="173.14893623179705" transform=""/>
     <circle stroke-dasharray="2,2" id="svg_32" r="0.7431110739707947" cy="62.227762419730425" cx="180.64536567515643" transform=""/>
    </g>
   </g><g id="svg_63" transform="rotate(0.03933641314506531 252.1113128661974,62.30517196654459) " class="">
    <g id="svg_34">
     <g id="svg_35">
      <circle stroke-dasharray="2,2" id="svg_36" r="0.7431110739707947" cy="62.305168360471725" cx="188.34168920128965"/>
      <circle stroke-dasharray="2,2" id="svg_37" r="0.7431110739707947" cy="62.305168360471725" cx="195.83811864464903"/>
      <circle stroke-dasharray="2,2" id="svg_38" r="0.7431110739707947" cy="62.305168360471725" cx="203.33453282921934"/>
      <circle stroke-dasharray="2,2" id="svg_39" r="0.7431110739707947" cy="62.305168360471725" cx="210.83096227257872"/>
      <circle stroke-dasharray="2,2" id="svg_40" r="0.7431110739707947" cy="62.305168360471725" cx="218.3273917159381"/>
      <circle stroke-dasharray="2,2" id="svg_41" r="0.7431110739707947" cy="62.305168360471725" cx="225.8238059005084"/>
     </g>
     <g id="svg_42">
      <circle stroke-dasharray="2,2" id="svg_43" r="0.7431110739707947" cy="62.305168360471725" cx="233.32025060265684"/>
      <circle stroke-dasharray="2,2" id="svg_44" r="0.7431110739707947" cy="62.305168360471725" cx="240.81668004601622"/>
      <circle stroke-dasharray="2,2" id="svg_45" r="0.7431110739707947" cy="62.305168360471725" cx="248.31309423058653"/>
      <circle stroke-dasharray="2,2" id="svg_46" r="0.7431110739707947" cy="62.305168360471725" cx="255.809538932735"/>
      <circle stroke-dasharray="2,2" id="svg_47" r="0.7431110739707947" cy="62.305168360471725" cx="263.3059531173053"/>
      <circle stroke-dasharray="2,2" id="svg_48" r="0.7431110739707947" cy="62.305168360471725" cx="270.8023825606647"/>
     </g>
    </g>
    <g id="svg_49">
     <g id="svg_50">
      <circle stroke-dasharray="2,2" id="svg_51" r="0.7431110739707947" cy="62.305168360471725" cx="278.39875707238343"/>
      <circle stroke-dasharray="2,2" id="svg_52" r="0.7431110739707947" cy="62.305168360471725" cx="285.8951865157428"/>
      <circle stroke-dasharray="2,2" id="svg_53" r="0.7431110739707947" cy="62.305168360471725" cx="293.39158544152406"/>
      <circle stroke-dasharray="2,2" id="svg_54" r="0.7431110739707947" cy="62.305168360471725" cx="300.88801488488343"/>
      <circle stroke-dasharray="2,2" id="svg_55" r="0.7431110739707947" cy="62.305168360471725" cx="308.3844443282428"/>
      <circle stroke-dasharray="2,2" id="svg_56" r="0.7431110739707947" cy="62.305168360471725" cx="315.8808737716022"/>
     </g>
    </g>
   </g><g class="" id="svg_2">
    <g id="svg_33">
     <g id="svg_35">
      <circle stroke-dasharray="2,2" id="svg_36" r="0.7431110739707947" cy="62.305168360471725" cx="263.2670596560779"/>
      <circle stroke-dasharray="2,2" id="svg_37" r="0.7431110739707947" cy="62.305168360471725" cx="270.76348909943727"/>
      <circle stroke-dasharray="2,2" id="svg_38" r="0.7431110739707947" cy="62.305168360471725" cx="278.2599032840076"/>
      <circle stroke-dasharray="2,2" id="svg_39" r="0.7431110739707947" cy="62.305168360471725" cx="285.75633272736695"/>
      <circle stroke-dasharray="2,2" id="svg_40" r="0.7431110739707947" cy="62.305168360471725" cx="293.2527621707263"/>
      <circle stroke-dasharray="2,2" id="svg_41" r="0.7431110739707947" cy="62.305168360471725" cx="300.74917635529664"/>
     </g>
     <g id="svg_42">
      <circle stroke-dasharray="2,2" id="svg_43" r="0.7431110739707947" cy="62.305168360471725" cx="308.2456210574451"/>
      <circle stroke-dasharray="2,2" id="svg_44" r="0.7431110739707947" cy="62.305168360471725" cx="315.74205050080445"/>
      <circle stroke-dasharray="2,2" id="svg_45" r="0.7431110739707947" cy="62.305168360471725" cx="323.23846468537477"/>
      <circle stroke-dasharray="2,2" id="svg_46" r="0.7431110739707947" cy="62.305168360471725" cx="330.7349093875232"/>
      <circle stroke-dasharray="2,2" id="svg_47" r="0.7431110739707947" cy="62.305168360471725" cx="338.2313235720935"/>
      <circle stroke-dasharray="2,2" id="svg_48" r="0.7431110739707947" cy="62.305168360471725" cx="345.7277530154529"/>
     </g>
    </g>
    <g id="svg_58">
     <g id="svg_50">
      <circle stroke-dasharray="2,2" id="svg_51" r="0.7431110739707947" cy="62.305168360471725" cx="353.32412752717164"/>
      <circle stroke-dasharray="2,2" id="svg_52" r="0.7431110739707947" cy="62.305168360471725" cx="360.820556970531"/>
      <circle stroke-dasharray="2,2" id="svg_53" r="0.7431110739707947" cy="62.305168360471725" cx="368.31695589631227"/>
      <circle stroke-dasharray="2,2" id="svg_54" r="0.7431110739707947" cy="62.305168360471725" cx="375.81338533967164"/>
      <circle stroke-dasharray="2,2" id="svg_55" r="0.7431110739707947" cy="62.305168360471725" cx="383.309814783031"/>
      <circle stroke-dasharray="2,2" id="svg_56" r="0.7431110739707947" cy="62.305168360471725" cx="390.8062442263904"/>
     </g>
    </g>
   </g></g></g>
</svg>