<svg xmlns="http://www.w3.org/2000/svg" width="160" height="250" style=""><rect id="backgroundrect" width="53.33333206176758" height="83.33333587646484" x="-0.3333333432674408" y="0" fill="none" stroke="none" class="" style=""/>
 <style type="text/css">.st0{fill:#211915;}</style>

 <g style="">
  <title>background</title>
  <rect fill="none" id="canvas_background" height="322" width="10" y="-1" x="-1"/>
 </g>
 <g style="" class="currentLayer">
  <title>Layer 1</title>
  <path id="svg_1" d="m-37.8,-453.1" class="st0"/>
  
   
   
   
  <g class="" id="svg_57">
   <g id="svg_59">
    <g id="svg_4">
     <circle stroke-dasharray="2,2" id="svg_5" r="0.7431110739707947" cy="248.9061279296875" cx="-153.1116943359375"/>
     <circle stroke-dasharray="2,2" id="svg_6" r="0.7431110739707947" cy="248.9061279296875" cx="-145.61526489257812"/>
     <circle stroke-dasharray="2,2" id="svg_7" r="0.7431110739707947" cy="248.9061279296875" cx="-138.11883544921875"/>
     <circle stroke-dasharray="2,2" id="svg_8" r="0.7431110739707947" cy="248.9061279296875" cx="-130.62242126464844"/>
     <circle stroke-dasharray="2,2" id="svg_9" r="0.7431110739707947" cy="248.9061279296875" cx="-123.12598419189453"/>
     <circle stroke-dasharray="2,2" id="svg_10" r="0.7431110739707947" cy="248.9061279296875" cx="-115.62955474853516"/>
    </g>
    <g id="svg_11">
     <circle stroke-dasharray="2,2" id="svg_12" r="0.7431110739707947" cy="248.9061279296875" cx="-108.03317260742188"/>
     <circle stroke-dasharray="2,2" id="svg_13" r="0.7431110739707947" cy="248.9061279296875" cx="-100.5367431640625"/>
     <circle stroke-dasharray="2,2" id="svg_14" r="0.7431110739707947" cy="248.9061279296875" cx="-93.04032135009766"/>
     <circle stroke-dasharray="2,2" id="svg_15" r="0.7431110739707947" cy="248.9061279296875" cx="-85.54389953613281"/>
     <circle stroke-dasharray="2,2" id="svg_16" r="0.7431110739707947" cy="248.9061279296875" cx="-78.04747009277344"/>
     <circle stroke-dasharray="2,2" id="svg_17" r="0.7431110739707947" cy="248.9061279296875" cx="-70.55104064941406"/>
    </g>
   </g>
   <g id="svg_61">
    <g id="svg_19" class="">
     <circle stroke-dasharray="2,2" id="svg_20" r="0.7431110739707947" cy="248.84423828125" cx="-64.3591537475586"/>
     <circle stroke-dasharray="2,2" id="svg_21" r="0.7431110739707947" cy="248.84423828125" cx="-56.86271286010742"/>
     <circle stroke-dasharray="2,2" id="svg_22" r="0.7431110739707947" cy="248.84423828125" cx="-49.36629104614258"/>
     <circle stroke-dasharray="2,2" id="svg_23" r="0.7431110739707947" cy="248.84423828125" cx="-41.8698844909668"/>
     <circle stroke-dasharray="2,2" id="svg_24" r="0.7431110739707947" cy="248.84423828125" cx="-34.37344741821289"/>
     <circle stroke-dasharray="2,2" id="svg_25" r="0.7431110739707947" cy="248.84423828125" cx="-26.877002716064453"/>
    </g>
    <g id="svg_26" class="">
     <circle stroke-dasharray="2,2" id="svg_27" r="0.7431110739707947" cy="248.84423828125" cx="-19.280643463134766"/>
     <circle stroke-dasharray="2,2" id="svg_28" r="0.7431110739707947" cy="248.84423828125" cx="-11.78421401977539"/>
     <circle stroke-dasharray="2,2" id="svg_29" r="0.7431110739707947" cy="248.84423828125" cx="-4.287769794464111"/>
     <circle stroke-dasharray="2,2" id="svg_30" r="0.7431110739707947" cy="248.84423828125" cx="3.208644390106201"/>
     <circle stroke-dasharray="2,2" id="svg_31" r="0.7431110739707947" cy="248.84423828125" cx="10.705074310302734"/>
     <circle stroke-dasharray="2,2" id="svg_32" r="0.7431110739707947" cy="248.84423828125" cx="18.20150375366211"/>
    </g>
   </g>
   <g id="svg_63">
    <g id="svg_34">
     <g id="svg_35">
      <circle stroke-dasharray="2,2" id="svg_36" r="0.7431110739707947" cy="248.84423828125" cx="25.89785385131836"/>
      <circle stroke-dasharray="2,2" id="svg_37" r="0.7431110739707947" cy="248.84423828125" cx="33.394283294677734"/>
      <circle stroke-dasharray="2,2" id="svg_38" r="0.7431110739707947" cy="248.84423828125" cx="40.89069747924805"/>
      <circle stroke-dasharray="2,2" id="svg_39" r="0.7431110739707947" cy="248.84423828125" cx="48.38712692260742"/>
      <circle stroke-dasharray="2,2" id="svg_40" r="0.7431110739707947" cy="248.84423828125" cx="55.883548736572266"/>
      <circle stroke-dasharray="2,2" id="svg_41" r="0.7431110739707947" cy="248.84423828125" cx="63.37996292114258"/>
     </g>
     <g id="svg_42">
      <circle stroke-dasharray="2,2" id="svg_43" r="0.7431110739707947" cy="248.84423828125" cx="70.87640380859375"/>
      <circle stroke-dasharray="2,2" id="svg_44" r="0.7431110739707947" cy="248.84423828125" cx="78.37283325195312"/>
      <circle stroke-dasharray="2,2" id="svg_45" r="0.7431110739707947" cy="248.84423828125" cx="85.86924743652344"/>
      <circle stroke-dasharray="2,2" id="svg_46" r="0.7431110739707947" cy="248.84423828125" cx="93.36569213867188"/>
      <circle stroke-dasharray="2,2" id="svg_47" r="0.7431110739707947" cy="248.84423828125" cx="100.86210632324219"/>
      <circle stroke-dasharray="2,2" id="svg_48" r="0.7431110739707947" cy="248.84423828125" cx="108.35853576660156"/>
     </g>
    </g>
    <g id="svg_49">
     <g id="svg_50">
      <circle stroke-dasharray="2,2" id="svg_51" r="0.7431110739707947" cy="248.84423828125" cx="115.95491027832031"/>
      <circle stroke-dasharray="2,2" id="svg_52" r="0.7431110739707947" cy="248.84423828125" cx="123.45133972167969"/>
      <circle stroke-dasharray="2,2" id="svg_53" r="0.7431110739707947" cy="248.84423828125" cx="130.94773864746094"/>
      <circle stroke-dasharray="2,2" id="svg_54" r="0.7431110739707947" cy="248.84423828125" cx="138.4441680908203"/>
      <circle stroke-dasharray="2,2" id="svg_55" r="0.7431110739707947" cy="248.84423828125" cx="145.9405975341797"/>
      <circle stroke-dasharray="2,2" id="svg_56" r="0.7431110739707947" cy="248.84423828125" cx="153.43702697753906"/>
     </g>
    </g>
   </g>
  </g>
   
   
   
  
   
   
   
  
 
    
    
   <g id="svg_18" transform="rotate(89.98453521728516 159.0426025390625,139.84783935546875) " class="">
    <g id="svg_4">
     <circle stroke-dasharray="2,2" id="svg_5" r="0.7431110739707947" cy="139.84799194335938" cx="117.76545715332031"/>
     <circle stroke-dasharray="2,2" id="svg_6" r="0.7431110739707947" cy="139.84799194335938" cx="125.26188659667969"/>
     <circle stroke-dasharray="2,2" id="svg_7" r="0.7431110739707947" cy="139.84799194335938" cx="132.75831604003906"/>
     <circle stroke-dasharray="2,2" id="svg_8" r="0.7431110739707947" cy="139.84799194335938" cx="140.25474548339844"/>
     <circle stroke-dasharray="2,2" id="svg_9" r="0.7431110739707947" cy="139.84799194335938" cx="147.7511749267578"/>
     <circle stroke-dasharray="2,2" id="svg_10" r="0.7431110739707947" cy="139.84799194335938" cx="155.2476043701172"/>
    </g>
    <g id="svg_11">
     <circle stroke-dasharray="2,2" id="svg_12" r="0.7431110739707947" cy="139.84799194335938" cx="162.84397888183594"/>
     <circle stroke-dasharray="2,2" id="svg_13" r="0.7431110739707947" cy="139.84799194335938" cx="170.3404083251953"/>
     <circle stroke-dasharray="2,2" id="svg_14" r="0.7431110739707947" cy="139.84799194335938" cx="177.8368377685547"/>
     <circle stroke-dasharray="2,2" id="svg_15" r="0.7431110739707947" cy="139.84799194335938" cx="185.33323669433594"/>
     <circle stroke-dasharray="2,2" id="svg_16" r="0.7431110739707947" cy="139.84799194335938" cx="192.8296661376953"/>
     <circle stroke-dasharray="2,2" id="svg_17" r="0.7431110739707947" cy="139.84799194335938" cx="200.3260955810547"/>
    </g>
   </g><g transform="rotate(89.98453521728516 159.04270935058594,-10.485598564147955) " class="" id="svg_3">
    <g id="svg_58">
     <circle stroke-dasharray="2,2" id="svg_5" r="0.7431110739707947" cy="-10.485345840454102" cx="117.76546055078506"/>
     <circle stroke-dasharray="2,2" id="svg_6" r="0.7431110739707947" cy="-10.485345840454102" cx="125.26188999414444"/>
     <circle stroke-dasharray="2,2" id="svg_7" r="0.7431110739707947" cy="-10.485345840454102" cx="132.75831943750381"/>
     <circle stroke-dasharray="2,2" id="svg_8" r="0.7431110739707947" cy="-10.485345840454102" cx="140.2547488808632"/>
     <circle stroke-dasharray="2,2" id="svg_9" r="0.7431110739707947" cy="-10.485345840454102" cx="147.75117832422256"/>
     <circle stroke-dasharray="2,2" id="svg_10" r="0.7431110739707947" cy="-10.485345840454102" cx="155.24760776758194"/>
    </g>
    <g id="svg_62">
     <circle stroke-dasharray="2,2" id="svg_12" r="0.7431110739707947" cy="-10.485345840454102" cx="162.8439822793007"/>
     <circle stroke-dasharray="2,2" id="svg_13" r="0.7431110739707947" cy="-10.485345840454102" cx="170.34041172266006"/>
     <circle stroke-dasharray="2,2" id="svg_14" r="0.7431110739707947" cy="-10.485345840454102" cx="177.83684116601944"/>
     <circle stroke-dasharray="2,2" id="svg_15" r="0.7431110739707947" cy="-10.485345840454102" cx="185.3332400918007"/>
     <circle stroke-dasharray="2,2" id="svg_16" r="0.7431110739707947" cy="-10.485345840454102" cx="192.82966953516006"/>
     <circle stroke-dasharray="2,2" id="svg_17" r="0.7431110739707947" cy="-10.485345840454102" cx="200.32609897851944"/>
    </g>
   </g><g transform="rotate(89.98453521728516 158.9640350341797,57.08475875854494) " class="" id="svg_65">
    <g id="svg_67">
     <circle stroke-dasharray="2,2" id="svg_5" r="0.7431110739707947" cy="57.08298110961914" cx="117.68666076660156"/>
     <circle stroke-dasharray="2,2" id="svg_6" r="0.7431110739707947" cy="57.08298110961914" cx="125.18309020996094"/>
     <circle stroke-dasharray="2,2" id="svg_7" r="0.7431110739707947" cy="57.08298110961914" cx="132.6795196533203"/>
     <circle stroke-dasharray="2,2" id="svg_8" r="0.7431110739707947" cy="57.08298110961914" cx="140.1759490966797"/>
     <circle stroke-dasharray="2,2" id="svg_9" r="0.7431110739707947" cy="57.08298110961914" cx="147.67237854003906"/>
     <circle stroke-dasharray="2,2" id="svg_10" r="0.7431110739707947" cy="57.08298110961914" cx="155.16880798339844"/>
    </g>
    <g id="svg_69">
     <circle stroke-dasharray="2,2" id="svg_12" r="0.7431110739707947" cy="57.08298110961914" cx="162.7651824951172"/>
     <circle stroke-dasharray="2,2" id="svg_13" r="0.7431110739707947" cy="57.08298110961914" cx="170.26161193847656"/>
     <circle stroke-dasharray="2,2" id="svg_14" r="0.7431110739707947" cy="57.08298110961914" cx="177.75804138183594"/>
     <circle stroke-dasharray="2,2" id="svg_15" r="0.7431110739707947" cy="57.08298110961914" cx="185.2544403076172"/>
     <circle stroke-dasharray="2,2" id="svg_16" r="0.7431110739707947" cy="57.08298110961914" cx="192.75086975097656"/>
     <circle stroke-dasharray="2,2" id="svg_17" r="0.7431110739707947" cy="57.08298110961914" cx="200.24729919433594"/>
    </g>
   </g>
    
    
   <g transform="rotate(89.98453521728516 158.96392822265625,207.417236328125) " class="" id="svg_74">
    <g id="svg_76">
     <circle stroke-dasharray="2,2" id="svg_5" r="0.7431110739707947" cy="207.41632080078125" cx="117.68666076660156"/>
     <circle stroke-dasharray="2,2" id="svg_6" r="0.7431110739707947" cy="207.41632080078125" cx="125.18309020996094"/>
     <circle stroke-dasharray="2,2" id="svg_7" r="0.7431110739707947" cy="207.41632080078125" cx="132.6795196533203"/>
     <circle stroke-dasharray="2,2" id="svg_8" r="0.7431110739707947" cy="207.41632080078125" cx="140.1759490966797"/>
     <circle stroke-dasharray="2,2" id="svg_9" r="0.7431110739707947" cy="207.41632080078125" cx="147.67237854003906"/>
     <circle stroke-dasharray="2,2" id="svg_10" r="0.7431110739707947" cy="207.41632080078125" cx="155.16880798339844"/>
    </g>
    <g id="svg_78">
     <circle stroke-dasharray="2,2" id="svg_12" r="0.7431110739707947" cy="207.41632080078125" cx="162.7651824951172"/>
     <circle stroke-dasharray="2,2" id="svg_13" r="0.7431110739707947" cy="207.41632080078125" cx="170.26161193847656"/>
     <circle stroke-dasharray="2,2" id="svg_14" r="0.7431110739707947" cy="207.41632080078125" cx="177.75804138183594"/>
     <circle stroke-dasharray="2,2" id="svg_15" r="0.7431110739707947" cy="207.41632080078125" cx="185.2544403076172"/>
     <circle stroke-dasharray="2,2" id="svg_16" r="0.7431110739707947" cy="207.41632080078125" cx="192.75086975097656"/>
     <circle stroke-dasharray="2,2" id="svg_17" r="0.7431110739707947" cy="207.41632080078125" cx="200.24729919433594"/>
    </g>
   </g><rect fill="#fbd300" stroke-dashoffset="" fill-rule="nonzero" id="svg_71" x="156.95237731933594" y="-69.28571432828903" width="4" height="68" style="color: rgb(251, 211, 0);" class="" fill-opacity="1"/></g>
</svg>