<svg xmlns="http://www.w3.org/2000/svg" width="397" height="64" style=""><rect id="backgroundrect" width="100%" height="100%" x="0" y="0" fill="none" stroke="none" class="" style=""/>
 <style type="text/css">.st0{fill:#211915;}</style>

 <g style="">
  <title>background</title>
  <rect fill="none" id="canvas_background" height="322" width="10" y="-1" x="-1"/>
 </g>
 <g style="" class="currentLayer">
  <title>Layer 1</title>
  <path id="svg_1" d="m-37.8,-453.1" class="st0"/>
  
   
   
   
  
   
   
   
  
   
   
   
  
   
   
   
  
 
    
    
   <g id="svg_18" transform="rotate(89.98453521728516 395.64163208007807,12.30552673339849) " class="">
    <g id="svg_4" transform="">
     <circle stroke-dasharray="2,2" id="svg_5" r="0.7431110739707947" cy="12.305519104003906" cx="354.36260986328125" transform=""/>
     <circle stroke-dasharray="2,2" id="svg_6" r="0.7431110739707947" cy="12.305519104003906" cx="361.8590393066406" transform=""/>
     <circle stroke-dasharray="2,2" id="svg_7" r="0.7431110739707947" cy="12.305519104003906" cx="369.35546875" transform=""/>
     <circle stroke-dasharray="2,2" id="svg_8" r="0.7431110739707947" cy="12.305519104003906" cx="376.8518981933594" transform=""/>
     <circle stroke-dasharray="2,2" id="svg_9" r="0.7431110739707947" cy="12.305519104003906" cx="384.34832763671875" transform=""/>
     <circle stroke-dasharray="2,2" id="svg_10" r="0.7431110739707947" cy="12.305519104003906" cx="391.8447570800781" transform=""/>
    </g>
    <g id="svg_11" transform="">
     <circle stroke-dasharray="2,2" id="svg_12" r="0.7431110739707947" cy="12.305519104003906" cx="399.4411315917969" transform=""/>
     <circle stroke-dasharray="2,2" id="svg_13" r="0.7431110739707947" cy="12.305519104003906" cx="406.93756103515625" transform=""/>
     <circle stroke-dasharray="2,2" id="svg_14" r="0.7431110739707947" cy="12.305519104003906" cx="414.4339904785156" transform=""/>
     <circle stroke-dasharray="2,2" id="svg_15" r="0.7431110739707947" cy="12.305519104003906" cx="421.9303894042969" transform=""/>
     <circle stroke-dasharray="2,2" id="svg_16" r="0.7431110739707947" cy="12.305519104003906" cx="429.42681884765625" transform=""/>
     <circle stroke-dasharray="2,2" id="svg_17" r="0.7431110739707947" cy="12.305519104003906" cx="436.9232482910156" transform=""/>
    </g>
   </g><g class=""><g id="svg_59" transform="rotate(0.03933641314506531 48.77302932740847,62.22872161865111) " class="">
    <g id="svg_4">
     <circle stroke-dasharray="2,2" id="svg_5" r="0.7431110739707947" cy="62.228719010949135" cx="7.492698811715854"/>
     <circle stroke-dasharray="2,2" id="svg_6" r="0.7431110739707947" cy="62.228719010949135" cx="14.989125155633701"/>
     <circle stroke-dasharray="2,2" id="svg_7" r="0.7431110739707947" cy="62.228719010949135" cx="22.485551737970127"/>
     <circle stroke-dasharray="2,2" id="svg_8" r="0.7431110739707947" cy="62.228719010949135" cx="29.981977366632236"/>
     <circle stroke-dasharray="2,2" id="svg_9" r="0.7431110739707947" cy="62.228719010949135" cx="37.478408717340244"/>
     <circle stroke-dasharray="2,2" id="svg_10" r="0.7431110739707947" cy="62.228719010949135" cx="44.97483816069962"/>
    </g>
    <g id="svg_11">
     <circle stroke-dasharray="2,2" id="svg_12" r="0.7431110739707947" cy="62.228719010949135" cx="52.5712203018129"/>
     <circle stroke-dasharray="2,2" id="svg_13" r="0.7431110739707947" cy="62.228719010949135" cx="60.067649745172275"/>
     <circle stroke-dasharray="2,2" id="svg_14" r="0.7431110739707947" cy="62.228719010949135" cx="67.56406774443985"/>
     <circle stroke-dasharray="2,2" id="svg_15" r="0.7431110739707947" cy="62.228719010949135" cx="75.06049337310196"/>
     <circle stroke-dasharray="2,2" id="svg_16" r="0.7431110739707947" cy="62.228719010949135" cx="82.55692281646134"/>
     <circle stroke-dasharray="2,2" id="svg_17" r="0.7431110739707947" cy="62.228719010949135" cx="90.05335225982071"/>
    </g>
   </g><g id="svg_61" transform="rotate(0.03933641314506531 131.25692749020706,62.22776412965521) " class="">
    <g id="svg_19" class="">
     <circle stroke-dasharray="2,2" id="svg_20" r="0.7431110739707947" cy="62.227762419730425" cx="89.97660424298556"/>
     <circle stroke-dasharray="2,2" id="svg_21" r="0.7431110739707947" cy="62.227762419730425" cx="97.47304131573947"/>
     <circle stroke-dasharray="2,2" id="svg_22" r="0.7431110739707947" cy="62.227762419730425" cx="104.96946312970431"/>
     <circle stroke-dasharray="2,2" id="svg_23" r="0.7431110739707947" cy="62.227762419730425" cx="112.46586968488009"/>
     <circle stroke-dasharray="2,2" id="svg_24" r="0.7431110739707947" cy="62.227762419730425" cx="119.962306757634"/>
     <circle stroke-dasharray="2,2" id="svg_25" r="0.7431110739707947" cy="62.227762419730425" cx="127.45875145978243"/>
    </g>
    <g id="svg_26" class="">
     <circle stroke-dasharray="2,2" id="svg_27" r="0.7431110739707947" cy="62.227762419730425" cx="135.05511071271212"/>
     <circle stroke-dasharray="2,2" id="svg_28" r="0.7431110739707947" cy="62.227762419730425" cx="142.5515401560715"/>
     <circle stroke-dasharray="2,2" id="svg_29" r="0.7431110739707947" cy="62.227762419730425" cx="150.04798485821993"/>
     <circle stroke-dasharray="2,2" id="svg_30" r="0.7431110739707947" cy="62.227762419730425" cx="157.54439904279025"/>
     <circle stroke-dasharray="2,2" id="svg_31" r="0.7431110739707947" cy="62.227762419730425" cx="165.04082848614962"/>
     <circle stroke-dasharray="2,2" id="svg_32" r="0.7431110739707947" cy="62.227762419730425" cx="172.537257929509"/>
    </g>
   </g><g id="svg_63" transform="rotate(0.03933641314506531 244.00317382814478,62.30517196653757) " class="">
    <g id="svg_34">
     <g id="svg_35" transform="">
      <circle stroke-dasharray="2,2" id="svg_36" r="0.7431110739707947" cy="62.305168360471725" cx="180.23358145564222" transform=""/>
      <circle stroke-dasharray="2,2" id="svg_37" r="0.7431110739707947" cy="62.305168360471725" cx="187.7300108990016" transform=""/>
      <circle stroke-dasharray="2,2" id="svg_38" r="0.7431110739707947" cy="62.305168360471725" cx="195.2264250835719" transform=""/>
      <circle stroke-dasharray="2,2" id="svg_39" r="0.7431110739707947" cy="62.305168360471725" cx="202.7228545269313" transform=""/>
      <circle stroke-dasharray="2,2" id="svg_40" r="0.7431110739707947" cy="62.305168360471725" cx="210.21928397029066" transform=""/>
      <circle stroke-dasharray="2,2" id="svg_41" r="0.7431110739707947" cy="62.305168360471725" cx="217.71569815486097" transform=""/>
     </g>
     <g id="svg_42" transform="">
      <circle stroke-dasharray="2,2" id="svg_43" r="0.7431110739707947" cy="62.305168360471725" cx="225.2121428570094" transform=""/>
      <circle stroke-dasharray="2,2" id="svg_44" r="0.7431110739707947" cy="62.305168360471725" cx="232.7085723003688" transform=""/>
      <circle stroke-dasharray="2,2" id="svg_45" r="0.7431110739707947" cy="62.305168360471725" cx="240.2049864849391" transform=""/>
      <circle stroke-dasharray="2,2" id="svg_46" r="0.7431110739707947" cy="62.305168360471725" cx="247.70143118708754" transform=""/>
      <circle stroke-dasharray="2,2" id="svg_47" r="0.7431110739707947" cy="62.305168360471725" cx="255.19784537165785" transform=""/>
      <circle stroke-dasharray="2,2" id="svg_48" r="0.7431110739707947" cy="62.305168360471725" cx="262.69427481501725" transform=""/>
     </g>
    </g>
    <g id="svg_49">
     <g id="svg_50" transform="">
      <circle stroke-dasharray="2,2" id="svg_51" r="0.7431110739707947" cy="62.305168360471725" cx="270.290649326736" transform=""/>
      <circle stroke-dasharray="2,2" id="svg_52" r="0.7431110739707947" cy="62.305168360471725" cx="277.7870787700954" transform=""/>
      <circle stroke-dasharray="2,2" id="svg_53" r="0.7431110739707947" cy="62.305168360471725" cx="285.2834776958766" transform=""/>
      <circle stroke-dasharray="2,2" id="svg_54" r="0.7431110739707947" cy="62.305168360471725" cx="292.779907139236" transform=""/>
      <circle stroke-dasharray="2,2" id="svg_55" r="0.7431110739707947" cy="62.305168360471725" cx="300.2763365825954" transform=""/>
      <circle stroke-dasharray="2,2" id="svg_56" r="0.7431110739707947" cy="62.305168360471725" cx="307.77276602595475" transform=""/>
     </g>
    </g>
   </g><g class="" id="svg_2">
    <g id="svg_33">
     <g id="svg_35">
      <circle stroke-dasharray="2,2" id="svg_36" r="0.7431110739707947" cy="62.305168360471725" cx="255.15895191043046"/>
      <circle stroke-dasharray="2,2" id="svg_37" r="0.7431110739707947" cy="62.305168360471725" cx="262.65538135378983"/>
      <circle stroke-dasharray="2,2" id="svg_38" r="0.7431110739707947" cy="62.305168360471725" cx="270.15179553836015"/>
      <circle stroke-dasharray="2,2" id="svg_39" r="0.7431110739707947" cy="62.305168360471725" cx="277.6482249817195"/>
      <circle stroke-dasharray="2,2" id="svg_40" r="0.7431110739707947" cy="62.305168360471725" cx="285.1446544250789"/>
      <circle stroke-dasharray="2,2" id="svg_41" r="0.7431110739707947" cy="62.305168360471725" cx="292.6410686096492"/>
     </g>
     <g id="svg_42">
      <circle stroke-dasharray="2,2" id="svg_43" r="0.7431110739707947" cy="62.305168360471725" cx="300.13751331179765"/>
      <circle stroke-dasharray="2,2" id="svg_44" r="0.7431110739707947" cy="62.305168360471725" cx="307.633942755157"/>
      <circle stroke-dasharray="2,2" id="svg_45" r="0.7431110739707947" cy="62.305168360471725" cx="315.13035693972733"/>
      <circle stroke-dasharray="2,2" id="svg_46" r="0.7431110739707947" cy="62.305168360471725" cx="322.6268016418758"/>
      <circle stroke-dasharray="2,2" id="svg_47" r="0.7431110739707947" cy="62.305168360471725" cx="330.1232158264461"/>
      <circle stroke-dasharray="2,2" id="svg_48" r="0.7431110739707947" cy="62.305168360471725" cx="337.61964526980546"/>
     </g>
    </g>
    <g id="svg_58">
     <g id="svg_50">
      <circle stroke-dasharray="2,2" id="svg_51" r="0.7431110739707947" cy="62.305168360471725" cx="345.2160197815242"/>
      <circle stroke-dasharray="2,2" id="svg_52" r="0.7431110739707947" cy="62.305168360471725" cx="352.7124492248836"/>
      <circle stroke-dasharray="2,2" id="svg_53" r="0.7431110739707947" cy="62.305168360471725" cx="360.20884815066483"/>
      <circle stroke-dasharray="2,2" id="svg_54" r="0.7431110739707947" cy="62.305168360471725" cx="367.7052775940242"/>
      <circle stroke-dasharray="2,2" id="svg_55" r="0.7431110739707947" cy="62.305168360471725" cx="375.2017070373836"/>
      <circle stroke-dasharray="2,2" id="svg_56" r="0.7431110739707947" cy="62.305168360471725" cx="382.69813648074296"/>
     </g>
    </g>
   </g></g><rect fill="#ffffff" stroke-dashoffset="" fill-rule="nonzero" id="svg_62" x="394.4864833644609" y="-34.378379464149475" width="1.6486489325761795" height="40.51351481676102" style="color: rgb(251, 211, 0);" class="selected" stroke="#ffffff" stroke-opacity="1" fill-opacity="1"/></g>
</svg>