<svg xmlns="http://www.w3.org/2000/svg" width="315" height="152" style=""><rect id="backgroundrect" width="100%" height="100%" x="0" y="0" fill="none" stroke="none" class="" style=""/>
 <style type="text/css">.st0{fill:#211915;}</style>

 <g style="">
  <title>background</title>
  <rect fill="none" id="canvas_background" height="322" width="10" y="-1" x="-1"/>
 </g>
 <g style="" class="currentLayer">
  <title>Layer 1</title>
  <path id="svg_1" d="m-37.8,-453.1" class="st0"/>
  
   
   
   
  <g transform="rotate(0.03933641314506531 160.89247131346272,151.4283752441752) " class="selected" id="svg_57">
   <g id="svg_59">
    <g id="svg_4">
     <circle stroke-dasharray="2,2" id="svg_5" r="0.7431110739707947" cy="151.45932006835938" cx="7.61811089515686"/>
     <circle stroke-dasharray="2,2" id="svg_6" r="0.7431110739707947" cy="151.45932006835938" cx="15.114537239074707"/>
     <circle stroke-dasharray="2,2" id="svg_7" r="0.7431110739707947" cy="151.45932006835938" cx="22.610963821411133"/>
     <circle stroke-dasharray="2,2" id="svg_8" r="0.7431110739707947" cy="151.45932006835938" cx="30.107389450073242"/>
     <circle stroke-dasharray="2,2" id="svg_9" r="0.7431110739707947" cy="151.45932006835938" cx="37.60382080078125"/>
     <circle stroke-dasharray="2,2" id="svg_10" r="0.7431110739707947" cy="151.45932006835938" cx="45.100250244140625"/>
    </g>
    <g id="svg_11">
     <circle stroke-dasharray="2,2" id="svg_12" r="0.7431110739707947" cy="151.45932006835938" cx="52.696632385253906"/>
     <circle stroke-dasharray="2,2" id="svg_13" r="0.7431110739707947" cy="151.45932006835938" cx="60.19306182861328"/>
     <circle stroke-dasharray="2,2" id="svg_14" r="0.7431110739707947" cy="151.45932006835938" cx="67.68947982788086"/>
     <circle stroke-dasharray="2,2" id="svg_15" r="0.7431110739707947" cy="151.45932006835938" cx="75.18590545654297"/>
     <circle stroke-dasharray="2,2" id="svg_16" r="0.7431110739707947" cy="151.45932006835938" cx="82.68233489990234"/>
     <circle stroke-dasharray="2,2" id="svg_17" r="0.7431110739707947" cy="151.45932006835938" cx="90.17876434326172"/>
    </g>
   </g>
   <g id="svg_61">
    <g id="svg_19" class="">
     <circle stroke-dasharray="2,2" id="svg_20" r="0.7431110739707947" cy="151.39743041992188" cx="96.37065124511719"/>
     <circle stroke-dasharray="2,2" id="svg_21" r="0.7431110739707947" cy="151.39743041992188" cx="103.8670883178711"/>
     <circle stroke-dasharray="2,2" id="svg_22" r="0.7431110739707947" cy="151.39743041992188" cx="111.36351013183594"/>
     <circle stroke-dasharray="2,2" id="svg_23" r="0.7431110739707947" cy="151.39743041992188" cx="118.85991668701172"/>
     <circle stroke-dasharray="2,2" id="svg_24" r="0.7431110739707947" cy="151.39743041992188" cx="126.35635375976562"/>
     <circle stroke-dasharray="2,2" id="svg_25" r="0.7431110739707947" cy="151.39743041992188" cx="133.85279846191406"/>
    </g>
    <g id="svg_26" class="">
     <circle stroke-dasharray="2,2" id="svg_27" r="0.7431110739707947" cy="151.39743041992188" cx="141.44915771484375"/>
     <circle stroke-dasharray="2,2" id="svg_28" r="0.7431110739707947" cy="151.39743041992188" cx="148.94558715820312"/>
     <circle stroke-dasharray="2,2" id="svg_29" r="0.7431110739707947" cy="151.39743041992188" cx="156.44203186035156"/>
     <circle stroke-dasharray="2,2" id="svg_30" r="0.7431110739707947" cy="151.39743041992188" cx="163.93844604492188"/>
     <circle stroke-dasharray="2,2" id="svg_31" r="0.7431110739707947" cy="151.39743041992188" cx="171.43487548828125"/>
     <circle stroke-dasharray="2,2" id="svg_32" r="0.7431110739707947" cy="151.39743041992188" cx="178.93130493164062"/>
    </g>
   </g>
   <g id="svg_63">
    <g id="svg_34">
     <g id="svg_35">
      <circle stroke-dasharray="2,2" id="svg_36" r="0.7431110739707947" cy="151.39743041992188" cx="186.62765502929688"/>
      <circle stroke-dasharray="2,2" id="svg_37" r="0.7431110739707947" cy="151.39743041992188" cx="194.12408447265625"/>
      <circle stroke-dasharray="2,2" id="svg_38" r="0.7431110739707947" cy="151.39743041992188" cx="201.62049865722656"/>
      <circle stroke-dasharray="2,2" id="svg_39" r="0.7431110739707947" cy="151.39743041992188" cx="209.11692810058594"/>
      <circle stroke-dasharray="2,2" id="svg_40" r="0.7431110739707947" cy="151.39743041992188" cx="216.6133575439453"/>
      <circle stroke-dasharray="2,2" id="svg_41" r="0.7431110739707947" cy="151.39743041992188" cx="224.10977172851562"/>
     </g>
     <g id="svg_42">
      <circle stroke-dasharray="2,2" id="svg_43" r="0.7431110739707947" cy="151.39743041992188" cx="231.60621643066406"/>
      <circle stroke-dasharray="2,2" id="svg_44" r="0.7431110739707947" cy="151.39743041992188" cx="239.10264587402344"/>
      <circle stroke-dasharray="2,2" id="svg_45" r="0.7431110739707947" cy="151.39743041992188" cx="246.59906005859375"/>
      <circle stroke-dasharray="2,2" id="svg_46" r="0.7431110739707947" cy="151.39743041992188" cx="254.0955047607422"/>
      <circle stroke-dasharray="2,2" id="svg_47" r="0.7431110739707947" cy="151.39743041992188" cx="261.5919189453125"/>
      <circle stroke-dasharray="2,2" id="svg_48" r="0.7431110739707947" cy="151.39743041992188" cx="269.0883483886719"/>
     </g>
    </g>
    <g id="svg_49">
     <g id="svg_50">
      <circle stroke-dasharray="2,2" id="svg_51" r="0.7431110739707947" cy="151.39743041992188" cx="276.6847229003906"/>
      <circle stroke-dasharray="2,2" id="svg_52" r="0.7431110739707947" cy="151.39743041992188" cx="284.18115234375"/>
      <circle stroke-dasharray="2,2" id="svg_53" r="0.7431110739707947" cy="151.39743041992188" cx="291.67755126953125"/>
      <circle stroke-dasharray="2,2" id="svg_54" r="0.7431110739707947" cy="151.39743041992188" cx="299.1739807128906"/>
      <circle stroke-dasharray="2,2" id="svg_55" r="0.7431110739707947" cy="151.39743041992188" cx="306.67041015625"/>
      <circle stroke-dasharray="2,2" id="svg_56" r="0.7431110739707947" cy="151.39743041992188" cx="314.1668395996094"/>
     </g>
    </g>
   </g>
  </g>
   
   
   
  
   
   
   
  
 
    
    
   </g>
</svg>