<svg xmlns="http://www.w3.org/2000/svg" width="240" height="250" style=""><rect id="backgroundrect" width="100%" height="100%" x="0" y="0" fill="none" stroke="none" class="" style=""/>
 <style type="text/css">.st0{fill:#211915;}</style>

 <g style="">
  <title>background</title>
  <rect fill="none" id="canvas_background" height="322" width="10" y="-1" x="-1"/>
 </g>
 <g style="" class="currentLayer">
  <title>Layer 1</title>
  <path id="svg_1" d="m-37.8,-453.1" class="st0"/>
  
   
   
   
  
   
   
   
  
   
   
   
  
 
    
    
   <g id="svg_18" transform="rotate(89.98453521728516 238.09118652343747,139.84783935546878) " class="">
    <g id="svg_4">
     <circle stroke-dasharray="2,2" id="svg_5" r="0.7431110739707947" cy="139.84799194335938" cx="196.81307983398438"/>
     <circle stroke-dasharray="2,2" id="svg_6" r="0.7431110739707947" cy="139.84799194335938" cx="204.30950927734375"/>
     <circle stroke-dasharray="2,2" id="svg_7" r="0.7431110739707947" cy="139.84799194335938" cx="211.80593872070312"/>
     <circle stroke-dasharray="2,2" id="svg_8" r="0.7431110739707947" cy="139.84799194335938" cx="219.3023681640625"/>
     <circle stroke-dasharray="2,2" id="svg_9" r="0.7431110739707947" cy="139.84799194335938" cx="226.79879760742188"/>
     <circle stroke-dasharray="2,2" id="svg_10" r="0.7431110739707947" cy="139.84799194335938" cx="234.29522705078125"/>
    </g>
    <g id="svg_11">
     <circle stroke-dasharray="2,2" id="svg_12" r="0.7431110739707947" cy="139.84799194335938" cx="241.8916015625"/>
     <circle stroke-dasharray="2,2" id="svg_13" r="0.7431110739707947" cy="139.84799194335938" cx="249.38803100585938"/>
     <circle stroke-dasharray="2,2" id="svg_14" r="0.7431110739707947" cy="139.84799194335938" cx="256.88446044921875"/>
     <circle stroke-dasharray="2,2" id="svg_15" r="0.7431110739707947" cy="139.84799194335938" cx="264.380859375"/>
     <circle stroke-dasharray="2,2" id="svg_16" r="0.7431110739707947" cy="139.84799194335938" cx="271.8772888183594"/>
     <circle stroke-dasharray="2,2" id="svg_17" r="0.7431110739707947" cy="139.84799194335938" cx="279.37371826171875"/>
    </g>
   </g><g transform="rotate(89.98453521728516 238.09129333496094,-10.48559856414794) " class="" id="svg_3">
    <g id="svg_58">
     <circle stroke-dasharray="2,2" id="svg_5" r="0.7431110739707947" cy="-10.485345840454102" cx="196.81307983398438"/>
     <circle stroke-dasharray="2,2" id="svg_6" r="0.7431110739707947" cy="-10.485345840454102" cx="204.30950927734375"/>
     <circle stroke-dasharray="2,2" id="svg_7" r="0.7431110739707947" cy="-10.485345840454102" cx="211.80593872070312"/>
     <circle stroke-dasharray="2,2" id="svg_8" r="0.7431110739707947" cy="-10.485345840454102" cx="219.3023681640625"/>
     <circle stroke-dasharray="2,2" id="svg_9" r="0.7431110739707947" cy="-10.485345840454102" cx="226.79879760742188"/>
     <circle stroke-dasharray="2,2" id="svg_10" r="0.7431110739707947" cy="-10.485345840454102" cx="234.29522705078125"/>
    </g>
    <g id="svg_62">
     <circle stroke-dasharray="2,2" id="svg_12" r="0.7431110739707947" cy="-10.485345840454102" cx="241.8916015625"/>
     <circle stroke-dasharray="2,2" id="svg_13" r="0.7431110739707947" cy="-10.485345840454102" cx="249.38803100585938"/>
     <circle stroke-dasharray="2,2" id="svg_14" r="0.7431110739707947" cy="-10.485345840454102" cx="256.88446044921875"/>
     <circle stroke-dasharray="2,2" id="svg_15" r="0.7431110739707947" cy="-10.485345840454102" cx="264.380859375"/>
     <circle stroke-dasharray="2,2" id="svg_16" r="0.7431110739707947" cy="-10.485345840454102" cx="271.8772888183594"/>
     <circle stroke-dasharray="2,2" id="svg_17" r="0.7431110739707947" cy="-10.485345840454102" cx="279.37371826171875"/>
    </g>
   </g><g transform="rotate(89.98453521728516 238.0126190185547,57.084758758544965) " class="" id="svg_65">
    <g id="svg_67">
     <circle stroke-dasharray="2,2" id="svg_5" r="0.7431110739707947" cy="57.08298110961914" cx="196.73428344726562"/>
     <circle stroke-dasharray="2,2" id="svg_6" r="0.7431110739707947" cy="57.08298110961914" cx="204.230712890625"/>
     <circle stroke-dasharray="2,2" id="svg_7" r="0.7431110739707947" cy="57.08298110961914" cx="211.72714233398438"/>
     <circle stroke-dasharray="2,2" id="svg_8" r="0.7431110739707947" cy="57.08298110961914" cx="219.22357177734375"/>
     <circle stroke-dasharray="2,2" id="svg_9" r="0.7431110739707947" cy="57.08298110961914" cx="226.72000122070312"/>
     <circle stroke-dasharray="2,2" id="svg_10" r="0.7431110739707947" cy="57.08298110961914" cx="234.2164306640625"/>
    </g>
    <g id="svg_69">
     <circle stroke-dasharray="2,2" id="svg_12" r="0.7431110739707947" cy="57.08298110961914" cx="241.81280517578125"/>
     <circle stroke-dasharray="2,2" id="svg_13" r="0.7431110739707947" cy="57.08298110961914" cx="249.30923461914062"/>
     <circle stroke-dasharray="2,2" id="svg_14" r="0.7431110739707947" cy="57.08298110961914" cx="256.8056640625"/>
     <circle stroke-dasharray="2,2" id="svg_15" r="0.7431110739707947" cy="57.08298110961914" cx="264.30206298828125"/>
     <circle stroke-dasharray="2,2" id="svg_16" r="0.7431110739707947" cy="57.08298110961914" cx="271.7984924316406"/>
     <circle stroke-dasharray="2,2" id="svg_17" r="0.7431110739707947" cy="57.08298110961914" cx="279.294921875"/>
    </g>
   </g>
    
    
   <g transform="rotate(89.98453521728516 238.01251220703128,207.41723632812503) " class="" id="svg_74">
    <g id="svg_76">
     <circle stroke-dasharray="2,2" id="svg_5" r="0.7431110739707947" cy="207.41632080078125" cx="196.73428344726562"/>
     <circle stroke-dasharray="2,2" id="svg_6" r="0.7431110739707947" cy="207.41632080078125" cx="204.230712890625"/>
     <circle stroke-dasharray="2,2" id="svg_7" r="0.7431110739707947" cy="207.41632080078125" cx="211.72714233398438"/>
     <circle stroke-dasharray="2,2" id="svg_8" r="0.7431110739707947" cy="207.41632080078125" cx="219.22357177734375"/>
     <circle stroke-dasharray="2,2" id="svg_9" r="0.7431110739707947" cy="207.41632080078125" cx="226.72000122070312"/>
     <circle stroke-dasharray="2,2" id="svg_10" r="0.7431110739707947" cy="207.41632080078125" cx="234.2164306640625"/>
    </g>
    <g id="svg_78">
     <circle stroke-dasharray="2,2" id="svg_12" r="0.7431110739707947" cy="207.41632080078125" cx="241.81280517578125"/>
     <circle stroke-dasharray="2,2" id="svg_13" r="0.7431110739707947" cy="207.41632080078125" cx="249.30923461914062"/>
     <circle stroke-dasharray="2,2" id="svg_14" r="0.7431110739707947" cy="207.41632080078125" cx="256.8056640625"/>
     <circle stroke-dasharray="2,2" id="svg_15" r="0.7431110739707947" cy="207.41632080078125" cx="264.30206298828125"/>
     <circle stroke-dasharray="2,2" id="svg_16" r="0.7431110739707947" cy="207.41632080078125" cx="271.7984924316406"/>
     <circle stroke-dasharray="2,2" id="svg_17" r="0.7431110739707947" cy="207.41632080078125" cx="279.294921875"/>
    </g>
   </g><rect fill="#fbd300" stroke-dashoffset="" fill-rule="nonzero" id="svg_71" x="236" y="-55" width="4" height="68" style="color: rgb(251, 211, 0);" class="" fill-opacity="1"/></g>
</svg>